Untitled.ufo
<glyph name="six" format="1">
  <advance width="524"/>
  <unicode hex="0036"/>
  <outline>
    <contour>
      <point x="136" y="219" type="curve"/>
      <point x="143" y="215"/>
      <point x="179" y="198"/>
      <point x="187" y="195" type="curve"/>
      <point x="198" y="192"/>
      <point x="248" y="182"/>
      <point x="259" y="182" type="curve"/>
      <point x="266" y="188"/>
      <point x="271" y="184"/>
      <point x="280" y="185" type="curve"/>
      <point x="287" y="186"/>
      <point x="323" y="193"/>
      <point x="331" y="195" type="curve"/>
      <point x="332" y="195"/>
      <point x="337" y="198"/>
      <point x="338" y="199" type="curve"/>
      <point x="339" y="199"/>
      <point x="350" y="202"/>
      <point x="351" y="202" type="curve"/>
      <point x="364" y="208"/>
      <point x="400" y="227"/>
      <point x="403" y="229" type="curve"/>
      <point x="411" y="235"/>
      <point x="442" y="266"/>
      <point x="447" y="274" type="curve"/>
      <point x="448" y="276"/>
      <point x="450" y="283"/>
      <point x="451" y="284" type="curve"/>
      <point x="453" y="289"/>
      <point x="473" y="330"/>
      <point x="475" y="336" type="curve"/>
      <point x="475" y="337"/>
      <point x="478" y="351"/>
      <point x="478" y="353" type="curve"/>
      <point x="486" y="381"/>
      <point x="489" y="397"/>
      <point x="489" y="427" type="curve"/>
      <point x="489" y="455"/>
      <point x="487" y="490"/>
      <point x="475" y="517" type="curve"/>
      <point x="472" y="524"/>
      <point x="450" y="567"/>
      <point x="444" y="579" type="curve"/>
      <point x="443" y="581"/>
      <point x="438" y="588"/>
      <point x="437" y="589" type="curve"/>
      <point x="431" y="596"/>
      <point x="407" y="620"/>
      <point x="403" y="623" type="curve"/>
      <point x="402" y="624"/>
      <point x="391" y="629"/>
      <point x="389" y="630" type="curve"/>
      <point x="388" y="631"/>
      <point x="380" y="637"/>
      <point x="379" y="637" type="curve"/>
      <point x="367" y="642"/>
      <point x="328" y="654"/>
      <point x="324" y="654" type="curve"/>
      <point x="323" y="654"/>
      <point x="303" y="655"/>
      <point x="296" y="655" type="curve"/>
      <point x="279" y="655"/>
      <point x="261" y="657"/>
      <point x="245" y="651" type="curve"/>
      <point x="234" y="646"/>
      <point x="181" y="625"/>
      <point x="170" y="620" type="curve"/>
      <point x="170" y="620"/>
      <point x="169" y="620"/>
      <point x="168" y="620" type="curve"/>
      <point x="164" y="620"/>
      <point x="163" y="625"/>
      <point x="163" y="628" type="curve"/>
      <point x="163" y="641"/>
      <point x="168" y="644"/>
      <point x="173" y="654" type="curve"/>
      <point x="175" y="657"/>
      <point x="189" y="685"/>
      <point x="191" y="688" type="curve"/>
      <point x="193" y="693"/>
      <point x="205" y="710"/>
      <point x="208" y="712" type="curve"/>
      <point x="300" y="812" type="line"/>
      <point x="302" y="814"/>
      <point x="334" y="838"/>
      <point x="345" y="846" type="curve"/>
      <point x="346" y="847"/>
      <point x="357" y="852"/>
      <point x="358" y="853" type="curve"/>
      <point x="360" y="854"/>
      <point x="371" y="862"/>
      <point x="372" y="863" type="curve"/>
      <point x="384" y="870"/>
      <point x="442" y="901"/>
      <point x="454" y="908" type="curve"/>
      <point x="454" y="918" type="line"/>
      <point x="454" y="919"/>
      <point x="433" y="936"/>
      <point x="423" y="942" type="curve"/>
      <point x="421" y="943"/>
      <point x="412" y="945"/>
      <point x="410" y="945" type="curve"/>
      <point x="407" y="945"/>
      <point x="391" y="940"/>
      <point x="386" y="938" type="curve"/>
      <point x="384" y="938"/>
      <point x="367" y="929"/>
      <point x="365" y="928" type="curve"/>
      <point x="359" y="926"/>
      <point x="330" y="916"/>
      <point x="324" y="914" type="curve"/>
      <point x="321" y="912"/>
      <point x="318" y="908"/>
      <point x="317" y="904" type="curve"/>
      <point x="201" y="829" type="line"/>
      <point x="198" y="827"/>
      <point x="167" y="798"/>
      <point x="156" y="788" type="curve"/>
      <point x="134" y="765"/>
      <point x="116" y="739"/>
      <point x="98" y="712" type="curve"/>
      <point x="95" y="708"/>
      <point x="92" y="702"/>
      <point x="88" y="699" type="curve"/>
      <point x="81" y="686"/>
      <point x="55" y="623"/>
      <point x="50" y="610" type="curve"/>
      <point x="50" y="608"/>
      <point x="43" y="572"/>
      <point x="40" y="558" type="curve"/>
      <point x="33" y="523"/>
      <point x="32" y="491"/>
      <point x="32" y="455" type="curve"/>
      <point x="32" y="444"/>
      <point x="33" y="415"/>
      <point x="33" y="414" type="curve"/>
      <point x="35" y="400"/>
      <point x="51" y="336"/>
      <point x="57" y="322" type="curve"/>
      <point x="62" y="310"/>
      <point x="90" y="260"/>
      <point x="98" y="250" type="curve"/>
      <point x="103" y="246"/>
      <point x="127" y="227"/>
      <point x="132" y="223" type="curve"/>
      <point x="133" y="222"/>
      <point x="135" y="220"/>
    </contour>
    <contour>
      <point x="251" y="583" type="curve"/>
      <point x="255" y="583"/>
      <point x="265" y="582"/>
      <point x="266" y="582" type="curve"/>
      <point x="274" y="581"/>
      <point x="305" y="571"/>
      <point x="310" y="568" type="curve"/>
      <point x="315" y="566"/>
      <point x="334" y="552"/>
      <point x="338" y="548" type="curve"/>
      <point x="341" y="545"/>
      <point x="355" y="523"/>
      <point x="358" y="517" type="curve"/>
      <point x="360" y="515"/>
      <point x="368" y="492"/>
      <point x="369" y="490" type="curve"/>
      <point x="369" y="489"/>
      <point x="372" y="484"/>
      <point x="372" y="483" type="curve"/>
      <point x="372" y="483"/>
      <point x="375" y="480"/>
      <point x="375" y="479" type="curve"/>
      <point x="376" y="478"/>
      <point x="375" y="467"/>
      <point x="375" y="466" type="curve"/>
      <point x="376" y="462"/>
      <point x="382" y="435"/>
      <point x="382" y="432" type="curve"/>
      <point x="382" y="430"/>
      <point x="383" y="408"/>
      <point x="383" y="399" type="curve"/>
      <point x="383" y="360"/>
      <point x="377" y="327"/>
      <point x="362" y="291" type="curve"/>
      <point x="357" y="281"/>
      <point x="352" y="279"/>
      <point x="345" y="271" type="curve"/>
      <point x="344" y="270"/>
      <point x="339" y="261"/>
      <point x="338" y="260" type="curve"/>
      <point x="336" y="258"/>
      <point x="326" y="251"/>
      <point x="324" y="250" type="curve"/>
      <point x="316" y="246"/>
      <point x="290" y="234"/>
      <point x="286" y="233" type="curve"/>
      <point x="286" y="233"/>
      <point x="277" y="233"/>
      <point x="273" y="233" type="curve"/>
      <point x="243" y="233"/>
      <point x="212" y="234"/>
      <point x="194" y="260" type="curve"/>
      <point x="174" y="290"/>
      <point x="159" y="317"/>
      <point x="149" y="353" type="curve"/>
      <point x="147" y="361"/>
      <point x="143" y="387"/>
      <point x="143" y="390" type="curve"/>
      <point x="143" y="541" type="line"/>
      <point x="143" y="556"/>
      <point x="191" y="573"/>
      <point x="201" y="575" type="curve"/>
      <point x="207" y="577"/>
      <point x="231" y="582"/>
      <point x="235" y="582" type="curve"/>
      <point x="236" y="582"/>
      <point x="247" y="583"/>
    </contour>
    <contour>
      <point x="160" y="389" type="curve"/>
      <point x="158" y="389"/>
      <point x="158" y="385"/>
      <point x="160" y="385" type="curve"/>
      <point x="161" y="385"/>
      <point x="161" y="389"/>
    </contour>
    <contour>
      <point x="252" y="526" type="curve"/>
      <point x="250" y="526"/>
      <point x="250" y="522"/>
      <point x="252" y="522" type="curve"/>
      <point x="254" y="522"/>
      <point x="254" y="526"/>
    </contour>
    <contour>
      <point x="290" y="533" type="curve"/>
      <point x="288" y="533"/>
      <point x="288" y="529"/>
      <point x="290" y="529" type="curve"/>
      <point x="292" y="529"/>
      <point x="292" y="533"/>
    </contour>
    <contour>
      <point x="393" y="858" type="curve"/>
      <point x="391" y="858"/>
      <point x="391" y="854"/>
      <point x="393" y="854" type="curve"/>
      <point x="394" y="854"/>
      <point x="394" y="858"/>
    </contour>
  </outline>
</glyph>
<glyph name="H" format="1">
  <advance width="894"/>
  <unicode hex="0048"/>
  <outline>
    <contour>
      <point x="42" y="23" type="curve"/>
      <point x="42" y="8"/>
      <point x="49" y="0"/>
      <point x="65" y="0" type="curve"/>
      <point x="65" y="0"/>
      <point x="66" y="0"/>
      <point x="66" y="0" type="curve"/>
      <point x="68" y="0"/>
      <point x="85" y="3"/>
      <point x="87" y="3" type="curve"/>
      <point x="97" y="4"/>
      <point x="133" y="7"/>
      <point x="138" y="7" type="curve"/>
      <point x="174" y="7"/>
      <point x="339" y="7"/>
      <point x="375" y="7" type="curve"/>
      <point x="376" y="7"/>
      <point x="384" y="11"/>
      <point x="385" y="14" type="curve"/>
      <point x="388" y="24"/>
      <point x="389" y="36"/>
      <point x="389" y="47" type="curve"/>
      <point x="389" y="49"/>
      <point x="388" y="55"/>
      <point x="388" y="55" type="curve"/>
      <point x="387" y="57"/>
      <point x="380" y="64"/>
      <point x="378" y="65" type="curve"/>
      <point x="372" y="64"/>
      <point x="343" y="64"/>
      <point x="337" y="65" type="curve"/>
      <point x="332" y="66"/>
      <point x="308" y="78"/>
      <point x="303" y="82" type="curve"/>
      <point x="302" y="83"/>
      <point x="290" y="99"/>
      <point x="286" y="106" type="curve"/>
      <point x="285" y="107"/>
      <point x="282" y="112"/>
      <point x="282" y="113" type="curve"/>
      <point x="281" y="119"/>
      <point x="276" y="146"/>
      <point x="275" y="151" type="curve"/>
      <point x="275" y="153"/>
      <point x="275" y="169"/>
      <point x="275" y="171" type="curve"/>
      <point x="275" y="187"/>
      <point x="272" y="313"/>
      <point x="272" y="329" type="curve"/>
      <point x="272" y="331"/>
      <point x="272" y="347"/>
      <point x="272" y="352" type="curve"/>
      <point x="272" y="356"/>
      <point x="272" y="366"/>
      <point x="272" y="366" type="curve"/>
      <point x="275" y="370" type="line"/>
      <point x="276" y="371"/>
      <point x="298" y="373"/>
      <point x="306" y="373" type="curve"/>
      <point x="308" y="373"/>
      <point x="346" y="374"/>
      <point x="361" y="374" type="curve"/>
      <point x="375" y="374"/>
      <point x="416" y="373"/>
      <point x="419" y="373" type="curve"/>
      <point x="427" y="373"/>
      <point x="487" y="370"/>
      <point x="494" y="370" type="curve"/>
      <point x="514" y="370"/>
      <point x="605" y="371"/>
      <point x="625" y="371" type="curve"/>
      <point x="625" y="140" type="line"/>
      <point x="625" y="104"/>
      <point x="594" y="69"/>
      <point x="560" y="62" type="curve"/>
      <point x="557" y="61"/>
      <point x="538" y="59"/>
      <point x="536" y="58" type="curve"/>
      <point x="532" y="58"/>
      <point x="523" y="55"/>
      <point x="522" y="55" type="curve"/>
      <point x="513" y="50"/>
      <point x="511" y="39"/>
      <point x="511" y="31" type="curve"/>
      <point x="511" y="19"/>
      <point x="514" y="11"/>
      <point x="525" y="7" type="curve"/>
      <point x="530" y="7"/>
      <point x="553" y="7"/>
      <point x="558" y="7" type="curve"/>
      <point x="653" y="7"/>
      <point x="748" y="12"/>
      <point x="844" y="10" type="curve"/>
      <point x="847" y="11"/>
      <point x="852" y="14"/>
      <point x="854" y="17" type="curve"/>
      <point x="854" y="19"/>
      <point x="854" y="30"/>
      <point x="854" y="33" type="curve"/>
      <point x="854" y="40"/>
      <point x="856" y="57"/>
      <point x="847" y="62" type="curve"/>
      <point x="793" y="65"/>
      <point x="749" y="80"/>
      <point x="744" y="144" type="curve"/>
      <point x="744" y="151"/>
      <point x="745" y="209"/>
      <point x="744" y="216" type="curve"/>
      <point x="744" y="234"/>
      <point x="741" y="379"/>
      <point x="741" y="397" type="curve"/>
      <point x="741" y="408"/>
      <point x="741" y="513"/>
      <point x="741" y="547" type="curve"/>
      <point x="741" y="575"/>
      <point x="741" y="643"/>
      <point x="741" y="644" type="curve"/>
      <point x="758" y="695" type="line"/>
      <point x="758" y="696"/>
      <point x="763" y="701"/>
      <point x="765" y="702" type="curve"/>
      <point x="769" y="705"/>
      <point x="788" y="720"/>
      <point x="792" y="723" type="curve"/>
      <point x="809" y="734"/>
      <point x="841" y="724"/>
      <point x="851" y="740" type="curve"/>
      <point x="851" y="741"/>
      <point x="851" y="750"/>
      <point x="851" y="752" type="curve"/>
      <point x="851" y="763"/>
      <point x="852" y="777"/>
      <point x="837" y="777" type="curve"/>
      <point x="518" y="777" type="line"/>
      <point x="518" y="777"/>
      <point x="515" y="773"/>
      <point x="515" y="771" type="curve"/>
      <point x="515" y="770"/>
      <point x="515" y="757"/>
      <point x="515" y="752" type="curve"/>
      <point x="515" y="749"/>
      <point x="515" y="740"/>
      <point x="515" y="740" type="curve"/>
      <point x="522" y="733" type="line"/>
      <point x="529" y="733"/>
      <point x="560" y="728"/>
      <point x="566" y="726" type="curve"/>
      <point x="578" y="723"/>
      <point x="592" y="716"/>
      <point x="601" y="705" type="curve"/>
      <point x="604" y="702"/>
      <point x="618" y="682"/>
      <point x="621" y="678" type="curve"/>
      <point x="621" y="678"/>
      <point x="621" y="675"/>
      <point x="621" y="675" type="curve"/>
      <point x="622" y="670"/>
      <point x="624" y="648"/>
      <point x="625" y="644" type="curve"/>
      <point x="625" y="428" type="line"/>
      <point x="272" y="428" type="line"/>
      <point x="271" y="428"/>
      <point x="269" y="440"/>
      <point x="268" y="445" type="curve"/>
      <point x="268" y="446"/>
      <point x="268" y="454"/>
      <point x="268" y="458" type="curve"/>
      <point x="268" y="461"/>
      <point x="268" y="472"/>
      <point x="268" y="473" type="curve"/>
      <point x="269" y="479"/>
      <point x="272" y="528"/>
      <point x="272" y="534" type="curve"/>
      <point x="272" y="545"/>
      <point x="272" y="633"/>
      <point x="272" y="644" type="curve"/>
      <point x="273" y="671"/>
      <point x="286" y="708"/>
      <point x="313" y="719" type="curve"/>
      <point x="334" y="728"/>
      <point x="352" y="733"/>
      <point x="375" y="733" type="curve"/>
      <point x="376" y="734"/>
      <point x="381" y="738"/>
      <point x="381" y="740" type="curve"/>
      <point x="381" y="740"/>
      <point x="382" y="742"/>
      <point x="382" y="743" type="curve"/>
      <point x="382" y="743"/>
      <point x="381" y="746"/>
      <point x="381" y="747" type="curve"/>
      <point x="381" y="755"/>
      <point x="378" y="774"/>
      <point x="378" y="774" type="curve"/>
      <point x="375" y="777" type="line"/>
      <point x="373" y="778"/>
      <point x="342" y="778"/>
      <point x="331" y="778" type="curve"/>
      <point x="316" y="778"/>
      <point x="269" y="778"/>
      <point x="265" y="777" type="curve"/>
      <point x="261" y="777"/>
      <point x="245" y="775"/>
      <point x="241" y="774" type="curve"/>
      <point x="42" y="774" type="line"/>
      <point x="42" y="774"/>
      <point x="40" y="767"/>
      <point x="39" y="764" type="curve"/>
      <point x="39" y="763"/>
      <point x="39" y="759"/>
      <point x="39" y="757" type="curve"/>
      <point x="39" y="750"/>
      <point x="38" y="736"/>
      <point x="46" y="733" type="curve"/>
      <point x="54" y="732"/>
      <point x="93" y="725"/>
      <point x="101" y="723" type="curve"/>
      <point x="103" y="722"/>
      <point x="120" y="712"/>
      <point x="125" y="709" type="curve"/>
      <point x="127" y="708"/>
      <point x="134" y="701"/>
      <point x="135" y="699" type="curve"/>
      <point x="138" y="692"/>
      <point x="147" y="661"/>
      <point x="149" y="654" type="curve"/>
      <point x="149" y="651"/>
      <point x="148" y="626"/>
      <point x="149" y="623" type="curve"/>
      <point x="149" y="618"/>
      <point x="151" y="591"/>
      <point x="152" y="586" type="curve"/>
      <point x="152" y="140" type="line"/>
      <point x="152" y="139"/>
      <point x="150" y="127"/>
      <point x="149" y="123" type="curve"/>
      <point x="148" y="123"/>
      <point x="146" y="117"/>
      <point x="145" y="116" type="curve"/>
      <point x="144" y="114"/>
      <point x="140" y="98"/>
      <point x="138" y="96" type="curve"/>
      <point x="137" y="94"/>
      <point x="120" y="77"/>
      <point x="114" y="72" type="curve"/>
      <point x="110" y="68"/>
      <point x="97" y="66"/>
      <point x="94" y="65" type="curve"/>
      <point x="89" y="64"/>
      <point x="68" y="62"/>
      <point x="63" y="62" type="curve"/>
      <point x="62" y="61"/>
      <point x="60" y="59"/>
      <point x="60" y="58" type="curve"/>
      <point x="59" y="57"/>
      <point x="54" y="43"/>
      <point x="53" y="41" type="curve"/>
      <point x="52" y="40"/>
      <point x="43" y="32"/>
      <point x="42" y="31" type="curve"/>
      <point x="42" y="30"/>
      <point x="42" y="25"/>
    </contour>
    <contour>
      <point x="80" y="163" type="curve"/>
      <point x="78" y="163"/>
      <point x="78" y="159"/>
      <point x="80" y="159" type="curve"/>
      <point x="82" y="159"/>
      <point x="82" y="163"/>
    </contour>
    <contour>
      <point x="758" y="255" type="curve"/>
      <point x="756" y="255"/>
      <point x="756" y="252"/>
      <point x="758" y="252" type="curve"/>
      <point x="760" y="252"/>
      <point x="760" y="255"/>
    </contour>
    <contour>
      <point x="546" y="443" type="curve"/>
      <point x="544" y="443"/>
      <point x="544" y="440"/>
      <point x="546" y="440" type="curve"/>
      <point x="548" y="440"/>
      <point x="548" y="443"/>
    </contour>
    <contour>
      <point x="56" y="485" type="curve"/>
      <point x="54" y="485"/>
      <point x="54" y="481"/>
      <point x="56" y="481" type="curve"/>
      <point x="58" y="481"/>
      <point x="58" y="485"/>
    </contour>
    <contour>
      <point x="789" y="502" type="curve"/>
      <point x="787" y="502"/>
      <point x="787" y="498"/>
      <point x="789" y="498" type="curve"/>
      <point x="791" y="498"/>
      <point x="791" y="502"/>
    </contour>
    <contour>
      <point x="512" y="553" type="curve"/>
      <point x="510" y="553"/>
      <point x="510" y="550"/>
      <point x="512" y="550" type="curve"/>
      <point x="513" y="550"/>
      <point x="513" y="553"/>
    </contour>
    <contour>
      <point x="553" y="560" type="curve"/>
      <point x="551" y="560"/>
      <point x="551" y="557"/>
      <point x="553" y="557" type="curve"/>
      <point x="554" y="557"/>
      <point x="554" y="560"/>
    </contour>
    <contour>
      <point x="560" y="563" type="curve"/>
      <point x="558" y="563"/>
      <point x="558" y="560"/>
      <point x="560" y="560" type="curve"/>
      <point x="561" y="560"/>
      <point x="561" y="563"/>
    </contour>
    <contour>
      <point x="577" y="570" type="curve"/>
      <point x="575" y="570"/>
      <point x="575" y="567"/>
      <point x="577" y="567" type="curve"/>
      <point x="578" y="567"/>
      <point x="578" y="570"/>
    </contour>
    <contour>
      <point x="224" y="574" type="curve"/>
      <point x="226" y="574"/>
      <point x="226" y="570"/>
      <point x="224" y="570" type="curve"/>
      <point x="222" y="570"/>
      <point x="222" y="574"/>
    </contour>
    <contour>
      <point x="73" y="717" type="curve"/>
      <point x="72" y="717"/>
      <point x="72" y="714"/>
      <point x="73" y="714" type="curve"/>
      <point x="75" y="714"/>
      <point x="75" y="717"/>
    </contour>
  </outline>
</glyph>
<glyph name="M" format="1">
  <advance width="1019"/>
  <unicode hex="004D"/>
  <outline>
    <contour>
      <point x="423" y="127" type="line"/>
      <point x="423" y="126"/>
      <point x="423" y="124"/>
      <point x="423" y="123" type="curve"/>
      <point x="426" y="113"/>
      <point x="431" y="97"/>
      <point x="433" y="86" type="curve"/>
      <point x="434" y="81"/>
      <point x="439" y="45"/>
      <point x="440" y="41" type="curve"/>
      <point x="440" y="40"/>
      <point x="445" y="25"/>
      <point x="447" y="21" type="curve"/>
      <point x="448" y="19"/>
      <point x="450" y="14"/>
      <point x="450" y="14" type="curve"/>
      <point x="458" y="8"/>
      <point x="460" y="11"/>
      <point x="468" y="10" type="curve"/>
      <point x="469" y="10"/>
      <point x="483" y="7"/>
      <point x="485" y="7" type="curve"/>
      <point x="486" y="7"/>
      <point x="496" y="12"/>
      <point x="498" y="14" type="curve"/>
      <point x="499" y="14"/>
      <point x="501" y="19"/>
      <point x="502" y="21" type="curve"/>
      <point x="587" y="288" type="line"/>
      <point x="590" y="292"/>
      <point x="599" y="314"/>
      <point x="601" y="318" type="curve"/>
      <point x="602" y="322"/>
      <point x="610" y="349"/>
      <point x="611" y="353" type="curve"/>
      <point x="612" y="354"/>
      <point x="618" y="365"/>
      <point x="618" y="366" type="curve"/>
      <point x="625" y="384"/>
      <point x="653" y="465"/>
      <point x="659" y="483" type="curve"/>
      <point x="663" y="490" type="line"/>
      <point x="697" y="610" type="line"/>
      <point x="700" y="616" type="line"/>
      <point x="704" y="594"/>
      <point x="711" y="574"/>
      <point x="714" y="551" type="curve"/>
      <point x="714" y="550"/>
      <point x="714" y="546"/>
      <point x="714" y="545" type="curve"/>
      <point x="741" y="332" type="line"/>
      <point x="742" y="330"/>
      <point x="745" y="321"/>
      <point x="745" y="318" type="curve"/>
      <point x="753" y="263"/>
      <point x="762" y="201"/>
      <point x="762" y="144" type="curve"/>
      <point x="762" y="112"/>
      <point x="747" y="89"/>
      <point x="721" y="72" type="curve"/>
      <point x="720" y="71"/>
      <point x="715" y="69"/>
      <point x="714" y="68" type="curve"/>
      <point x="711" y="68"/>
      <point x="686" y="66"/>
      <point x="683" y="65" type="curve"/>
      <point x="665" y="62"/>
      <point x="665" y="47"/>
      <point x="663" y="31" type="curve"/>
      <point x="663" y="31"/>
      <point x="663" y="29"/>
      <point x="663" y="29" type="curve"/>
      <point x="663" y="18"/>
      <point x="670" y="10"/>
      <point x="681" y="10" type="curve"/>
      <point x="682" y="10"/>
      <point x="683" y="10"/>
      <point x="683" y="10" type="curve"/>
      <point x="695" y="11"/>
      <point x="791" y="14"/>
      <point x="803" y="14" type="curve"/>
      <point x="828" y="14"/>
      <point x="946" y="14"/>
      <point x="971" y="14" type="curve"/>
      <point x="978" y="17" type="line"/>
      <point x="978" y="17"/>
      <point x="980" y="36"/>
      <point x="981" y="45" type="curve"/>
      <point x="981" y="45"/>
      <point x="981" y="47"/>
      <point x="981" y="48" type="curve"/>
      <point x="981" y="57"/>
      <point x="977" y="69"/>
      <point x="966" y="69" type="curve"/>
      <point x="966" y="69"/>
      <point x="964" y="68"/>
      <point x="964" y="68" type="curve"/>
      <point x="963" y="68"/>
      <point x="952" y="65"/>
      <point x="950" y="65" type="curve"/>
      <point x="932" y="65"/>
      <point x="902" y="85"/>
      <point x="896" y="103" type="curve"/>
      <point x="892" y="113"/>
      <point x="883" y="144"/>
      <point x="882" y="147" type="curve"/>
      <point x="879" y="161"/>
      <point x="867" y="229"/>
      <point x="865" y="243" type="curve"/>
      <point x="866" y="259"/>
      <point x="861" y="273"/>
      <point x="858" y="288" type="curve"/>
      <point x="856" y="298"/>
      <point x="847" y="358"/>
      <point x="844" y="373" type="curve"/>
      <point x="835" y="433"/>
      <point x="828" y="495"/>
      <point x="820" y="555" type="curve"/>
      <point x="816" y="590"/>
      <point x="810" y="626"/>
      <point x="810" y="661" type="curve"/>
      <point x="810" y="686"/>
      <point x="815" y="702"/>
      <point x="831" y="723" type="curve"/>
      <point x="831" y="722"/>
      <point x="833" y="722"/>
      <point x="834" y="723" type="curve"/>
      <point x="834" y="723"/>
      <point x="837" y="729"/>
      <point x="837" y="729" type="curve"/>
      <point x="850" y="742"/>
      <point x="885" y="730"/>
      <point x="885" y="753" type="curve"/>
      <point x="885" y="783"/>
      <point x="875" y="781"/>
      <point x="849" y="781" type="curve"/>
      <point x="843" y="781"/>
      <point x="828" y="781"/>
      <point x="827" y="781" type="curve"/>
      <point x="824" y="781"/>
      <point x="799" y="777"/>
      <point x="796" y="777" type="curve"/>
      <point x="779" y="777"/>
      <point x="700" y="777"/>
      <point x="683" y="777" type="curve"/>
      <point x="680" y="774" type="line"/>
      <point x="679" y="762"/>
      <point x="675" y="704"/>
      <point x="673" y="692" type="curve"/>
      <point x="671" y="678"/>
      <point x="659" y="657"/>
      <point x="663" y="640" type="curve"/>
      <point x="611" y="476" type="line"/>
      <point x="603" y="463"/>
      <point x="603" y="445"/>
      <point x="594" y="432" type="curve"/>
      <point x="512" y="223" type="line"/>
      <point x="512" y="222"/>
      <point x="511" y="222"/>
      <point x="511" y="222" type="curve"/>
      <point x="500" y="222"/>
      <point x="499" y="253"/>
      <point x="491" y="264" type="curve"/>
      <point x="437" y="418" type="line"/>
      <point x="437" y="425" type="line"/>
      <point x="437" y="425"/>
      <point x="415" y="485"/>
      <point x="406" y="510" type="curve"/>
      <point x="405" y="513"/>
      <point x="401" y="517"/>
      <point x="402" y="521" type="curve"/>
      <point x="351" y="675" type="line"/>
      <point x="348" y="682" type="line"/>
      <point x="327" y="767" type="line"/>
      <point x="327" y="770"/>
      <point x="317" y="777"/>
      <point x="313" y="777" type="curve"/>
      <point x="135" y="777" type="line"/>
      <point x="127" y="777"/>
      <point x="128" y="756"/>
      <point x="128" y="752" type="curve"/>
      <point x="128" y="751"/>
      <point x="128" y="750"/>
      <point x="128" y="750" type="curve"/>
      <point x="129" y="746"/>
      <point x="132" y="737"/>
      <point x="132" y="736" type="curve"/>
      <point x="132" y="736"/>
      <point x="140" y="733"/>
      <point x="142" y="733" type="curve"/>
      <point x="145" y="732"/>
      <point x="167" y="731"/>
      <point x="170" y="729" type="curve"/>
      <point x="173" y="728"/>
      <point x="190" y="711"/>
      <point x="194" y="705" type="curve"/>
      <point x="197" y="701"/>
      <point x="206" y="679"/>
      <point x="207" y="675" type="curve"/>
      <point x="207" y="674"/>
      <point x="208" y="660"/>
      <point x="208" y="654" type="curve"/>
      <point x="208" y="649"/>
      <point x="207" y="632"/>
      <point x="207" y="630" type="curve"/>
      <point x="205" y="609"/>
      <point x="193" y="508"/>
      <point x="190" y="486" type="curve"/>
      <point x="181" y="464"/>
      <point x="184" y="438"/>
      <point x="180" y="414" type="curve"/>
      <point x="177" y="395"/>
      <point x="160" y="304"/>
      <point x="156" y="284" type="curve"/>
      <point x="157" y="276"/>
      <point x="153" y="268"/>
      <point x="152" y="260" type="curve"/>
      <point x="151" y="251"/>
      <point x="147" y="208"/>
      <point x="146" y="199" type="curve"/>
      <point x="140" y="192"/>
      <point x="140" y="178"/>
      <point x="139" y="171" type="curve"/>
      <point x="136" y="162"/>
      <point x="124" y="119"/>
      <point x="122" y="110" type="curve"/>
      <point x="117" y="106"/>
      <point x="110" y="95"/>
      <point x="108" y="92" type="curve"/>
      <point x="88" y="70"/>
      <point x="68" y="60"/>
      <point x="39" y="51" type="curve"/>
      <point x="36" y="42"/>
      <point x="36" y="38"/>
      <point x="36" y="29" type="curve"/>
      <point x="36" y="26"/>
      <point x="36" y="10"/>
      <point x="43" y="10" type="curve"/>
      <point x="279" y="10" type="line"/>
      <point x="283" y="10"/>
      <point x="286" y="35"/>
      <point x="286" y="38" type="curve"/>
      <point x="286" y="71"/>
      <point x="246" y="54"/>
      <point x="231" y="65" type="curve"/>
      <point x="229" y="67"/>
      <point x="217" y="79"/>
      <point x="214" y="82" type="curve"/>
      <point x="205" y="94"/>
      <point x="197" y="112"/>
      <point x="197" y="127" type="curve"/>
      <point x="197" y="216" type="line"/>
      <point x="228" y="435" type="line"/>
      <point x="228" y="452" type="line"/>
      <point x="245" y="562" type="line"/>
      <point x="244" y="575"/>
      <point x="246" y="594"/>
      <point x="248" y="606" type="curve"/>
      <point x="249" y="609"/>
      <point x="250" y="614"/>
      <point x="254" y="614" type="curve"/>
      <point x="254" y="614"/>
      <point x="255" y="613"/>
      <point x="255" y="613" type="curve"/>
      <point x="262" y="599" type="line"/>
      <point x="365" y="301" type="line"/>
      <point x="368" y="295" type="line"/>
    </contour>
  </outline>
</glyph>
<glyph name="N" format="1">
  <advance width="908"/>
  <unicode hex="004E"/>
  <outline>
    <contour>
      <point x="710" y="31" type="line"/>
      <point x="714" y="21"/>
      <point x="722" y="7"/>
      <point x="734" y="7" type="curve"/>
      <point x="775" y="7" type="line"/>
      <point x="777" y="7"/>
      <point x="782" y="12"/>
      <point x="782" y="14" type="curve"/>
      <point x="782" y="14"/>
      <point x="782" y="20"/>
      <point x="782" y="22" type="curve"/>
      <point x="782" y="24"/>
      <point x="782" y="30"/>
      <point x="782" y="31" type="curve"/>
      <point x="781" y="39"/>
      <point x="770" y="102"/>
      <point x="768" y="110" type="curve"/>
      <point x="768" y="111"/>
      <point x="769" y="125"/>
      <point x="768" y="127" type="curve"/>
      <point x="768" y="129"/>
      <point x="765" y="145"/>
      <point x="765" y="147" type="curve"/>
      <point x="765" y="148"/>
      <point x="765" y="157"/>
      <point x="765" y="158" type="curve"/>
      <point x="765" y="166"/>
      <point x="762" y="238"/>
      <point x="762" y="247" type="curve"/>
      <point x="761" y="265"/>
      <point x="762" y="416"/>
      <point x="762" y="435" type="curve"/>
      <point x="761" y="442"/>
      <point x="758" y="497"/>
      <point x="758" y="503" type="curve"/>
      <point x="758" y="505"/>
      <point x="758" y="526"/>
      <point x="758" y="534" type="curve"/>
      <point x="758" y="541"/>
      <point x="758" y="561"/>
      <point x="758" y="562" type="curve"/>
      <point x="758" y="565"/>
      <point x="761" y="592"/>
      <point x="762" y="596" type="curve"/>
      <point x="762" y="601"/>
      <point x="761" y="639"/>
      <point x="762" y="644" type="curve"/>
      <point x="762" y="645"/>
      <point x="764" y="657"/>
      <point x="765" y="661" type="curve"/>
      <point x="766" y="666"/>
      <point x="774" y="690"/>
      <point x="775" y="695" type="curve"/>
      <point x="776" y="696"/>
      <point x="778" y="698"/>
      <point x="779" y="699" type="curve"/>
      <point x="780" y="701"/>
      <point x="794" y="717"/>
      <point x="796" y="719" type="curve"/>
      <point x="800" y="723"/>
      <point x="819" y="735"/>
      <point x="823" y="736" type="curve"/>
      <point x="835" y="741"/>
      <point x="860" y="735"/>
      <point x="868" y="750" type="curve"/>
      <point x="868" y="752"/>
      <point x="868" y="762"/>
      <point x="868" y="764" type="curve"/>
      <point x="868" y="772"/>
      <point x="870" y="786"/>
      <point x="857" y="788" type="curve"/>
      <point x="832" y="787"/>
      <point x="712" y="787"/>
      <point x="686" y="788" type="curve"/>
      <point x="679" y="788"/>
      <point x="625" y="791"/>
      <point x="618" y="791" type="curve"/>
      <point x="617" y="791"/>
      <point x="610" y="791"/>
      <point x="608" y="791" type="curve"/>
      <point x="591" y="791"/>
      <point x="580" y="787"/>
      <point x="580" y="767" type="curve"/>
      <point x="580" y="757"/>
      <point x="584" y="750"/>
      <point x="594" y="747" type="curve"/>
      <point x="599" y="745"/>
      <point x="637" y="734"/>
      <point x="642" y="733" type="curve"/>
      <point x="663" y="726"/>
      <point x="686" y="698"/>
      <point x="693" y="678" type="curve"/>
      <point x="699" y="660"/>
      <point x="698" y="644"/>
      <point x="703" y="627" type="curve"/>
      <point x="708" y="525"/>
      <point x="708" y="423"/>
      <point x="710" y="322" type="curve"/>
      <point x="710" y="317"/>
      <point x="714" y="279"/>
      <point x="714" y="274" type="curve"/>
      <point x="714" y="265"/>
      <point x="711" y="224"/>
      <point x="710" y="216" type="curve"/>
      <point x="703" y="216" type="line"/>
      <point x="702" y="216"/>
      <point x="681" y="240"/>
      <point x="673" y="250" type="curve"/>
      <point x="670" y="253"/>
      <point x="651" y="281"/>
      <point x="649" y="284" type="curve"/>
      <point x="640" y="295"/>
      <point x="597" y="343"/>
      <point x="587" y="353" type="curve"/>
      <point x="570" y="386"/>
      <point x="541" y="416"/>
      <point x="515" y="442" type="curve"/>
      <point x="515" y="443"/>
      <point x="512" y="448"/>
      <point x="512" y="449" type="curve"/>
      <point x="510" y="451"/>
      <point x="496" y="464"/>
      <point x="494" y="466" type="curve"/>
      <point x="492" y="469"/>
      <point x="482" y="483"/>
      <point x="481" y="486" type="curve"/>
      <point x="375" y="606" type="line"/>
      <point x="357" y="630" type="line"/>
      <point x="221" y="784" type="line"/>
      <point x="70" y="784" type="line"/>
      <point x="66" y="784"/>
      <point x="52" y="782"/>
      <point x="49" y="781" type="curve"/>
      <point x="40" y="777"/>
      <point x="39" y="763"/>
      <point x="39" y="755" type="curve"/>
      <point x="39" y="736"/>
      <point x="56" y="742"/>
      <point x="70" y="736" type="curve"/>
      <point x="101" y="724"/>
      <point x="125" y="701"/>
      <point x="152" y="682" type="curve"/>
      <point x="152" y="678" type="line"/>
      <point x="156" y="676"/>
      <point x="170" y="664"/>
      <point x="173" y="661" type="curve"/>
      <point x="178" y="654"/>
      <point x="176" y="636"/>
      <point x="176" y="630" type="curve"/>
      <point x="176" y="624"/>
      <point x="179" y="578"/>
      <point x="179" y="572" type="curve"/>
      <point x="180" y="535"/>
      <point x="180" y="365"/>
      <point x="179" y="329" type="curve"/>
      <point x="180" y="324"/>
      <point x="182" y="300"/>
      <point x="183" y="295" type="curve"/>
      <point x="183" y="294"/>
      <point x="183" y="293"/>
      <point x="183" y="293" type="curve"/>
      <point x="183" y="292"/>
      <point x="183" y="291"/>
      <point x="183" y="291" type="curve"/>
      <point x="182" y="287"/>
      <point x="180" y="257"/>
      <point x="179" y="253" type="curve"/>
      <point x="179" y="247"/>
      <point x="180" y="192"/>
      <point x="179" y="185" type="curve"/>
      <point x="179" y="178"/>
      <point x="172" y="139"/>
      <point x="169" y="130" type="curve"/>
      <point x="163" y="109"/>
      <point x="144" y="89"/>
      <point x="128" y="75" type="curve"/>
      <point x="127" y="75"/>
      <point x="123" y="72"/>
      <point x="121" y="72" type="curve"/>
      <point x="115" y="70"/>
      <point x="94" y="66"/>
      <point x="90" y="65" type="curve"/>
      <point x="88" y="65"/>
      <point x="72" y="65"/>
      <point x="70" y="65" type="curve"/>
      <point x="53" y="63"/>
      <point x="52" y="42"/>
      <point x="52" y="30" type="curve"/>
      <point x="52" y="28"/>
      <point x="53" y="21"/>
      <point x="53" y="21" type="curve"/>
      <point x="60" y="17" type="line"/>
      <point x="347" y="17" type="line"/>
      <point x="359" y="17"/>
      <point x="358" y="35"/>
      <point x="358" y="41" type="curve"/>
      <point x="358" y="52"/>
      <point x="357" y="66"/>
      <point x="344" y="68" type="curve"/>
      <point x="341" y="69"/>
      <point x="316" y="71"/>
      <point x="313" y="72" type="curve"/>
      <point x="308" y="73"/>
      <point x="282" y="85"/>
      <point x="275" y="89" type="curve"/>
      <point x="257" y="99"/>
      <point x="242" y="162"/>
      <point x="241" y="178" type="curve"/>
      <point x="241" y="185"/>
      <point x="238" y="237"/>
      <point x="238" y="243" type="curve"/>
      <point x="237" y="254"/>
      <point x="238" y="342"/>
      <point x="238" y="353" type="curve"/>
      <point x="237" y="358"/>
      <point x="234" y="396"/>
      <point x="234" y="401" type="curve"/>
      <point x="234" y="409"/>
      <point x="234" y="475"/>
      <point x="234" y="483" type="curve"/>
      <point x="234" y="489"/>
      <point x="231" y="541"/>
      <point x="231" y="548" type="curve"/>
      <point x="231" y="549"/>
      <point x="231" y="562"/>
      <point x="231" y="567" type="curve"/>
      <point x="231" y="571"/>
      <point x="231" y="582"/>
      <point x="231" y="582" type="curve"/>
      <point x="231" y="585"/>
      <point x="232" y="589"/>
      <point x="236" y="589" type="curve"/>
      <point x="236" y="589"/>
      <point x="237" y="589"/>
      <point x="238" y="589" type="curve"/>
      <point x="258" y="568" type="line"/>
      <point x="364" y="438" type="line"/>
      <point x="379" y="426"/>
      <point x="390" y="409"/>
      <point x="402" y="394" type="curve"/>
      <point x="426" y="364"/>
      <point x="452" y="334"/>
      <point x="477" y="305" type="curve"/>
      <point x="479" y="303"/>
      <point x="496" y="286"/>
      <point x="498" y="284" type="curve"/>
      <point x="501" y="281"/>
      <point x="522" y="250"/>
      <point x="525" y="247" type="curve"/>
      <point x="527" y="245"/>
      <point x="541" y="231"/>
      <point x="542" y="229" type="curve"/>
      <point x="544" y="228"/>
      <point x="548" y="221"/>
      <point x="549" y="219" type="curve"/>
    </contour>
  </outline>
</glyph>
<glyph name="O" format="1">
  <advance width="807"/>
  <unicode hex="004F"/>
  <outline>
    <contour>
      <point x="36" y="360" type="curve"/>
      <point x="44" y="346"/>
      <point x="39" y="316"/>
      <point x="43" y="301" type="curve"/>
      <point x="46" y="287"/>
      <point x="61" y="239"/>
      <point x="63" y="233" type="curve"/>
      <point x="66" y="228"/>
      <point x="97" y="170"/>
      <point x="108" y="151" type="curve"/>
      <point x="109" y="149"/>
      <point x="116" y="140"/>
      <point x="118" y="137" type="curve"/>
      <point x="119" y="136"/>
      <point x="125" y="131"/>
      <point x="125" y="130" type="curve"/>
      <point x="140" y="110"/>
      <point x="160" y="92"/>
      <point x="180" y="75" type="curve"/>
      <point x="243" y="22"/>
      <point x="321" y="0"/>
      <point x="402" y="0" type="curve"/>
      <point x="404" y="0"/>
      <point x="421" y="3"/>
      <point x="423" y="3" type="curve"/>
      <point x="477" y="10"/>
      <point x="529" y="21"/>
      <point x="577" y="48" type="curve"/>
      <point x="580" y="50"/>
      <point x="602" y="67"/>
      <point x="604" y="68" type="curve"/>
      <point x="605" y="69"/>
      <point x="611" y="72"/>
      <point x="611" y="72" type="curve"/>
      <point x="617" y="75"/>
      <point x="631" y="85"/>
      <point x="632" y="86" type="curve"/>
      <point x="639" y="92"/>
      <point x="673" y="126"/>
      <point x="680" y="134" type="curve"/>
      <point x="682" y="136"/>
      <point x="695" y="155"/>
      <point x="697" y="158" type="curve"/>
      <point x="697" y="158"/>
      <point x="700" y="160"/>
      <point x="700" y="161" type="curve"/>
      <point x="707" y="172"/>
      <point x="736" y="228"/>
      <point x="741" y="240" type="curve"/>
      <point x="742" y="241"/>
      <point x="749" y="265"/>
      <point x="752" y="274" type="curve"/>
      <point x="752" y="274"/>
      <point x="752" y="277"/>
      <point x="752" y="277" type="curve"/>
      <point x="760" y="314"/>
      <point x="769" y="348"/>
      <point x="769" y="386" type="curve"/>
      <point x="769" y="451"/>
      <point x="758" y="508"/>
      <point x="735" y="568" type="curve"/>
      <point x="733" y="573"/>
      <point x="713" y="612"/>
      <point x="711" y="616" type="curve"/>
      <point x="710" y="617"/>
      <point x="708" y="626"/>
      <point x="707" y="627" type="curve"/>
      <point x="705" y="630"/>
      <point x="685" y="654"/>
      <point x="683" y="658" type="curve"/>
      <point x="659" y="691"/>
      <point x="631" y="721"/>
      <point x="594" y="743" type="curve"/>
      <point x="584" y="749"/>
      <point x="536" y="773"/>
      <point x="526" y="777" type="curve"/>
      <point x="518" y="775"/>
      <point x="507" y="783"/>
      <point x="502" y="784" type="curve"/>
      <point x="497" y="786"/>
      <point x="480" y="791"/>
      <point x="478" y="791" type="curve"/>
      <point x="453" y="796"/>
      <point x="430" y="795"/>
      <point x="404" y="795" type="curve"/>
      <point x="398" y="795"/>
      <point x="371" y="795"/>
      <point x="365" y="795" type="curve"/>
      <point x="362" y="793"/>
      <point x="347" y="789"/>
      <point x="344" y="788" type="curve"/>
      <point x="342" y="787"/>
      <point x="326" y="785"/>
      <point x="324" y="784" type="curve"/>
      <point x="316" y="782"/>
      <point x="280" y="770"/>
      <point x="272" y="767" type="curve"/>
      <point x="234" y="752"/>
      <point x="203" y="729"/>
      <point x="173" y="702" type="curve"/>
      <point x="171" y="700"/>
      <point x="154" y="687"/>
      <point x="152" y="685" type="curve"/>
      <point x="148" y="680"/>
      <point x="119" y="639"/>
      <point x="115" y="634" type="curve"/>
      <point x="107" y="624"/>
      <point x="101" y="610"/>
      <point x="91" y="603" type="curve"/>
      <point x="87" y="595"/>
      <point x="70" y="557"/>
      <point x="67" y="548" type="curve"/>
      <point x="62" y="533"/>
      <point x="43" y="464"/>
      <point x="39" y="449" type="curve"/>
      <point x="41" y="428"/>
      <point x="36" y="406"/>
      <point x="36" y="385" type="curve"/>
      <point x="36" y="381"/>
      <point x="36" y="363"/>
    </contour>
    <contour>
      <point x="180" y="267" type="curve"/>
      <point x="177" y="279"/>
      <point x="165" y="334"/>
      <point x="163" y="346" type="curve"/>
      <point x="163" y="347"/>
      <point x="160" y="385"/>
      <point x="159" y="401" type="curve"/>
      <point x="159" y="401"/>
      <point x="159" y="403"/>
      <point x="159" y="404" type="curve"/>
      <point x="159" y="435"/>
      <point x="164" y="466"/>
      <point x="163" y="497" type="curve"/>
      <point x="187" y="592" type="line"/>
      <point x="208" y="632"/>
      <point x="224" y="680"/>
      <point x="262" y="709" type="curve"/>
      <point x="265" y="711"/>
      <point x="290" y="724"/>
      <point x="293" y="726" type="curve"/>
      <point x="293" y="726"/>
      <point x="296" y="729"/>
      <point x="296" y="729" type="curve"/>
      <point x="322" y="746"/>
      <point x="352" y="754"/>
      <point x="383" y="754" type="curve"/>
      <point x="386" y="754"/>
      <point x="395" y="754"/>
      <point x="396" y="753" type="curve"/>
      <point x="406" y="752"/>
      <point x="444" y="745"/>
      <point x="450" y="743" type="curve"/>
      <point x="452" y="743"/>
      <point x="471" y="733"/>
      <point x="478" y="729" type="curve"/>
      <point x="505" y="715"/>
      <point x="533" y="695"/>
      <point x="553" y="671" type="curve"/>
      <point x="554" y="670"/>
      <point x="562" y="656"/>
      <point x="563" y="654" type="curve"/>
      <point x="580" y="630"/>
      <point x="602" y="607"/>
      <point x="611" y="579" type="curve"/>
      <point x="615" y="568"/>
      <point x="629" y="515"/>
      <point x="632" y="503" type="curve"/>
      <point x="630" y="495"/>
      <point x="634" y="495"/>
      <point x="635" y="486" type="curve"/>
      <point x="643" y="445"/>
      <point x="646" y="403"/>
      <point x="646" y="361" type="curve"/>
      <point x="646" y="351"/>
      <point x="646" y="327"/>
      <point x="646" y="325" type="curve"/>
      <point x="646" y="324"/>
      <point x="642" y="310"/>
      <point x="642" y="308" type="curve"/>
      <point x="642" y="307"/>
      <point x="642" y="293"/>
      <point x="642" y="291" type="curve"/>
      <point x="642" y="290"/>
      <point x="639" y="285"/>
      <point x="639" y="284" type="curve"/>
      <point x="638" y="281"/>
      <point x="633" y="257"/>
      <point x="632" y="253" type="curve"/>
      <point x="631" y="252"/>
      <point x="626" y="238"/>
      <point x="625" y="236" type="curve"/>
      <point x="625" y="235"/>
      <point x="625" y="227"/>
      <point x="625" y="226" type="curve"/>
      <point x="615" y="182"/>
      <point x="599" y="157"/>
      <point x="574" y="120" type="curve"/>
      <point x="563" y="104"/>
      <point x="548" y="98"/>
      <point x="533" y="89" type="curve"/>
      <point x="532" y="89"/>
      <point x="529" y="86"/>
      <point x="529" y="86" type="curve"/>
      <point x="505" y="66"/>
      <point x="475" y="52"/>
      <point x="444" y="48" type="curve"/>
      <point x="431" y="46"/>
      <point x="385" y="44"/>
      <point x="378" y="45" type="curve"/>
      <point x="375" y="45"/>
      <point x="344" y="54"/>
      <point x="334" y="58" type="curve"/>
      <point x="321" y="63"/>
      <point x="308" y="74"/>
      <point x="296" y="82" type="curve"/>
      <point x="250" y="113"/>
      <point x="222" y="163"/>
      <point x="197" y="212" type="curve"/>
      <point x="196" y="213"/>
      <point x="191" y="222"/>
      <point x="190" y="223" type="curve"/>
      <point x="190" y="223"/>
      <point x="190" y="226"/>
      <point x="190" y="226" type="curve"/>
      <point x="189" y="230"/>
      <point x="181" y="260"/>
      <point x="180" y="264" type="curve"/>
      <point x="180" y="264"/>
      <point x="180" y="267"/>
    </contour>
    <contour>
      <point x="180" y="310" type="curve"/>
      <point x="178" y="310"/>
      <point x="178" y="307"/>
      <point x="180" y="307" type="curve"/>
      <point x="182" y="307"/>
      <point x="182" y="310"/>
    </contour>
    <contour>
      <point x="50" y="592" type="curve"/>
      <point x="50" y="595"/>
      <point x="46" y="595"/>
      <point x="46" y="592" type="curve"/>
      <point x="47" y="590"/>
      <point x="49" y="590"/>
    </contour>
  </outline>
</glyph>
<glyph name="P" format="1">
  <advance width="692"/>
  <unicode hex="0050"/>
  <outline>
    <contour>
      <point x="38" y="29" type="curve"/>
      <point x="38" y="15"/>
      <point x="44" y="7"/>
      <point x="60" y="7" type="curve"/>
      <point x="93" y="7"/>
      <point x="126" y="10"/>
      <point x="159" y="10" type="curve"/>
      <point x="214" y="10"/>
      <point x="269" y="7"/>
      <point x="324" y="7" type="curve"/>
      <point x="332" y="7"/>
      <point x="369" y="7"/>
      <point x="377" y="7" type="curve"/>
      <point x="386" y="12"/>
      <point x="387" y="22"/>
      <point x="387" y="31" type="curve"/>
      <point x="387" y="37"/>
      <point x="387" y="48"/>
      <point x="380" y="51" type="curve"/>
      <point x="318" y="58"/>
      <point x="273" y="66"/>
      <point x="267" y="137" type="curve"/>
      <point x="267" y="139"/>
      <point x="268" y="155"/>
      <point x="267" y="158" type="curve"/>
      <point x="267" y="162"/>
      <point x="265" y="181"/>
      <point x="264" y="185" type="curve"/>
      <point x="264" y="210"/>
      <point x="264" y="328"/>
      <point x="264" y="353" type="curve"/>
      <point x="264" y="358"/>
      <point x="261" y="399"/>
      <point x="261" y="404" type="curve"/>
      <point x="261" y="411"/>
      <point x="264" y="463"/>
      <point x="264" y="469" type="curve"/>
      <point x="264" y="469"/>
      <point x="264" y="470"/>
      <point x="264" y="471" type="curve"/>
      <point x="264" y="524"/>
      <point x="260" y="578"/>
      <point x="260" y="632" type="curve"/>
      <point x="260" y="645"/>
      <point x="261" y="703"/>
      <point x="261" y="716" type="curve"/>
      <point x="263" y="721"/>
      <point x="267" y="728"/>
      <point x="274" y="729" type="curve"/>
      <point x="280" y="730"/>
      <point x="308" y="730"/>
      <point x="314" y="730" type="curve"/>
      <point x="337" y="730"/>
      <point x="355" y="731"/>
      <point x="377" y="726" type="curve"/>
      <point x="407" y="719"/>
      <point x="435" y="714"/>
      <point x="459" y="695" type="curve"/>
      <point x="462" y="693"/>
      <point x="483" y="672"/>
      <point x="490" y="664" type="curve"/>
      <point x="492" y="662"/>
      <point x="500" y="652"/>
      <point x="500" y="651" type="curve"/>
      <point x="503" y="646"/>
      <point x="515" y="615"/>
      <point x="517" y="606" type="curve"/>
      <point x="522" y="593"/>
      <point x="521" y="583"/>
      <point x="521" y="569" type="curve"/>
      <point x="521" y="557"/>
      <point x="522" y="539"/>
      <point x="517" y="527" type="curve"/>
      <point x="514" y="517"/>
      <point x="495" y="472"/>
      <point x="490" y="462" type="curve"/>
      <point x="470" y="437"/>
      <point x="440" y="417"/>
      <point x="408" y="411" type="curve"/>
      <point x="401" y="410"/>
      <point x="346" y="405"/>
      <point x="339" y="404" type="curve"/>
      <point x="328" y="403"/>
      <point x="315" y="395"/>
      <point x="315" y="382" type="curve"/>
      <point x="315" y="369"/>
      <point x="322" y="358"/>
      <point x="336" y="356" type="curve"/>
      <point x="342" y="356"/>
      <point x="372" y="356"/>
      <point x="379" y="356" type="curve"/>
      <point x="433" y="356"/>
      <point x="486" y="360"/>
      <point x="535" y="387" type="curve"/>
      <point x="541" y="390"/>
      <point x="560" y="402"/>
      <point x="562" y="404" type="curve"/>
      <point x="568" y="409"/>
      <point x="606" y="445"/>
      <point x="617" y="455" type="curve"/>
      <point x="642" y="481"/>
      <point x="651" y="532"/>
      <point x="651" y="566" type="curve"/>
      <point x="651" y="625"/>
      <point x="627" y="677"/>
      <point x="583" y="716" type="curve"/>
      <point x="575" y="722"/>
      <point x="542" y="746"/>
      <point x="535" y="750" type="curve"/>
      <point x="533" y="751"/>
      <point x="509" y="758"/>
      <point x="500" y="760" type="curve"/>
      <point x="477" y="766"/>
      <point x="452" y="769"/>
      <point x="428" y="771" type="curve"/>
      <point x="425" y="771"/>
      <point x="346" y="773"/>
      <point x="315" y="774" type="curve"/>
      <point x="315" y="774"/>
      <point x="311" y="774"/>
      <point x="310" y="774" type="curve"/>
      <point x="309" y="774"/>
      <point x="305" y="774"/>
      <point x="305" y="774" type="curve"/>
      <point x="300" y="774"/>
      <point x="262" y="771"/>
      <point x="257" y="771" type="curve"/>
      <point x="252" y="770"/>
      <point x="214" y="771"/>
      <point x="209" y="771" type="curve"/>
      <point x="207" y="770"/>
      <point x="188" y="767"/>
      <point x="185" y="767" type="curve"/>
      <point x="180" y="767"/>
      <point x="139" y="770"/>
      <point x="134" y="771" type="curve"/>
      <point x="132" y="771"/>
      <point x="105" y="771"/>
      <point x="95" y="771" type="curve"/>
      <point x="89" y="771"/>
      <point x="61" y="771"/>
      <point x="55" y="771" type="curve"/>
      <point x="54" y="770"/>
      <point x="46" y="768"/>
      <point x="45" y="767" type="curve"/>
      <point x="44" y="767"/>
      <point x="41" y="764"/>
      <point x="41" y="764" type="curve"/>
      <point x="41" y="733" type="line"/>
      <point x="41" y="732"/>
      <point x="49" y="727"/>
      <point x="52" y="726" type="curve"/>
      <point x="55" y="725"/>
      <point x="83" y="723"/>
      <point x="86" y="723" type="curve"/>
      <point x="143" y="709"/>
      <point x="147" y="655"/>
      <point x="148" y="606" type="curve"/>
      <point x="148" y="603"/>
      <point x="148" y="551"/>
      <point x="148" y="532" type="curve"/>
      <point x="148" y="513"/>
      <point x="148" y="461"/>
      <point x="148" y="459" type="curve"/>
      <point x="148" y="455"/>
      <point x="144" y="425"/>
      <point x="144" y="421" type="curve"/>
      <point x="144" y="421"/>
      <point x="144" y="409"/>
      <point x="144" y="404" type="curve"/>
      <point x="144" y="358"/>
      <point x="148" y="313"/>
      <point x="148" y="266" type="curve"/>
      <point x="148" y="209"/>
      <point x="151" y="149"/>
      <point x="137" y="92" type="curve"/>
      <point x="133" y="73"/>
      <point x="108" y="66"/>
      <point x="93" y="62" type="curve"/>
      <point x="86" y="60"/>
      <point x="52" y="53"/>
      <point x="45" y="51" type="curve"/>
      <point x="37" y="48"/>
      <point x="38" y="36"/>
    </contour>
    <contour>
      <point x="55" y="721" type="curve"/>
      <point x="53" y="721"/>
      <point x="53" y="717"/>
      <point x="55" y="717" type="curve"/>
      <point x="57" y="717"/>
      <point x="57" y="721"/>
    </contour>
  </outline>
</glyph>
<glyph name="a" format="1">
  <advance width="503"/>
  <unicode hex="0061"/>
  <outline>
    <contour>
      <point x="41" y="311" type="curve"/>
      <point x="41" y="282"/>
      <point x="51" y="254"/>
      <point x="72" y="233" type="curve"/>
      <point x="90" y="215"/>
      <point x="113" y="193"/>
      <point x="140" y="192" type="curve"/>
      <point x="141" y="192"/>
      <point x="158" y="191"/>
      <point x="164" y="191" type="curve"/>
      <point x="178" y="191"/>
      <point x="189" y="190"/>
      <point x="202" y="195" type="curve"/>
      <point x="210" y="198"/>
      <point x="236" y="210"/>
      <point x="240" y="212" type="curve"/>
      <point x="263" y="226"/>
      <point x="277" y="241"/>
      <point x="298" y="253" type="curve"/>
      <point x="299" y="253"/>
      <point x="301" y="251"/>
      <point x="301" y="250" type="curve"/>
      <point x="303" y="247"/>
      <point x="320" y="219"/>
      <point x="322" y="216" type="curve"/>
      <point x="333" y="199"/>
      <point x="354" y="191"/>
      <point x="373" y="191" type="curve"/>
      <point x="401" y="191"/>
      <point x="443" y="204"/>
      <point x="455" y="233" type="curve"/>
      <point x="460" y="243"/>
      <point x="459" y="252"/>
      <point x="459" y="264" type="curve"/>
      <point x="459" y="266"/>
      <point x="459" y="278"/>
      <point x="459" y="281" type="curve"/>
      <point x="457" y="284"/>
      <point x="456" y="284"/>
      <point x="454" y="284" type="curve"/>
      <point x="442" y="284"/>
      <point x="435" y="273"/>
      <point x="421" y="273" type="curve"/>
      <point x="399" y="273"/>
      <point x="394" y="300"/>
      <point x="394" y="318" type="curve"/>
      <point x="394" y="348"/>
      <point x="394" y="484"/>
      <point x="394" y="514" type="curve"/>
      <point x="394" y="529"/>
      <point x="391" y="601"/>
      <point x="390" y="616" type="curve"/>
      <point x="374" y="692"/>
      <point x="305" y="713"/>
      <point x="234" y="713" type="curve"/>
      <point x="184" y="713"/>
      <point x="120" y="681"/>
      <point x="82" y="651" type="curve"/>
      <point x="73" y="626"/>
      <point x="54" y="622"/>
      <point x="54" y="587" type="curve"/>
      <point x="54" y="570"/>
      <point x="54" y="562"/>
      <point x="62" y="545" type="curve"/>
      <point x="66" y="534"/>
      <point x="77" y="510"/>
      <point x="92" y="510" type="curve"/>
      <point x="94" y="510"/>
      <point x="99" y="510"/>
      <point x="99" y="510" type="curve"/>
      <point x="103" y="512"/>
      <point x="133" y="526"/>
      <point x="137" y="527" type="curve"/>
      <point x="138" y="528"/>
      <point x="146" y="530"/>
      <point x="147" y="531" type="curve"/>
      <point x="151" y="533"/>
      <point x="160" y="543"/>
      <point x="161" y="545" type="curve"/>
      <point x="161" y="545"/>
      <point x="162" y="552"/>
      <point x="162" y="554" type="curve"/>
      <point x="162" y="575"/>
      <point x="140" y="588"/>
      <point x="140" y="608" type="curve"/>
      <point x="140" y="614"/>
      <point x="140" y="616"/>
      <point x="144" y="623" type="curve"/>
      <point x="159" y="659"/>
      <point x="182" y="661"/>
      <point x="219" y="661" type="curve"/>
      <point x="256" y="661"/>
      <point x="290" y="634"/>
      <point x="294" y="596" type="curve"/>
      <point x="295" y="592"/>
      <point x="297" y="549"/>
      <point x="298" y="534" type="curve"/>
      <point x="298" y="533"/>
      <point x="298" y="521"/>
      <point x="298" y="518" type="curve"/>
      <point x="298" y="515"/>
      <point x="298" y="507"/>
      <point x="298" y="507" type="curve"/>
      <point x="291" y="500" type="line"/>
      <point x="120" y="428" type="line"/>
      <point x="102" y="413"/>
      <point x="82" y="407"/>
      <point x="68" y="387" type="curve"/>
      <point x="65" y="383"/>
      <point x="49" y="352"/>
      <point x="44" y="342" type="curve"/>
      <point x="40" y="333"/>
      <point x="41" y="321"/>
    </contour>
    <contour>
      <point x="137" y="329" type="curve"/>
      <point x="137" y="355"/>
      <point x="147" y="380"/>
      <point x="171" y="394" type="curve"/>
      <point x="183" y="401"/>
      <point x="245" y="434"/>
      <point x="260" y="442" type="curve"/>
      <point x="268" y="446"/>
      <point x="284" y="452"/>
      <point x="293" y="452" type="curve"/>
      <point x="296" y="452"/>
      <point x="297" y="451"/>
      <point x="298" y="445" type="curve"/>
      <point x="298" y="428"/>
      <point x="301" y="346"/>
      <point x="301" y="329" type="curve"/>
      <point x="301" y="329"/>
      <point x="301" y="327"/>
      <point x="301" y="327" type="curve"/>
      <point x="301" y="326"/>
      <point x="301" y="325"/>
      <point x="301" y="325" type="curve"/>
      <point x="301" y="324"/>
      <point x="299" y="317"/>
      <point x="298" y="315" type="curve"/>
      <point x="271" y="285"/>
      <point x="245" y="264"/>
      <point x="203" y="264" type="curve"/>
      <point x="173" y="264"/>
      <point x="151" y="294"/>
      <point x="140" y="318" type="curve"/>
      <point x="139" y="321"/>
      <point x="137" y="328"/>
    </contour>
  </outline>
</glyph>
<glyph name="c" format="1">
  <advance width="479"/>
  <unicode hex="0063"/>
  <outline>
    <contour>
      <point x="185" y="192" type="curve"/>
      <point x="253" y="178" type="line"/>
      <point x="272" y="184"/>
      <point x="293" y="184"/>
      <point x="311" y="188" type="curve"/>
      <point x="364" y="201"/>
      <point x="399" y="244"/>
      <point x="431" y="284" type="curve"/>
      <point x="434" y="288"/>
      <point x="441" y="297"/>
      <point x="442" y="298" type="curve"/>
      <point x="442" y="298"/>
      <point x="442" y="305"/>
      <point x="442" y="307" type="curve"/>
      <point x="442" y="309"/>
      <point x="442" y="315"/>
      <point x="442" y="315" type="curve"/>
      <point x="441" y="316"/>
      <point x="431" y="324"/>
      <point x="428" y="325" type="curve"/>
      <point x="428" y="326"/>
      <point x="425" y="326"/>
      <point x="425" y="326" type="curve"/>
      <point x="418" y="326"/>
      <point x="417" y="323"/>
      <point x="411" y="318" type="curve"/>
      <point x="408" y="317"/>
      <point x="389" y="300"/>
      <point x="387" y="298" type="curve"/>
      <point x="380" y="294"/>
      <point x="349" y="277"/>
      <point x="342" y="274" type="curve"/>
      <point x="324" y="275"/>
      <point x="307" y="270"/>
      <point x="289" y="270" type="curve"/>
      <point x="220" y="270"/>
      <point x="154" y="320"/>
      <point x="130" y="384" type="curve"/>
      <point x="118" y="414"/>
      <point x="116" y="447"/>
      <point x="116" y="480" type="curve"/>
      <point x="116" y="488"/>
      <point x="116" y="509"/>
      <point x="116" y="510" type="curve"/>
      <point x="117" y="521"/>
      <point x="125" y="538"/>
      <point x="123" y="551" type="curve"/>
      <point x="132" y="585"/>
      <point x="147" y="615"/>
      <point x="174" y="637" type="curve"/>
      <point x="175" y="636"/>
      <point x="177" y="636"/>
      <point x="178" y="637" type="curve"/>
      <point x="179" y="638"/>
      <point x="181" y="643"/>
      <point x="181" y="644" type="curve"/>
      <point x="202" y="656"/>
      <point x="228" y="665"/>
      <point x="253" y="665" type="curve"/>
      <point x="318" y="665"/>
      <point x="343" y="632"/>
      <point x="363" y="572" type="curve"/>
      <point x="368" y="564"/>
      <point x="379" y="558"/>
      <point x="388" y="558" type="curve"/>
      <point x="389" y="558"/>
      <point x="393" y="558"/>
      <point x="394" y="558" type="curve"/>
      <point x="430" y="566"/>
      <point x="438" y="577"/>
      <point x="438" y="616" type="curve"/>
      <point x="438" y="669"/>
      <point x="378" y="701"/>
      <point x="332" y="705" type="curve"/>
      <point x="322" y="706"/>
      <point x="277" y="711"/>
      <point x="267" y="712" type="curve"/>
      <point x="254" y="710"/>
      <point x="194" y="693"/>
      <point x="181" y="688" type="curve"/>
      <point x="173" y="685"/>
      <point x="137" y="666"/>
      <point x="130" y="661" type="curve"/>
      <point x="129" y="660"/>
      <point x="127" y="658"/>
      <point x="126" y="658" type="curve"/>
      <point x="125" y="656"/>
      <point x="111" y="645"/>
      <point x="109" y="644" type="curve"/>
      <point x="108" y="643"/>
      <point x="103" y="634"/>
      <point x="102" y="634" type="curve"/>
      <point x="101" y="632"/>
      <point x="90" y="621"/>
      <point x="89" y="620" type="curve"/>
      <point x="54" y="568"/>
      <point x="34" y="514"/>
      <point x="34" y="452" type="curve"/>
      <point x="34" y="427"/>
      <point x="39" y="402"/>
      <point x="37" y="377" type="curve"/>
      <point x="40" y="367"/>
      <point x="52" y="324"/>
      <point x="55" y="315" type="curve"/>
      <point x="55" y="313"/>
      <point x="60" y="304"/>
      <point x="61" y="301" type="curve"/>
      <point x="83" y="268"/>
      <point x="109" y="233"/>
      <point x="144" y="212" type="curve"/>
      <point x="144" y="212"/>
      <point x="153" y="209"/>
      <point x="154" y="209" type="curve"/>
      <point x="159" y="207"/>
      <point x="180" y="195"/>
    </contour>
  </outline>
</glyph>
<glyph name="d" format="1">
  <advance width="584"/>
  <unicode hex="0064"/>
  <outline>
    <contour>
      <point x="337" y="94" type="curve"/>
      <point x="336" y="94"/>
      <point x="336" y="91"/>
      <point x="337" y="91" type="curve"/>
      <point x="339" y="91"/>
      <point x="339" y="94"/>
    </contour>
    <contour>
      <point x="29" y="430" type="curve"/>
      <point x="29" y="422"/>
      <point x="29" y="402"/>
      <point x="29" y="401" type="curve"/>
      <point x="29" y="395"/>
      <point x="34" y="366"/>
      <point x="36" y="360" type="curve"/>
      <point x="53" y="297"/>
      <point x="96" y="225"/>
      <point x="156" y="195" type="curve"/>
      <point x="183" y="182"/>
      <point x="220" y="183"/>
      <point x="248" y="182" type="curve"/>
      <point x="248" y="182"/>
      <point x="250" y="182"/>
      <point x="250" y="182" type="curve"/>
      <point x="275" y="182"/>
      <point x="303" y="195"/>
      <point x="324" y="209" type="curve"/>
      <point x="329" y="213"/>
      <point x="373" y="246"/>
      <point x="378" y="250" type="curve"/>
      <point x="379" y="251"/>
      <point x="384" y="253"/>
      <point x="385" y="253" type="curve"/>
      <point x="386" y="254"/>
      <point x="388" y="253"/>
      <point x="389" y="253" type="curve"/>
      <point x="389" y="188" type="line"/>
      <point x="389" y="188"/>
      <point x="393" y="183"/>
      <point x="395" y="182" type="curve"/>
      <point x="395" y="182"/>
      <point x="396" y="181"/>
      <point x="397" y="181" type="curve"/>
      <point x="409" y="181"/>
      <point x="418" y="189"/>
      <point x="430" y="192" type="curve"/>
      <point x="468" y="201"/>
      <point x="509" y="203"/>
      <point x="546" y="216" type="curve"/>
      <point x="555" y="219"/>
      <point x="553" y="236"/>
      <point x="553" y="241" type="curve"/>
      <point x="553" y="244"/>
      <point x="553" y="255"/>
      <point x="553" y="257" type="curve"/>
      <point x="552" y="261"/>
      <point x="549" y="260"/>
      <point x="546" y="260" type="curve"/>
      <point x="540" y="260"/>
      <point x="534" y="257"/>
      <point x="527" y="257" type="curve"/>
      <point x="497" y="257"/>
      <point x="482" y="275"/>
      <point x="481" y="305" type="curve"/>
      <point x="481" y="314"/>
      <point x="481" y="391"/>
      <point x="481" y="401" type="curve"/>
      <point x="481" y="404"/>
      <point x="478" y="428"/>
      <point x="478" y="432" type="curve"/>
      <point x="478" y="433"/>
      <point x="477" y="462"/>
      <point x="477" y="474" type="curve"/>
      <point x="477" y="593"/>
      <point x="481" y="712"/>
      <point x="481" y="830" type="curve"/>
      <point x="481" y="850"/>
      <point x="481" y="943"/>
      <point x="481" y="962" type="curve"/>
      <point x="480" y="975"/>
      <point x="473" y="980"/>
      <point x="462" y="980" type="curve"/>
      <point x="431" y="980"/>
      <point x="408" y="962"/>
      <point x="378" y="952" type="curve"/>
      <point x="369" y="949"/>
      <point x="326" y="937"/>
      <point x="317" y="935" type="curve"/>
      <point x="310" y="930"/>
      <point x="306" y="924"/>
      <point x="306" y="916" type="curve"/>
      <point x="306" y="914"/>
      <point x="306" y="911"/>
      <point x="306" y="911" type="curve"/>
      <point x="307" y="909"/>
      <point x="315" y="902"/>
      <point x="317" y="901" type="curve"/>
      <point x="325" y="897"/>
      <point x="361" y="880"/>
      <point x="368" y="877" type="curve"/>
      <point x="372" y="874"/>
      <point x="385" y="867"/>
      <point x="385" y="860" type="curve"/>
      <point x="385" y="705" type="line"/>
      <point x="385" y="701"/>
      <point x="379" y="702"/>
      <point x="377" y="702" type="curve"/>
      <point x="376" y="702"/>
      <point x="372" y="702"/>
      <point x="371" y="702" type="curve"/>
      <point x="341" y="707"/>
      <point x="309" y="716"/>
      <point x="277" y="716" type="curve"/>
      <point x="254" y="716"/>
      <point x="216" y="709"/>
      <point x="197" y="699" type="curve"/>
      <point x="187" y="693"/>
      <point x="153" y="674"/>
      <point x="149" y="671" type="curve"/>
      <point x="105" y="642"/>
      <point x="70" y="605"/>
      <point x="50" y="555" type="curve"/>
      <point x="46" y="546"/>
      <point x="34" y="505"/>
      <point x="32" y="497" type="curve"/>
      <point x="33" y="495"/>
      <point x="33" y="485"/>
      <point x="32" y="483" type="curve"/>
      <point x="32" y="481"/>
      <point x="29" y="464"/>
      <point x="29" y="462" type="curve"/>
      <point x="29" y="461"/>
      <point x="29" y="438"/>
    </contour>
    <contour>
      <point x="132" y="384" type="curve"/>
      <point x="132" y="384"/>
      <point x="132" y="386"/>
      <point x="132" y="387" type="curve"/>
      <point x="130" y="393"/>
      <point x="119" y="442"/>
      <point x="118" y="449" type="curve"/>
      <point x="118" y="449"/>
      <point x="118" y="468"/>
      <point x="118" y="475" type="curve"/>
      <point x="118" y="483"/>
      <point x="118" y="505"/>
      <point x="118" y="507" type="curve"/>
      <point x="118" y="508"/>
      <point x="121" y="519"/>
      <point x="121" y="521" type="curve"/>
      <point x="122" y="522"/>
      <point x="122" y="529"/>
      <point x="121" y="531" type="curve"/>
      <point x="124" y="539"/>
      <point x="139" y="577"/>
      <point x="142" y="586" type="curve"/>
      <point x="158" y="627"/>
      <point x="210" y="665"/>
      <point x="254" y="665" type="curve"/>
      <point x="321" y="665"/>
      <point x="369" y="631"/>
      <point x="382" y="565" type="curve"/>
      <point x="382" y="564"/>
      <point x="385" y="553"/>
      <point x="385" y="551" type="curve"/>
      <point x="386" y="547"/>
      <point x="385" y="508"/>
      <point x="385" y="503" type="curve"/>
      <point x="386" y="487"/>
      <point x="388" y="352"/>
      <point x="389" y="336" type="curve"/>
      <point x="389" y="335"/>
      <point x="389" y="329"/>
      <point x="389" y="327" type="curve"/>
      <point x="389" y="314"/>
      <point x="373" y="300"/>
      <point x="361" y="295" type="curve"/>
      <point x="355" y="291"/>
      <point x="319" y="275"/>
      <point x="310" y="271" type="curve"/>
      <point x="308" y="270"/>
      <point x="301" y="268"/>
      <point x="300" y="267" type="curve"/>
      <point x="300" y="267"/>
      <point x="298" y="267"/>
      <point x="298" y="267" type="curve"/>
      <point x="297" y="267"/>
      <point x="296" y="267"/>
      <point x="296" y="267" type="curve"/>
      <point x="241" y="274"/>
      <point x="186" y="279"/>
      <point x="156" y="332" type="curve"/>
      <point x="151" y="340"/>
      <point x="135" y="376"/>
    </contour>
    <contour>
      <point x="491" y="334" type="curve"/>
      <point x="490" y="334"/>
      <point x="490" y="330"/>
      <point x="491" y="330" type="curve"/>
      <point x="493" y="330"/>
      <point x="493" y="334"/>
    </contour>
    <contour>
      <point x="498" y="334" type="curve"/>
      <point x="496" y="334"/>
      <point x="496" y="330"/>
      <point x="498" y="330" type="curve"/>
      <point x="500" y="330"/>
      <point x="500" y="334"/>
    </contour>
    <contour>
      <point x="498" y="517" type="curve"/>
      <point x="499" y="519"/>
      <point x="494" y="519"/>
      <point x="495" y="517" type="curve"/>
      <point x="495" y="515"/>
      <point x="498" y="515"/>
    </contour>
    <contour>
      <point x="224" y="762" type="curve"/>
      <point x="222" y="762"/>
      <point x="222" y="759"/>
      <point x="224" y="759" type="curve"/>
      <point x="226" y="759"/>
      <point x="226" y="762"/>
    </contour>
    <contour>
      <point x="211" y="832" type="line"/>
      <point x="214" y="829" type="line"/>
      <point x="214" y="832" type="line"/>
    </contour>
    <contour>
      <point x="207" y="837" type="curve"/>
      <point x="205" y="837"/>
      <point x="205" y="834"/>
      <point x="207" y="834" type="curve"/>
      <point x="209" y="834"/>
      <point x="209" y="837"/>
    </contour>
  </outline>
</glyph>
<glyph name="e" format="1">
  <advance width="457"/>
  <unicode hex="0065"/>
  <outline>
    <contour>
      <point x="25" y="447" type="curve"/>
      <point x="25" y="427"/>
      <point x="24" y="397"/>
      <point x="29" y="377" type="curve"/>
      <point x="30" y="372"/>
      <point x="42" y="331"/>
      <point x="46" y="318" type="curve"/>
      <point x="46" y="318"/>
      <point x="49" y="313"/>
      <point x="49" y="312" type="curve"/>
      <point x="57" y="299"/>
      <point x="79" y="265"/>
      <point x="80" y="264" type="curve"/>
      <point x="86" y="257"/>
      <point x="112" y="231"/>
      <point x="118" y="226" type="curve"/>
      <point x="121" y="224"/>
      <point x="147" y="210"/>
      <point x="156" y="205" type="curve"/>
      <point x="161" y="203"/>
      <point x="180" y="196"/>
      <point x="183" y="195" type="curve"/>
      <point x="190" y="194"/>
      <point x="233" y="186"/>
      <point x="245" y="185" type="curve"/>
      <point x="245" y="185"/>
      <point x="251" y="185"/>
      <point x="254" y="185" type="curve"/>
      <point x="256" y="185"/>
      <point x="261" y="185"/>
      <point x="262" y="185" type="curve"/>
      <point x="267" y="186"/>
      <point x="295" y="193"/>
      <point x="303" y="195" type="curve"/>
      <point x="351" y="210"/>
      <point x="386" y="243"/>
      <point x="419" y="281" type="curve"/>
      <point x="422" y="284"/>
      <point x="432" y="298"/>
      <point x="433" y="301" type="curve"/>
      <point x="433" y="302"/>
      <point x="433" y="306"/>
      <point x="433" y="308" type="curve"/>
      <point x="433" y="321"/>
      <point x="428" y="325"/>
      <point x="416" y="332" type="curve"/>
      <point x="416" y="332"/>
      <point x="415" y="332"/>
      <point x="414" y="332" type="curve"/>
      <point x="405" y="332"/>
      <point x="391" y="308"/>
      <point x="378" y="301" type="curve"/>
      <point x="348" y="285"/>
      <point x="317" y="277"/>
      <point x="282" y="277" type="curve"/>
      <point x="265" y="277"/>
      <point x="247" y="277"/>
      <point x="231" y="284" type="curve"/>
      <point x="217" y="291"/>
      <point x="181" y="307"/>
      <point x="180" y="308" type="curve"/>
      <point x="177" y="310"/>
      <point x="151" y="339"/>
      <point x="142" y="349" type="curve"/>
      <point x="140" y="351"/>
      <point x="131" y="365"/>
      <point x="128" y="370" type="curve"/>
      <point x="127" y="373"/>
      <point x="122" y="382"/>
      <point x="121" y="384" type="curve"/>
      <point x="110" y="419"/>
      <point x="104" y="450"/>
      <point x="104" y="487" type="curve"/>
      <point x="104" y="492"/>
      <point x="104" y="503"/>
      <point x="104" y="503" type="curve"/>
      <point x="111" y="510" type="line"/>
      <point x="148" y="510"/>
      <point x="321" y="510"/>
      <point x="358" y="510" type="curve"/>
      <point x="376" y="510"/>
      <point x="422" y="513"/>
      <point x="423" y="514" type="curve"/>
      <point x="426" y="517" type="line"/>
      <point x="426" y="518"/>
      <point x="427" y="526"/>
      <point x="427" y="529" type="curve"/>
      <point x="427" y="532"/>
      <point x="426" y="543"/>
      <point x="426" y="545" type="curve"/>
      <point x="425" y="553"/>
      <point x="415" y="584"/>
      <point x="412" y="589" type="curve"/>
      <point x="408" y="597"/>
      <point x="382" y="638"/>
      <point x="375" y="647" type="curve"/>
      <point x="336" y="697"/>
      <point x="277" y="713"/>
      <point x="217" y="713" type="curve"/>
      <point x="191" y="713"/>
      <point x="173" y="704"/>
      <point x="152" y="692" type="curve"/>
      <point x="94" y="657"/>
      <point x="70" y="614"/>
      <point x="43" y="555" type="curve"/>
      <point x="40" y="550"/>
      <point x="33" y="531"/>
      <point x="32" y="527" type="curve"/>
      <point x="32" y="525"/>
      <point x="29" y="506"/>
      <point x="29" y="503" type="curve"/>
      <point x="29" y="501"/>
      <point x="26" y="492"/>
      <point x="25" y="490" type="curve"/>
      <point x="25" y="483"/>
      <point x="25" y="453"/>
    </contour>
    <contour>
      <point x="190" y="241" type="curve"/>
      <point x="192" y="241"/>
      <point x="192" y="238"/>
      <point x="190" y="238" type="curve"/>
      <point x="188" y="238"/>
      <point x="188" y="241"/>
    </contour>
    <contour>
      <point x="132" y="509" type="curve"/>
      <point x="130" y="509"/>
      <point x="130" y="505"/>
      <point x="132" y="505" type="curve"/>
      <point x="133" y="505"/>
      <point x="133" y="509"/>
    </contour>
    <contour>
      <point x="107" y="555" type="curve"/>
      <point x="107" y="561"/>
      <point x="113" y="566"/>
      <point x="111" y="572" type="curve"/>
      <point x="114" y="579"/>
      <point x="128" y="610"/>
      <point x="132" y="616" type="curve"/>
      <point x="146" y="646"/>
      <point x="191" y="668"/>
      <point x="222" y="668" type="curve"/>
      <point x="223" y="668"/>
      <point x="224" y="668"/>
      <point x="224" y="668" type="curve"/>
      <point x="232" y="666"/>
      <point x="256" y="658"/>
      <point x="258" y="658" type="curve"/>
      <point x="290" y="645"/>
      <point x="320" y="595"/>
      <point x="320" y="561" type="curve"/>
      <point x="320" y="560"/>
      <point x="322" y="549"/>
      <point x="317" y="548" type="curve"/>
      <point x="257" y="549"/>
      <point x="198" y="544"/>
      <point x="138" y="544" type="curve"/>
      <point x="135" y="544"/>
      <point x="121" y="545"/>
      <point x="118" y="545" type="curve"/>
      <point x="113" y="546"/>
      <point x="107" y="549"/>
    </contour>
    <contour>
      <point x="46" y="851" type="curve"/>
      <point x="44" y="851"/>
      <point x="44" y="848"/>
      <point x="46" y="848" type="curve"/>
      <point x="48" y="848"/>
      <point x="48" y="851"/>
    </contour>
  </outline>
</glyph>
<glyph name="g" format="1">
  <advance width="521"/>
  <unicode hex="0067"/>
  <outline>
    <contour>
      <point x="157" y="76" type="curve"/>
      <point x="156" y="76"/>
      <point x="156" y="72"/>
      <point x="157" y="72" type="curve"/>
      <point x="159" y="72"/>
      <point x="159" y="76"/>
    </contour>
    <contour>
      <point x="294" y="94" type="curve"/>
      <point x="292" y="94"/>
      <point x="292" y="91"/>
      <point x="294" y="91" type="curve"/>
      <point x="296" y="91"/>
      <point x="296" y="94"/>
    </contour>
    <contour>
      <point x="64" y="181" type="curve"/>
      <point x="64" y="133"/>
      <point x="139" y="109"/>
      <point x="176" y="100" type="curve"/>
      <point x="197" y="95"/>
      <point x="211" y="96"/>
      <point x="233" y="96" type="curve"/>
      <point x="285" y="96"/>
      <point x="309" y="99"/>
      <point x="357" y="118" type="curve"/>
      <point x="359" y="119"/>
      <point x="377" y="125"/>
      <point x="379" y="126" type="curve"/>
      <point x="427" y="151"/>
      <point x="465" y="188"/>
      <point x="465" y="244" type="curve"/>
      <point x="465" y="290"/>
      <point x="449" y="297"/>
      <point x="416" y="322" type="curve"/>
      <point x="415" y="323"/>
      <point x="410" y="328"/>
      <point x="409" y="329" type="curve"/>
      <point x="401" y="331"/>
      <point x="365" y="339"/>
      <point x="357" y="340" type="curve"/>
      <point x="357" y="340"/>
      <point x="354" y="340"/>
      <point x="353" y="340" type="curve"/>
      <point x="351" y="340"/>
      <point x="330" y="344"/>
      <point x="327" y="344" type="curve"/>
      <point x="321" y="344"/>
      <point x="271" y="344"/>
      <point x="265" y="344" type="curve"/>
      <point x="254" y="344"/>
      <point x="202" y="347"/>
      <point x="191" y="348" type="curve"/>
      <point x="183" y="352"/>
      <point x="165" y="365"/>
      <point x="165" y="375" type="curve"/>
      <point x="165" y="394"/>
      <point x="191" y="414"/>
      <point x="209" y="414" type="curve"/>
      <point x="223" y="414"/>
      <point x="233" y="410"/>
      <point x="250" y="410" type="curve"/>
      <point x="303" y="410"/>
      <point x="374" y="449"/>
      <point x="398" y="499" type="curve"/>
      <point x="407" y="519"/>
      <point x="409" y="544"/>
      <point x="409" y="566" type="curve"/>
      <point x="409" y="584"/>
      <point x="404" y="601"/>
      <point x="398" y="617" type="curve"/>
      <point x="402" y="624"/>
      <point x="410" y="625"/>
      <point x="417" y="625" type="curve"/>
      <point x="438" y="625"/>
      <point x="458" y="621"/>
      <point x="478" y="621" type="curve"/>
      <point x="479" y="621"/>
      <point x="483" y="621"/>
      <point x="483" y="621" type="curve"/>
      <point x="484" y="622"/>
      <point x="486" y="627"/>
      <point x="486" y="628" type="curve"/>
      <point x="486" y="677" type="line"/>
      <point x="486" y="677"/>
      <point x="482" y="688"/>
      <point x="479" y="688" type="curve"/>
      <point x="398" y="688" type="line"/>
      <point x="257" y="713" type="line"/>
      <point x="257" y="713"/>
      <point x="256" y="713"/>
      <point x="255" y="713" type="curve"/>
      <point x="255" y="713"/>
      <point x="254" y="713"/>
      <point x="254" y="713" type="curve"/>
      <point x="240" y="712"/>
      <point x="204" y="706"/>
      <point x="202" y="706" type="curve"/>
      <point x="178" y="701"/>
      <point x="161" y="689"/>
      <point x="143" y="673" type="curve"/>
      <point x="137" y="668"/>
      <point x="122" y="653"/>
      <point x="120" y="651" type="curve"/>
      <point x="115" y="642"/>
      <point x="94" y="601"/>
      <point x="91" y="591" type="curve"/>
      <point x="91" y="587"/>
      <point x="90" y="566"/>
      <point x="90" y="562" type="curve"/>
      <point x="90" y="543"/>
      <point x="89" y="534"/>
      <point x="95" y="518" type="curve"/>
      <point x="98" y="507"/>
      <point x="109" y="481"/>
      <point x="109" y="481" type="curve"/>
      <point x="157" y="433" type="line"/>
      <point x="157" y="433"/>
      <point x="158" y="431"/>
      <point x="158" y="431" type="curve"/>
      <point x="158" y="420"/>
      <point x="145" y="416"/>
      <point x="139" y="410" type="curve"/>
      <point x="132" y="404"/>
      <point x="111" y="383"/>
      <point x="109" y="381" type="curve"/>
      <point x="106" y="376"/>
      <point x="93" y="353"/>
      <point x="91" y="348" type="curve"/>
      <point x="91" y="347"/>
      <point x="90" y="341"/>
      <point x="90" y="339" type="curve"/>
      <point x="90" y="325"/>
      <point x="93" y="315"/>
      <point x="98" y="299" type="curve"/>
      <point x="108" y="297"/>
      <point x="108" y="291"/>
      <point x="117" y="285" type="curve"/>
      <point x="128" y="277"/>
      <point x="132" y="281"/>
      <point x="139" y="270" type="curve"/>
      <point x="114" y="239"/>
      <point x="64" y="227"/>
    </contour>
    <contour>
      <point x="135" y="194" type="curve"/>
      <point x="135" y="220"/>
      <point x="162" y="244"/>
      <point x="180" y="259" type="curve"/>
      <point x="181" y="260"/>
      <point x="186" y="262"/>
      <point x="187" y="262" type="curve"/>
      <point x="327" y="262" type="line"/>
      <point x="330" y="262"/>
      <point x="345" y="260"/>
      <point x="350" y="259" type="curve"/>
      <point x="354" y="258"/>
      <point x="369" y="253"/>
      <point x="372" y="251" type="curve"/>
      <point x="374" y="250"/>
      <point x="382" y="245"/>
      <point x="383" y="244" type="curve"/>
      <point x="386" y="240"/>
      <point x="394" y="224"/>
      <point x="394" y="222" type="curve"/>
      <point x="394" y="217"/>
      <point x="389" y="193"/>
      <point x="387" y="189" type="curve"/>
      <point x="386" y="187"/>
      <point x="370" y="172"/>
      <point x="364" y="166" type="curve"/>
      <point x="364" y="166"/>
      <point x="359" y="163"/>
      <point x="357" y="163" type="curve"/>
      <point x="324" y="150"/>
      <point x="291" y="147"/>
      <point x="255" y="147" type="curve"/>
      <point x="246" y="147"/>
      <point x="222" y="148"/>
      <point x="220" y="148" type="curve"/>
      <point x="217" y="148"/>
      <point x="176" y="159"/>
      <point x="161" y="163" type="curve"/>
      <point x="148" y="166"/>
      <point x="135" y="180"/>
    </contour>
    <contour>
      <point x="124" y="272" type="curve"/>
      <point x="122" y="272"/>
      <point x="122" y="268"/>
      <point x="124" y="268" type="curve"/>
      <point x="126" y="268"/>
      <point x="126" y="272"/>
    </contour>
    <contour>
      <point x="28" y="285" type="curve"/>
      <point x="26" y="286"/>
      <point x="26" y="276"/>
      <point x="28" y="277" type="curve"/>
      <point x="30" y="278"/>
      <point x="30" y="284"/>
    </contour>
    <contour>
      <point x="176" y="547" type="curve"/>
      <point x="176" y="555"/>
      <point x="178" y="601"/>
      <point x="180" y="614" type="curve"/>
      <point x="183" y="650"/>
      <point x="222" y="670"/>
      <point x="254" y="670" type="curve"/>
      <point x="273" y="670"/>
      <point x="285" y="662"/>
      <point x="298" y="647" type="curve"/>
      <point x="325" y="616"/>
      <point x="324" y="578"/>
      <point x="324" y="538" type="curve"/>
      <point x="324" y="530"/>
      <point x="324" y="511"/>
      <point x="324" y="510" type="curve"/>
      <point x="323" y="505"/>
      <point x="315" y="482"/>
      <point x="313" y="477" type="curve"/>
      <point x="312" y="475"/>
      <point x="299" y="462"/>
      <point x="294" y="458" type="curve"/>
      <point x="284" y="450"/>
      <point x="265" y="451"/>
      <point x="253" y="451" type="curve"/>
      <point x="248" y="451"/>
      <point x="236" y="451"/>
      <point x="235" y="451" type="curve"/>
      <point x="234" y="451"/>
      <point x="229" y="454"/>
      <point x="228" y="455" type="curve"/>
      <point x="202" y="478"/>
      <point x="176" y="510"/>
    </contour>
    <contour>
      <point x="446" y="774" type="curve"/>
      <point x="444" y="774"/>
      <point x="444" y="771"/>
      <point x="446" y="771" type="curve"/>
      <point x="448" y="771"/>
      <point x="448" y="774"/>
    </contour>
  </outline>
</glyph>
<glyph name="j" format="1">
  <advance width="805"/>
  <unicode hex="006A"/>
  <outline>
    <contour>
      <point x="36" y="381" type="curve"/>
      <point x="36" y="379"/>
      <point x="36" y="374"/>
      <point x="36" y="373" type="curve"/>
      <point x="36" y="371"/>
      <point x="39" y="349"/>
      <point x="39" y="346" type="curve"/>
      <point x="48" y="240"/>
      <point x="99" y="141"/>
      <point x="183" y="75" type="curve"/>
      <point x="188" y="71"/>
      <point x="227" y="47"/>
      <point x="238" y="41" type="curve"/>
      <point x="240" y="40"/>
      <point x="267" y="28"/>
      <point x="276" y="24" type="curve"/>
      <point x="277" y="23"/>
      <point x="284" y="21"/>
      <point x="286" y="21" type="curve"/>
      <point x="302" y="17"/>
      <point x="343" y="7"/>
      <point x="344" y="7" type="curve"/>
      <point x="346" y="7"/>
      <point x="375" y="6"/>
      <point x="386" y="6" type="curve"/>
      <point x="481" y="6"/>
      <point x="535" y="25"/>
      <point x="615" y="75" type="curve"/>
      <point x="620" y="79"/>
      <point x="637" y="91"/>
      <point x="639" y="92" type="curve"/>
      <point x="697" y="145"/>
      <point x="733" y="205"/>
      <point x="752" y="281" type="curve"/>
      <point x="752" y="282"/>
      <point x="752" y="287"/>
      <point x="752" y="288" type="curve"/>
      <point x="756" y="305"/>
      <point x="765" y="333"/>
      <point x="765" y="353" type="curve"/>
      <point x="766" y="354"/>
      <point x="766" y="386"/>
      <point x="766" y="397" type="curve"/>
      <point x="766" y="453"/>
      <point x="759" y="494"/>
      <point x="741" y="548" type="curve"/>
      <point x="741" y="550"/>
      <point x="732" y="570"/>
      <point x="731" y="572" type="curve"/>
      <point x="731" y="572"/>
      <point x="731" y="575"/>
      <point x="731" y="575" type="curve"/>
      <point x="704" y="634" type="line"/>
      <point x="702" y="635"/>
      <point x="695" y="642"/>
      <point x="694" y="644" type="curve"/>
      <point x="691" y="647"/>
      <point x="669" y="678"/>
      <point x="666" y="682" type="curve"/>
      <point x="663" y="685"/>
      <point x="644" y="704"/>
      <point x="639" y="709" type="curve"/>
      <point x="638" y="710"/>
      <point x="629" y="715"/>
      <point x="628" y="716" type="curve"/>
      <point x="555" y="773"/>
      <point x="496" y="795"/>
      <point x="398" y="795" type="curve"/>
      <point x="286" y="795"/>
      <point x="217" y="750"/>
      <point x="139" y="671" type="curve"/>
      <point x="137" y="670"/>
      <point x="125" y="655"/>
      <point x="122" y="651" type="curve"/>
      <point x="120" y="649"/>
      <point x="115" y="642"/>
      <point x="115" y="640" type="curve"/>
      <point x="114" y="639"/>
      <point x="112" y="631"/>
      <point x="111" y="630" type="curve"/>
      <point x="110" y="628"/>
      <point x="99" y="615"/>
      <point x="98" y="613" type="curve"/>
      <point x="96" y="610"/>
      <point x="86" y="593"/>
      <point x="84" y="589" type="curve"/>
      <point x="83" y="588"/>
      <point x="81" y="580"/>
      <point x="81" y="579" type="curve"/>
      <point x="67" y="550"/>
      <point x="54" y="524"/>
      <point x="46" y="493" type="curve"/>
      <point x="46" y="492"/>
      <point x="46" y="481"/>
      <point x="46" y="479" type="curve"/>
      <point x="45" y="468"/>
      <point x="41" y="461"/>
      <point x="39" y="449" type="curve"/>
      <point x="39" y="443"/>
      <point x="37" y="403"/>
      <point x="36" y="390" type="curve"/>
      <point x="36" y="390"/>
      <point x="36" y="383"/>
    </contour>
    <contour>
      <point x="159" y="418" type="curve"/>
      <point x="159" y="451"/>
      <point x="158" y="477"/>
      <point x="163" y="510" type="curve"/>
      <point x="165" y="525"/>
      <point x="185" y="592"/>
      <point x="190" y="606" type="curve"/>
      <point x="192" y="611"/>
      <point x="219" y="659"/>
      <point x="228" y="675" type="curve"/>
      <point x="239" y="694"/>
      <point x="260" y="711"/>
      <point x="279" y="723" type="curve"/>
      <point x="288" y="728"/>
      <point x="319" y="745"/>
      <point x="324" y="747" type="curve"/>
      <point x="342" y="754"/>
      <point x="358" y="754"/>
      <point x="376" y="754" type="curve"/>
      <point x="410" y="754"/>
      <point x="441" y="749"/>
      <point x="471" y="733" type="curve"/>
      <point x="475" y="731"/>
      <point x="506" y="711"/>
      <point x="515" y="705" type="curve"/>
      <point x="519" y="703"/>
      <point x="528" y="696"/>
      <point x="529" y="695" type="curve"/>
      <point x="577" y="637" type="line"/>
      <point x="585" y="617"/>
      <point x="601" y="603"/>
      <point x="608" y="582" type="curve"/>
      <point x="634" y="508"/>
      <point x="646" y="432"/>
      <point x="646" y="353" type="curve"/>
      <point x="646" y="325"/>
      <point x="640" y="298"/>
      <point x="635" y="271" type="curve"/>
      <point x="635" y="270"/>
      <point x="636" y="261"/>
      <point x="635" y="260" type="curve"/>
      <point x="635" y="258"/>
      <point x="626" y="236"/>
      <point x="625" y="233" type="curve"/>
      <point x="624" y="229"/>
      <point x="616" y="196"/>
      <point x="615" y="192" type="curve"/>
      <point x="613" y="187"/>
      <point x="591" y="146"/>
      <point x="584" y="134" type="curve"/>
      <point x="580" y="126"/>
      <point x="567" y="111"/>
      <point x="560" y="106" type="curve"/>
      <point x="550" y="98"/>
      <point x="511" y="72"/>
      <point x="505" y="68" type="curve"/>
      <point x="475" y="51"/>
      <point x="443" y="50"/>
      <point x="409" y="45" type="curve"/>
      <point x="409" y="45"/>
      <point x="408" y="45"/>
      <point x="408" y="45" type="curve"/>
      <point x="407" y="45"/>
      <point x="406" y="45"/>
      <point x="406" y="45" type="curve"/>
      <point x="402" y="45"/>
      <point x="372" y="48"/>
      <point x="368" y="48" type="curve"/>
      <point x="368" y="48"/>
      <point x="365" y="48"/>
      <point x="365" y="48" type="curve"/>
      <point x="363" y="48"/>
      <point x="353" y="54"/>
      <point x="351" y="55" type="curve"/>
      <point x="350" y="55"/>
      <point x="339" y="54"/>
      <point x="337" y="55" type="curve"/>
      <point x="337" y="55"/>
      <point x="334" y="58"/>
      <point x="334" y="58" type="curve"/>
      <point x="314" y="72"/>
      <point x="290" y="85"/>
      <point x="272" y="103" type="curve"/>
      <point x="190" y="185"/>
      <point x="159" y="304"/>
    </contour>
    <contour>
      <point x="269" y="658" type="curve"/>
      <point x="267" y="658"/>
      <point x="267" y="654"/>
      <point x="269" y="654" type="curve"/>
      <point x="271" y="655"/>
      <point x="271" y="657"/>
    </contour>
  </outline>
</glyph>
<glyph name="k" format="1">
  <advance width="791"/>
  <unicode hex="006B"/>
  <outline>
    <contour>
      <point x="237" y="17" type="line"/>
      <point x="341" y="18"/>
      <point x="443" y="14"/>
      <point x="548" y="14" type="curve"/>
      <point x="550" y="14"/>
      <point x="555" y="14"/>
      <point x="555" y="14" type="curve"/>
      <point x="557" y="14"/>
      <point x="562" y="19"/>
      <point x="562" y="21" type="curve"/>
      <point x="562" y="48" type="line"/>
      <point x="562" y="54"/>
      <point x="548" y="58"/>
      <point x="545" y="58" type="curve"/>
      <point x="543" y="59"/>
      <point x="529" y="61"/>
      <point x="528" y="62" type="curve"/>
      <point x="519" y="64"/>
      <point x="495" y="71"/>
      <point x="493" y="72" type="curve"/>
      <point x="492" y="73"/>
      <point x="478" y="87"/>
      <point x="473" y="92" type="curve"/>
      <point x="470" y="96"/>
      <point x="463" y="105"/>
      <point x="463" y="106" type="curve"/>
      <point x="456" y="147" type="line"/>
      <point x="456" y="171"/>
      <point x="456" y="284"/>
      <point x="456" y="308" type="curve"/>
      <point x="456" y="315"/>
      <point x="453" y="373"/>
      <point x="452" y="380" type="curve"/>
      <point x="452" y="381"/>
      <point x="452" y="388"/>
      <point x="452" y="390" type="curve"/>
      <point x="452" y="392"/>
      <point x="452" y="400"/>
      <point x="452" y="401" type="curve"/>
      <point x="453" y="412"/>
      <point x="456" y="503"/>
      <point x="456" y="514" type="curve"/>
      <point x="456" y="547"/>
      <point x="456" y="700"/>
      <point x="456" y="733" type="curve"/>
      <point x="463" y="740" type="line"/>
      <point x="465" y="740"/>
      <point x="492" y="741"/>
      <point x="502" y="741" type="curve"/>
      <point x="516" y="741"/>
      <point x="558" y="740"/>
      <point x="562" y="740" type="curve"/>
      <point x="565" y="740"/>
      <point x="592" y="735"/>
      <point x="600" y="733" type="curve"/>
      <point x="610" y="730"/>
      <point x="633" y="722"/>
      <point x="641" y="716" type="curve"/>
      <point x="666" y="696"/>
      <point x="686" y="661"/>
      <point x="702" y="637" type="curve"/>
      <point x="712" y="622"/>
      <point x="715" y="606"/>
      <point x="737" y="606" type="curve"/>
      <point x="744" y="606"/>
      <point x="754" y="609"/>
      <point x="757" y="616" type="curve"/>
      <point x="757" y="618"/>
      <point x="757" y="627"/>
      <point x="757" y="628" type="curve"/>
      <point x="757" y="647"/>
      <point x="755" y="664"/>
      <point x="750" y="682" type="curve"/>
      <point x="743" y="709"/>
      <point x="749" y="742"/>
      <point x="740" y="771" type="curve"/>
      <point x="739" y="775"/>
      <point x="728" y="777"/>
      <point x="726" y="777" type="curve"/>
      <point x="700" y="777"/>
      <point x="578" y="777"/>
      <point x="552" y="777" type="curve"/>
      <point x="546" y="778"/>
      <point x="520" y="780"/>
      <point x="514" y="781" type="curve"/>
      <point x="59" y="781" type="line"/>
      <point x="52" y="781"/>
      <point x="48" y="773"/>
      <point x="48" y="767" type="curve"/>
      <point x="47" y="754"/>
      <point x="42" y="694"/>
      <point x="41" y="682" type="curve"/>
      <point x="40" y="667"/>
      <point x="38" y="655"/>
      <point x="38" y="640" type="curve"/>
      <point x="38" y="637"/>
      <point x="38" y="623"/>
      <point x="38" y="620" type="curve"/>
      <point x="38" y="608"/>
      <point x="56" y="609"/>
      <point x="63" y="609" type="curve"/>
      <point x="86" y="609"/>
      <point x="93" y="639"/>
      <point x="103" y="654" type="curve"/>
      <point x="131" y="696"/>
      <point x="162" y="735"/>
      <point x="216" y="736" type="curve"/>
      <point x="221" y="736"/>
      <point x="270" y="737"/>
      <point x="287" y="737" type="curve"/>
      <point x="300" y="737"/>
      <point x="332" y="736"/>
      <point x="333" y="736" type="curve"/>
      <point x="336" y="723" type="line"/>
      <point x="336" y="712"/>
      <point x="336" y="664"/>
      <point x="336" y="654" type="curve"/>
      <point x="336" y="638"/>
      <point x="339" y="506"/>
      <point x="339" y="490" type="curve"/>
      <point x="340" y="455"/>
      <point x="340" y="292"/>
      <point x="339" y="257" type="curve"/>
      <point x="341" y="250"/>
      <point x="343" y="219"/>
      <point x="343" y="212" type="curve"/>
      <point x="343" y="205"/>
      <point x="337" y="145"/>
      <point x="336" y="137" type="curve"/>
      <point x="336" y="137"/>
      <point x="336" y="134"/>
      <point x="336" y="134" type="curve"/>
      <point x="334" y="124"/>
      <point x="329" y="100"/>
      <point x="329" y="99" type="curve"/>
      <point x="316" y="65"/>
      <point x="272" y="55"/>
      <point x="240" y="58" type="curve"/>
      <point x="231" y="52"/>
      <point x="233" y="41"/>
      <point x="233" y="32" type="curve"/>
      <point x="233" y="29"/>
      <point x="233" y="21"/>
      <point x="233" y="21" type="curve"/>
    </contour>
    <contour>
      <point x="267" y="646" type="curve"/>
      <point x="266" y="646"/>
      <point x="266" y="642"/>
      <point x="267" y="642" type="curve"/>
      <point x="269" y="642"/>
      <point x="269" y="646"/>
    </contour>
  </outline>
</glyph>
<glyph name="l" format="1">
  <advance width="317"/>
  <unicode hex="006C"/>
  <outline>
    <contour>
      <point x="29" y="212" type="curve"/>
      <point x="29" y="199"/>
      <point x="49" y="199"/>
      <point x="56" y="199" type="curve"/>
      <point x="282" y="199" type="line"/>
      <point x="288" y="199"/>
      <point x="289" y="212"/>
      <point x="289" y="216" type="curve"/>
      <point x="289" y="222"/>
      <point x="288" y="227"/>
      <point x="286" y="233" type="curve"/>
      <point x="284" y="239"/>
      <point x="271" y="239"/>
      <point x="269" y="240" type="curve"/>
      <point x="262" y="242"/>
      <point x="234" y="254"/>
      <point x="228" y="257" type="curve"/>
      <point x="226" y="257"/>
      <point x="221" y="262"/>
      <point x="221" y="264" type="curve"/>
      <point x="220" y="265"/>
      <point x="221" y="273"/>
      <point x="221" y="274" type="curve"/>
      <point x="220" y="275"/>
      <point x="214" y="277"/>
      <point x="214" y="277" type="curve"/>
      <point x="214" y="278"/>
      <point x="211" y="288"/>
      <point x="211" y="291" type="curve"/>
      <point x="210" y="293"/>
      <point x="208" y="310"/>
      <point x="207" y="315" type="curve"/>
      <point x="207" y="315"/>
      <point x="207" y="316"/>
      <point x="207" y="317" type="curve"/>
      <point x="207" y="317"/>
      <point x="207" y="318"/>
      <point x="207" y="318" type="curve"/>
      <point x="207" y="330"/>
      <point x="211" y="427"/>
      <point x="211" y="438" type="curve"/>
      <point x="211" y="443"/>
      <point x="207" y="478"/>
      <point x="207" y="483" type="curve"/>
      <point x="207" y="485"/>
      <point x="207" y="527"/>
      <point x="207" y="543" type="curve"/>
      <point x="207" y="559"/>
      <point x="207" y="606"/>
      <point x="207" y="610" type="curve"/>
      <point x="207" y="625"/>
      <point x="211" y="752"/>
      <point x="211" y="767" type="curve"/>
      <point x="211" y="771"/>
      <point x="207" y="804"/>
      <point x="207" y="808" type="curve"/>
      <point x="207" y="834"/>
      <point x="207" y="954"/>
      <point x="207" y="979" type="curve"/>
      <point x="203" y="983"/>
      <point x="200" y="983"/>
      <point x="195" y="983" type="curve"/>
      <point x="179" y="983"/>
      <point x="167" y="974"/>
      <point x="152" y="969" type="curve"/>
      <point x="136" y="964"/>
      <point x="59" y="940"/>
      <point x="43" y="935" type="curve"/>
      <point x="41" y="934"/>
      <point x="34" y="926"/>
      <point x="32" y="925" type="curve"/>
      <point x="32" y="925"/>
      <point x="32" y="924"/>
      <point x="32" y="923" type="curve"/>
      <point x="32" y="914"/>
      <point x="39" y="906"/>
      <point x="46" y="901" type="curve"/>
      <point x="55" y="897"/>
      <point x="93" y="880"/>
      <point x="101" y="877" type="curve"/>
      <point x="106" y="874"/>
      <point x="114" y="870"/>
      <point x="115" y="863" type="curve"/>
      <point x="119" y="759"/>
      <point x="118" y="654"/>
      <point x="118" y="550" type="curve"/>
      <point x="118" y="522"/>
      <point x="118" y="394"/>
      <point x="118" y="366" type="curve"/>
      <point x="117" y="360"/>
      <point x="115" y="329"/>
      <point x="115" y="322" type="curve"/>
      <point x="114" y="309"/>
      <point x="117" y="292"/>
      <point x="108" y="281" type="curve"/>
      <point x="102" y="274"/>
      <point x="85" y="255"/>
      <point x="84" y="253" type="curve"/>
      <point x="83" y="253"/>
      <point x="69" y="248"/>
      <point x="63" y="247" type="curve"/>
      <point x="61" y="246"/>
      <point x="49" y="243"/>
      <point x="46" y="243" type="curve"/>
      <point x="45" y="243"/>
      <point x="37" y="244"/>
      <point x="36" y="243" type="curve"/>
      <point x="35" y="243"/>
      <point x="33" y="238"/>
      <point x="32" y="236" type="curve"/>
      <point x="31" y="231"/>
      <point x="29" y="220"/>
    </contour>
  </outline>
</glyph>
<glyph name="o" format="1">
  <advance width="534"/>
  <unicode hex="006F"/>
  <outline>
    <contour>
      <point x="86" y="274" type="curve"/>
      <point x="93" y="265"/>
      <point x="132" y="227"/>
      <point x="141" y="219" type="curve"/>
      <point x="143" y="217"/>
      <point x="172" y="201"/>
      <point x="182" y="195" type="curve"/>
      <point x="206" y="183"/>
      <point x="232" y="181"/>
      <point x="259" y="181" type="curve"/>
      <point x="321" y="181"/>
      <point x="367" y="201"/>
      <point x="415" y="240" type="curve"/>
      <point x="420" y="244"/>
      <point x="436" y="260"/>
      <point x="439" y="264" type="curve"/>
      <point x="441" y="267"/>
      <point x="460" y="301"/>
      <point x="463" y="305" type="curve"/>
      <point x="463" y="305"/>
      <point x="465" y="308"/>
      <point x="466" y="308" type="curve"/>
      <point x="469" y="315"/>
      <point x="481" y="349"/>
      <point x="483" y="356" type="curve"/>
      <point x="486" y="368"/>
      <point x="496" y="418"/>
      <point x="497" y="428" type="curve"/>
      <point x="497" y="429"/>
      <point x="497" y="446"/>
      <point x="497" y="453" type="curve"/>
      <point x="497" y="459"/>
      <point x="497" y="478"/>
      <point x="497" y="479" type="curve"/>
      <point x="497" y="484"/>
      <point x="492" y="511"/>
      <point x="490" y="517" type="curve"/>
      <point x="489" y="520"/>
      <point x="481" y="542"/>
      <point x="480" y="545" type="curve"/>
      <point x="479" y="546"/>
      <point x="477" y="560"/>
      <point x="476" y="562" type="curve"/>
      <point x="475" y="566"/>
      <point x="468" y="583"/>
      <point x="466" y="586" type="curve"/>
      <point x="463" y="592"/>
      <point x="448" y="613"/>
      <point x="446" y="616" type="curve"/>
      <point x="436" y="628"/>
      <point x="400" y="664"/>
      <point x="394" y="668" type="curve"/>
      <point x="391" y="670"/>
      <point x="350" y="692"/>
      <point x="336" y="699" type="curve"/>
      <point x="315" y="709"/>
      <point x="282" y="706"/>
      <point x="260" y="706" type="curve"/>
      <point x="252" y="706"/>
      <point x="231" y="706"/>
      <point x="230" y="705" type="curve"/>
      <point x="228" y="705"/>
      <point x="211" y="701"/>
      <point x="206" y="699" type="curve"/>
      <point x="195" y="695"/>
      <point x="159" y="680"/>
      <point x="154" y="678" type="curve"/>
      <point x="151" y="677"/>
      <point x="135" y="665"/>
      <point x="130" y="661" type="curve"/>
      <point x="127" y="658"/>
      <point x="103" y="634"/>
      <point x="96" y="627" type="curve"/>
      <point x="94" y="624"/>
      <point x="84" y="612"/>
      <point x="83" y="610" type="curve"/>
      <point x="78" y="599"/>
      <point x="56" y="549"/>
      <point x="52" y="538" type="curve"/>
      <point x="39" y="506"/>
      <point x="38" y="464"/>
      <point x="38" y="431" type="curve"/>
      <point x="38" y="394"/>
      <point x="41" y="361"/>
      <point x="55" y="325" type="curve"/>
      <point x="63" y="305"/>
      <point x="80" y="292"/>
    </contour>
    <contour>
      <point x="137" y="479" type="curve"/>
      <point x="137" y="531"/>
      <point x="136" y="585"/>
      <point x="172" y="627" type="curve"/>
      <point x="195" y="655"/>
      <point x="228" y="661"/>
      <point x="262" y="661" type="curve"/>
      <point x="266" y="661"/>
      <point x="281" y="661"/>
      <point x="285" y="661" type="curve"/>
      <point x="296" y="656"/>
      <point x="304" y="648"/>
      <point x="315" y="644" type="curve"/>
      <point x="331" y="628"/>
      <point x="356" y="603"/>
      <point x="363" y="579" type="curve"/>
      <point x="391" y="483" type="line"/>
      <point x="389" y="474"/>
      <point x="393" y="461"/>
      <point x="394" y="452" type="curve"/>
      <point x="394" y="450"/>
      <point x="398" y="430"/>
      <point x="398" y="428" type="curve"/>
      <point x="398" y="426"/>
      <point x="398" y="395"/>
      <point x="398" y="383" type="curve"/>
      <point x="398" y="331"/>
      <point x="396" y="266"/>
      <point x="343" y="240" type="curve"/>
      <point x="325" y="231"/>
      <point x="305" y="222"/>
      <point x="285" y="222" type="curve"/>
      <point x="258" y="222"/>
      <point x="235" y="236"/>
      <point x="216" y="253" type="curve"/>
      <point x="209" y="260"/>
      <point x="190" y="279"/>
      <point x="189" y="281" type="curve"/>
      <point x="183" y="289"/>
      <point x="166" y="325"/>
      <point x="165" y="332" type="curve"/>
      <point x="137" y="445" type="line"/>
      <point x="137" y="446"/>
      <point x="137" y="470"/>
    </contour>
  </outline>
</glyph>
<glyph name="p" format="1">
  <advance width="603"/>
  <unicode hex="0070"/>
  <outline>
    <contour>
      <point x="39" y="27" type="curve"/>
      <point x="39" y="19"/>
      <point x="45" y="13"/>
      <point x="53" y="10" type="curve"/>
      <point x="77" y="11"/>
      <point x="192" y="13"/>
      <point x="217" y="14" type="curve"/>
      <point x="217" y="14"/>
      <point x="219" y="14"/>
      <point x="219" y="14" type="curve"/>
      <point x="241" y="14"/>
      <point x="263" y="10"/>
      <point x="285" y="10" type="curve"/>
      <point x="297" y="10"/>
      <point x="300" y="15"/>
      <point x="300" y="27" type="curve"/>
      <point x="300" y="34"/>
      <point x="300" y="43"/>
      <point x="292" y="48" type="curve"/>
      <point x="286" y="48"/>
      <point x="257" y="53"/>
      <point x="251" y="55" type="curve"/>
      <point x="241" y="57"/>
      <point x="234" y="64"/>
      <point x="227" y="72" type="curve"/>
      <point x="207" y="96"/>
      <point x="210" y="123"/>
      <point x="210" y="154" type="curve"/>
      <point x="210" y="160"/>
      <point x="210" y="189"/>
      <point x="210" y="195" type="curve"/>
      <point x="213" y="203"/>
      <point x="218" y="202"/>
      <point x="223" y="202" type="curve"/>
      <point x="225" y="202"/>
      <point x="230" y="202"/>
      <point x="231" y="202" type="curve"/>
      <point x="236" y="201"/>
      <point x="277" y="192"/>
      <point x="282" y="192" type="curve"/>
      <point x="284" y="192"/>
      <point x="307" y="191"/>
      <point x="316" y="191" type="curve"/>
      <point x="419" y="191"/>
      <point x="519" y="258"/>
      <point x="546" y="360" type="curve"/>
      <point x="550" y="374"/>
      <point x="562" y="427"/>
      <point x="563" y="435" type="curve"/>
      <point x="563" y="436"/>
      <point x="563" y="447"/>
      <point x="563" y="451" type="curve"/>
      <point x="563" y="484"/>
      <point x="559" y="514"/>
      <point x="553" y="548" type="curve"/>
      <point x="552" y="551"/>
      <point x="545" y="573"/>
      <point x="542" y="579" type="curve"/>
      <point x="538" y="589"/>
      <point x="524" y="620"/>
      <point x="522" y="623" type="curve"/>
      <point x="519" y="628"/>
      <point x="493" y="659"/>
      <point x="484" y="668" type="curve"/>
      <point x="482" y="670"/>
      <point x="470" y="679"/>
      <point x="467" y="682" type="curve"/>
      <point x="432" y="704"/>
      <point x="406" y="716"/>
      <point x="363" y="716" type="curve"/>
      <point x="324" y="716"/>
      <point x="288" y="698"/>
      <point x="255" y="678" type="curve"/>
      <point x="243" y="671"/>
      <point x="222" y="643"/>
      <point x="212" y="643" type="curve"/>
      <point x="211" y="643"/>
      <point x="210" y="644"/>
      <point x="210" y="644" type="curve"/>
      <point x="209" y="645"/>
      <point x="207" y="653"/>
      <point x="207" y="654" type="curve"/>
      <point x="207" y="712" type="line"/>
      <point x="207" y="715"/>
      <point x="197" y="719"/>
      <point x="197" y="719" type="curve"/>
      <point x="192" y="718"/>
      <point x="170" y="711"/>
      <point x="166" y="709" type="curve"/>
      <point x="156" y="705"/>
      <point x="138" y="692"/>
      <point x="128" y="695" type="curve"/>
      <point x="56" y="668" type="line"/>
      <point x="46" y="664"/>
      <point x="39" y="653"/>
      <point x="39" y="642" type="curve"/>
      <point x="39" y="641"/>
      <point x="39" y="640"/>
      <point x="39" y="640" type="curve"/>
      <point x="41" y="638"/>
      <point x="48" y="631"/>
      <point x="49" y="630" type="curve"/>
      <point x="111" y="592" type="line"/>
      <point x="114" y="589" type="line"/>
      <point x="114" y="581"/>
      <point x="114" y="542"/>
      <point x="114" y="534" type="curve"/>
      <point x="115" y="527"/>
      <point x="118" y="473"/>
      <point x="118" y="466" type="curve"/>
      <point x="118" y="457"/>
      <point x="118" y="382"/>
      <point x="118" y="373" type="curve"/>
      <point x="118" y="370"/>
      <point x="121" y="339"/>
      <point x="121" y="336" type="curve"/>
      <point x="121" y="333"/>
      <point x="122" y="286"/>
      <point x="122" y="267" type="curve"/>
      <point x="122" y="249"/>
      <point x="121" y="199"/>
      <point x="121" y="195" type="curve"/>
      <point x="121" y="181"/>
      <point x="119" y="117"/>
      <point x="118" y="103" type="curve"/>
      <point x="118" y="99"/>
      <point x="113" y="82"/>
      <point x="111" y="79" type="curve"/>
      <point x="110" y="77"/>
      <point x="98" y="65"/>
      <point x="94" y="62" type="curve"/>
      <point x="83" y="53"/>
      <point x="61" y="54"/>
      <point x="49" y="55" type="curve"/>
      <point x="39" y="51"/>
      <point x="39" y="36"/>
    </contour>
    <contour>
      <point x="207" y="408" type="curve"/>
      <point x="208" y="409"/>
      <point x="210" y="416"/>
      <point x="210" y="418" type="curve"/>
      <point x="210" y="421"/>
      <point x="207" y="449"/>
      <point x="207" y="452" type="curve"/>
      <point x="207" y="454"/>
      <point x="206" y="500"/>
      <point x="206" y="517" type="curve"/>
      <point x="206" y="527"/>
      <point x="207" y="572"/>
      <point x="207" y="582" type="curve"/>
      <point x="207" y="584"/>
      <point x="213" y="594"/>
      <point x="217" y="596" type="curve"/>
      <point x="252" y="618"/>
      <point x="273" y="630"/>
      <point x="315" y="630" type="curve"/>
      <point x="393" y="630"/>
      <point x="432" y="592"/>
      <point x="464" y="521" type="curve"/>
      <point x="463" y="520"/>
      <point x="463" y="518"/>
      <point x="464" y="517" type="curve"/>
      <point x="473" y="486"/>
      <point x="481" y="458"/>
      <point x="481" y="426" type="curve"/>
      <point x="481" y="409"/>
      <point x="481" y="389"/>
      <point x="477" y="373" type="curve"/>
      <point x="477" y="370"/>
      <point x="468" y="346"/>
      <point x="467" y="342" type="curve"/>
      <point x="467" y="341"/>
      <point x="464" y="327"/>
      <point x="464" y="325" type="curve"/>
      <point x="463" y="323"/>
      <point x="458" y="314"/>
      <point x="457" y="312" type="curve"/>
      <point x="453" y="305"/>
      <point x="436" y="282"/>
      <point x="433" y="277" type="curve"/>
      <point x="431" y="275"/>
      <point x="421" y="265"/>
      <point x="419" y="264" type="curve"/>
      <point x="418" y="263"/>
      <point x="407" y="258"/>
      <point x="405" y="257" type="curve"/>
      <point x="380" y="242"/>
      <point x="374" y="233"/>
      <point x="341" y="233" type="curve"/>
      <point x="336" y="233"/>
      <point x="324" y="233"/>
      <point x="323" y="233" type="curve"/>
      <point x="317" y="234"/>
      <point x="288" y="241"/>
      <point x="282" y="243" type="curve"/>
      <point x="210" y="271"/>
      <point x="211" y="343"/>
    </contour>
  </outline>
</glyph>
<glyph name="y" format="1">
  <advance width="550"/>
  <unicode hex="0079"/>
  <outline>
    <contour>
      <point x="94" y="27" type="curve"/>
      <point x="99" y="25"/>
      <point x="126" y="18"/>
      <point x="131" y="17" type="curve"/>
      <point x="132" y="17"/>
      <point x="142" y="17"/>
      <point x="145" y="17" type="curve"/>
      <point x="185" y="17"/>
      <point x="217" y="43"/>
      <point x="244" y="68" type="curve"/>
      <point x="263" y="97"/>
      <point x="286" y="132"/>
      <point x="292" y="168" type="curve"/>
      <point x="460" y="610" type="line"/>
      <point x="462" y="614"/>
      <point x="479" y="642"/>
      <point x="484" y="651" type="curve"/>
      <point x="486" y="654"/>
      <point x="496" y="663"/>
      <point x="498" y="664" type="curve"/>
      <point x="500" y="666"/>
      <point x="519" y="670"/>
      <point x="522" y="671" type="curve"/>
      <point x="524" y="672"/>
      <point x="529" y="674"/>
      <point x="529" y="675" type="curve"/>
      <point x="529" y="705" type="line"/>
      <point x="529" y="708"/>
      <point x="518" y="712"/>
      <point x="518" y="712" type="curve"/>
      <point x="354" y="712" type="line"/>
      <point x="354" y="712"/>
      <point x="351" y="710"/>
      <point x="351" y="709" type="curve"/>
      <point x="349" y="706"/>
      <point x="344" y="696"/>
      <point x="344" y="695" type="curve"/>
      <point x="344" y="693"/>
      <point x="346" y="679"/>
      <point x="347" y="675" type="curve"/>
      <point x="350" y="666"/>
      <point x="383" y="661"/>
      <point x="392" y="654" type="curve"/>
      <point x="394" y="652"/>
      <point x="406" y="640"/>
      <point x="409" y="637" type="curve"/>
      <point x="412" y="633"/>
      <point x="412" y="631"/>
      <point x="412" y="627" type="curve"/>
      <point x="412" y="626"/>
      <point x="412" y="623"/>
      <point x="412" y="623" type="curve"/>
      <point x="404" y="577"/>
      <point x="389" y="543"/>
      <point x="375" y="500" type="curve"/>
      <point x="374" y="498"/>
      <point x="369" y="478"/>
      <point x="368" y="476" type="curve"/>
      <point x="367" y="473"/>
      <point x="355" y="448"/>
      <point x="354" y="445" type="curve"/>
      <point x="344" y="420"/>
      <point x="340" y="397"/>
      <point x="327" y="373" type="curve"/>
      <point x="325" y="371"/>
      <point x="318" y="364"/>
      <point x="316" y="363" type="curve"/>
      <point x="315" y="366"/>
      <point x="310" y="374"/>
      <point x="306" y="377" type="curve"/>
      <point x="299" y="408"/>
      <point x="283" y="433"/>
      <point x="272" y="462" type="curve"/>
      <point x="267" y="475"/>
      <point x="229" y="577"/>
      <point x="224" y="589" type="curve"/>
      <point x="218" y="605"/>
      <point x="207" y="620"/>
      <point x="207" y="639" type="curve"/>
      <point x="207" y="662"/>
      <point x="235" y="664"/>
      <point x="251" y="668" type="curve"/>
      <point x="253" y="668"/>
      <point x="263" y="670"/>
      <point x="265" y="675" type="curve"/>
      <point x="268" y="683"/>
      <point x="269" y="691"/>
      <point x="269" y="699" type="curve"/>
      <point x="269" y="701"/>
      <point x="268" y="705"/>
      <point x="268" y="705" type="curve"/>
      <point x="268" y="708"/>
      <point x="263" y="712"/>
      <point x="262" y="712" type="curve"/>
      <point x="49" y="712" type="line"/>
      <point x="41" y="712"/>
      <point x="39" y="692"/>
      <point x="39" y="686" type="curve"/>
      <point x="39" y="655"/>
      <point x="62" y="673"/>
      <point x="80" y="661" type="curve"/>
      <point x="88" y="655"/>
      <point x="97" y="642"/>
      <point x="101" y="634" type="curve"/>
      <point x="159" y="500" type="line"/>
      <point x="161" y="498"/>
      <point x="168" y="486"/>
      <point x="169" y="483" type="curve"/>
      <point x="188" y="444"/>
      <point x="203" y="401"/>
      <point x="224" y="363" type="curve"/>
      <point x="224" y="362"/>
      <point x="230" y="354"/>
      <point x="231" y="353" type="curve"/>
      <point x="247" y="317"/>
      <point x="257" y="280"/>
      <point x="272" y="243" type="curve"/>
      <point x="272" y="229" type="line"/>
      <point x="272" y="228"/>
      <point x="255" y="187"/>
      <point x="248" y="171" type="curve"/>
      <point x="247" y="170"/>
      <point x="242" y="162"/>
      <point x="241" y="161" type="curve"/>
      <point x="237" y="153"/>
      <point x="239" y="151"/>
      <point x="234" y="144" type="curve"/>
      <point x="231" y="140"/>
      <point x="210" y="111"/>
      <point x="203" y="103" type="curve"/>
      <point x="203" y="102"/>
      <point x="200" y="100"/>
      <point x="200" y="99" type="curve"/>
      <point x="198" y="99"/>
      <point x="190" y="99"/>
      <point x="188" y="99" type="curve"/>
      <point x="173" y="99"/>
      <point x="172" y="102"/>
      <point x="159" y="110" type="curve"/>
      <point x="155" y="112"/>
      <point x="125" y="128"/>
      <point x="121" y="130" type="curve"/>
      <point x="120" y="131"/>
      <point x="115" y="136"/>
      <point x="114" y="137" type="curve"/>
      <point x="111" y="139"/>
      <point x="102" y="144"/>
      <point x="101" y="144" type="curve"/>
      <point x="100" y="144"/>
      <point x="85" y="136"/>
      <point x="80" y="134" type="curve"/>
      <point x="68" y="126"/>
      <point x="59" y="99"/>
      <point x="59" y="85" type="curve"/>
      <point x="59" y="83"/>
      <point x="59" y="76"/>
      <point x="60" y="75" type="curve"/>
      <point x="60" y="74"/>
      <point x="65" y="60"/>
      <point x="66" y="55" type="curve"/>
      <point x="71" y="42"/>
      <point x="85" y="37"/>
    </contour>
    <contour>
      <point x="433" y="649" type="curve"/>
      <point x="435" y="649"/>
      <point x="435" y="646"/>
      <point x="433" y="646" type="curve"/>
      <point x="431" y="646"/>
      <point x="431" y="649"/>
    </contour>
  </outline>
</glyph>
<glyph name="_111" format="1">
  <advance width="2143"/>
  <outline>
    <contour>
      <point x="1079" y="407" type="curve"/>
      <point x="1292" y="147" type="line"/>
      <point x="1294" y="144"/>
      <point x="1300" y="139"/>
      <point x="1303" y="139" type="curve"/>
      <point x="1340" y="143" type="line"/>
      <point x="1343" y="143"/>
      <point x="1344" y="154"/>
      <point x="1344" y="158" type="curve"/>
      <point x="1344" y="159"/>
      <point x="1344" y="161"/>
      <point x="1344" y="161" type="curve"/>
      <point x="1342" y="179"/>
      <point x="1331" y="258"/>
      <point x="1329" y="275" type="curve"/>
      <point x="1329" y="606" type="line"/>
      <point x="1330" y="606"/>
      <point x="1333" y="608"/>
      <point x="1333" y="609" type="curve"/>
      <point x="1333" y="610"/>
      <point x="1329" y="616"/>
      <point x="1329" y="617" type="curve"/>
      <point x="1329" y="617"/>
      <point x="1329" y="621"/>
      <point x="1329" y="623" type="curve"/>
      <point x="1329" y="654"/>
      <point x="1329" y="686"/>
      <point x="1336" y="716" type="curve"/>
      <point x="1338" y="722"/>
      <point x="1343" y="740"/>
      <point x="1344" y="741" type="curve"/>
      <point x="1344" y="742"/>
      <point x="1357" y="758"/>
      <point x="1362" y="763" type="curve"/>
      <point x="1368" y="770"/>
      <point x="1372" y="775"/>
      <point x="1380" y="778" type="curve"/>
      <point x="1386" y="780"/>
      <point x="1415" y="788"/>
      <point x="1421" y="789" type="curve"/>
      <point x="1428" y="792"/>
      <point x="1428" y="795"/>
      <point x="1428" y="801" type="curve"/>
      <point x="1428" y="809"/>
      <point x="1427" y="814"/>
      <point x="1424" y="822" type="curve"/>
      <point x="1351" y="826"/>
      <point x="1277" y="827"/>
      <point x="1204" y="829" type="curve"/>
      <point x="1203" y="829"/>
      <point x="1196" y="830"/>
      <point x="1194" y="830" type="curve"/>
      <point x="1190" y="830"/>
      <point x="1181" y="830"/>
      <point x="1178" y="826" type="curve"/>
      <point x="1178" y="825"/>
      <point x="1176" y="812"/>
      <point x="1175" y="807" type="curve"/>
      <point x="1175" y="807"/>
      <point x="1175" y="806"/>
      <point x="1175" y="805" type="curve"/>
      <point x="1175" y="805"/>
      <point x="1175" y="804"/>
      <point x="1175" y="804" type="curve"/>
      <point x="1176" y="802"/>
      <point x="1184" y="794"/>
      <point x="1186" y="793" type="curve"/>
      <point x="1193" y="791"/>
      <point x="1226" y="781"/>
      <point x="1233" y="778" type="curve"/>
      <point x="1234" y="778"/>
      <point x="1247" y="767"/>
      <point x="1252" y="763" type="curve"/>
      <point x="1278" y="741"/>
      <point x="1279" y="700"/>
      <point x="1281" y="668" type="curve"/>
      <point x="1282" y="660"/>
      <point x="1284" y="624"/>
      <point x="1285" y="617" type="curve"/>
      <point x="1285" y="323" type="line"/>
      <point x="1285" y="320"/>
      <point x="1281" y="319"/>
      <point x="1279" y="319" type="curve"/>
      <point x="1279" y="319"/>
      <point x="1277" y="319"/>
      <point x="1277" y="319" type="curve"/>
      <point x="1277" y="320"/>
      <point x="1271" y="329"/>
      <point x="1270" y="330" type="curve"/>
      <point x="1248" y="357"/>
      <point x="1226" y="384"/>
      <point x="1204" y="411" type="curve"/>
      <point x="1193" y="425"/>
      <point x="1157" y="471"/>
      <point x="1153" y="477" type="curve"/>
      <point x="1151" y="479"/>
      <point x="1146" y="489"/>
      <point x="1145" y="492" type="curve"/>
      <point x="1103" y="538"/>
      <point x="1057" y="594"/>
      <point x="1017" y="642" type="curve"/>
      <point x="981" y="685"/>
      <point x="948" y="733"/>
      <point x="910" y="774" type="curve"/>
      <point x="908" y="777"/>
      <point x="887" y="797"/>
      <point x="885" y="800" type="curve"/>
      <point x="884" y="801"/>
      <point x="882" y="807"/>
      <point x="881" y="807" type="curve"/>
      <point x="878" y="811"/>
      <point x="863" y="826"/>
      <point x="859" y="829" type="curve"/>
      <point x="845" y="829"/>
      <point x="781" y="829"/>
      <point x="767" y="829" type="curve"/>
      <point x="763" y="830"/>
      <point x="728" y="833"/>
      <point x="723" y="833" type="curve"/>
      <point x="723" y="833"/>
      <point x="722" y="833"/>
      <point x="721" y="833" type="curve"/>
      <point x="719" y="833"/>
      <point x="705" y="831"/>
      <point x="705" y="826" type="curve"/>
      <point x="705" y="800" type="line"/>
      <point x="705" y="799"/>
      <point x="750" y="782"/>
      <point x="760" y="774" type="curve"/>
      <point x="770" y="767"/>
      <point x="803" y="738"/>
      <point x="808" y="734" type="curve"/>
      <point x="810" y="732"/>
      <point x="821" y="719"/>
      <point x="822" y="716" type="curve"/>
      <point x="823" y="690"/>
      <point x="823" y="572"/>
      <point x="823" y="547" type="curve"/>
      <point x="823" y="502"/>
      <point x="823" y="384"/>
      <point x="822" y="378" type="curve"/>
      <point x="822" y="370"/>
      <point x="819" y="305"/>
      <point x="819" y="297" type="curve"/>
      <point x="819" y="296"/>
      <point x="819" y="287"/>
      <point x="819" y="286" type="curve"/>
      <point x="818" y="280"/>
      <point x="816" y="262"/>
      <point x="815" y="261" type="curve"/>
      <point x="807" y="239"/>
      <point x="797" y="216"/>
      <point x="775" y="206" type="curve"/>
      <point x="767" y="204"/>
      <point x="731" y="196"/>
      <point x="723" y="194" type="curve"/>
      <point x="711" y="191"/>
      <point x="712" y="181"/>
      <point x="712" y="170" type="curve"/>
      <point x="712" y="168"/>
      <point x="712" y="162"/>
      <point x="712" y="161" type="curve"/>
      <point x="720" y="158" type="line"/>
      <point x="969" y="158" type="line"/>
      <point x="970" y="158"/>
      <point x="973" y="163"/>
      <point x="973" y="165" type="curve"/>
      <point x="973" y="166"/>
      <point x="973" y="174"/>
      <point x="973" y="177" type="curve"/>
      <point x="973" y="180"/>
      <point x="973" y="187"/>
      <point x="973" y="187" type="curve"/>
      <point x="972" y="189"/>
      <point x="964" y="197"/>
      <point x="962" y="198" type="curve"/>
      <point x="960" y="199"/>
      <point x="942" y="201"/>
      <point x="940" y="202" type="curve"/>
      <point x="934" y="204"/>
      <point x="905" y="217"/>
      <point x="899" y="220" type="curve"/>
      <point x="886" y="238"/>
      <point x="878" y="261"/>
      <point x="874" y="283" type="curve"/>
      <point x="870" y="385"/>
      <point x="869" y="488"/>
      <point x="866" y="591" type="curve"/>
      <point x="866" y="594"/>
      <point x="866" y="622"/>
      <point x="866" y="631" type="curve"/>
      <point x="866" y="638"/>
      <point x="866" y="656"/>
      <point x="866" y="657" type="curve"/>
      <point x="870" y="664" type="line"/>
      <point x="879" y="663"/>
      <point x="880" y="656"/>
      <point x="885" y="650" type="curve"/>
      <point x="887" y="646"/>
      <point x="900" y="631"/>
      <point x="903" y="628" type="curve"/>
      <point x="904" y="626"/>
      <point x="913" y="618"/>
      <point x="914" y="617" type="curve"/>
      <point x="916" y="614"/>
      <point x="930" y="593"/>
      <point x="933" y="591" type="curve"/>
      <point x="935" y="587"/>
      <point x="959" y="561"/>
      <point x="962" y="558" type="curve"/>
      <point x="963" y="556"/>
      <point x="972" y="541"/>
      <point x="973" y="539" type="curve"/>
      <point x="996" y="507"/>
      <point x="1025" y="476"/>
      <point x="1050" y="444" type="curve"/>
      <point x="1059" y="432"/>
      <point x="1067" y="417"/>
    </contour>
    <contour>
      <point x="1619" y="176" type="curve"/>
      <point x="1619" y="171"/>
      <point x="1622" y="150"/>
      <point x="1630" y="150" type="curve"/>
      <point x="1905" y="150" type="line"/>
      <point x="1905" y="187" type="line"/>
      <point x="1905" y="187"/>
      <point x="1900" y="190"/>
      <point x="1898" y="191" type="curve"/>
      <point x="1895" y="192"/>
      <point x="1888" y="194"/>
      <point x="1887" y="194" type="curve"/>
      <point x="1885" y="195"/>
      <point x="1873" y="194"/>
      <point x="1872" y="194" type="curve"/>
      <point x="1867" y="195"/>
      <point x="1849" y="201"/>
      <point x="1846" y="202" type="curve"/>
      <point x="1834" y="207"/>
      <point x="1822" y="238"/>
      <point x="1821" y="250" type="curve"/>
      <point x="1820" y="258"/>
      <point x="1817" y="297"/>
      <point x="1817" y="305" type="curve"/>
      <point x="1817" y="307"/>
      <point x="1817" y="346"/>
      <point x="1817" y="361" type="curve"/>
      <point x="1817" y="401"/>
      <point x="1812" y="437"/>
      <point x="1835" y="470" type="curve"/>
      <point x="1837" y="473"/>
      <point x="1855" y="496"/>
      <point x="1857" y="499" type="curve"/>
      <point x="1871" y="521"/>
      <point x="1933" y="624"/>
      <point x="1945" y="646" type="curve"/>
      <point x="1949" y="650" type="line"/>
      <point x="2011" y="745" type="line"/>
      <point x="2024" y="763"/>
      <point x="2051" y="771"/>
      <point x="2070" y="778" type="curve"/>
      <point x="2073" y="781"/>
      <point x="2078" y="805"/>
      <point x="2078" y="809" type="curve"/>
      <point x="2078" y="816"/>
      <point x="2075" y="826"/>
      <point x="2066" y="826" type="curve"/>
      <point x="1854" y="826" type="line"/>
      <point x="1847" y="826"/>
      <point x="1846" y="803"/>
      <point x="1846" y="798" type="curve"/>
      <point x="1846" y="795"/>
      <point x="1844" y="787"/>
      <point x="1850" y="785" type="curve"/>
      <point x="1865" y="781"/>
      <point x="1892" y="783"/>
      <point x="1905" y="771" type="curve"/>
      <point x="1906" y="770"/>
      <point x="1916" y="754"/>
      <point x="1920" y="749" type="curve"/>
      <point x="1924" y="742"/>
      <point x="1924" y="741"/>
      <point x="1924" y="733" type="curve"/>
      <point x="1924" y="732"/>
      <point x="1924" y="727"/>
      <point x="1923" y="727" type="curve"/>
      <point x="1905" y="675" type="line"/>
      <point x="1810" y="514" type="line"/>
      <point x="1806" y="508"/>
      <point x="1803" y="498"/>
      <point x="1795" y="498" type="curve"/>
      <point x="1794" y="498"/>
      <point x="1791" y="499"/>
      <point x="1791" y="499" type="curve"/>
      <point x="1769" y="532" type="line"/>
      <point x="1670" y="716" type="line"/>
      <point x="1668" y="725"/>
      <point x="1663" y="734"/>
      <point x="1663" y="743" type="curve"/>
      <point x="1663" y="781"/>
      <point x="1703" y="784"/>
      <point x="1733" y="789" type="curve"/>
      <point x="1737" y="794"/>
      <point x="1737" y="801"/>
      <point x="1737" y="807" type="curve"/>
      <point x="1737" y="816"/>
      <point x="1737" y="828"/>
      <point x="1725" y="829" type="curve"/>
      <point x="1702" y="829"/>
      <point x="1591" y="829"/>
      <point x="1567" y="829" type="curve"/>
      <point x="1561" y="830"/>
      <point x="1511" y="833"/>
      <point x="1505" y="833" type="curve"/>
      <point x="1504" y="833"/>
      <point x="1490" y="833"/>
      <point x="1485" y="833" type="curve"/>
      <point x="1482" y="833"/>
      <point x="1468" y="833"/>
      <point x="1465" y="833" type="curve"/>
      <point x="1458" y="828"/>
      <point x="1457" y="821"/>
      <point x="1457" y="813" type="curve"/>
      <point x="1457" y="803"/>
      <point x="1457" y="792"/>
      <point x="1468" y="789" type="curve"/>
      <point x="1487" y="784"/>
      <point x="1512" y="783"/>
      <point x="1523" y="763" type="curve"/>
      <point x="1600" y="628" type="line"/>
      <point x="1604" y="624" type="line"/>
      <point x="1710" y="440" type="line"/>
      <point x="1711" y="439"/>
      <point x="1714" y="406"/>
      <point x="1714" y="393" type="curve"/>
      <point x="1714" y="392"/>
      <point x="1714" y="373"/>
      <point x="1714" y="366" type="curve"/>
      <point x="1714" y="359"/>
      <point x="1714" y="339"/>
      <point x="1714" y="338" type="curve"/>
      <point x="1714" y="321"/>
      <point x="1711" y="270"/>
      <point x="1710" y="264" type="curve"/>
      <point x="1709" y="250"/>
      <point x="1702" y="232"/>
      <point x="1692" y="220" type="curve"/>
      <point x="1688" y="215"/>
      <point x="1679" y="204"/>
      <point x="1670" y="202" type="curve"/>
      <point x="1663" y="200"/>
      <point x="1630" y="192"/>
      <point x="1622" y="191" type="curve"/>
      <point x="1619" y="184"/>
      <point x="1619" y="182"/>
    </contour>
    <contour>
      <point x="41" y="161" type="line"/>
      <point x="112" y="163"/>
      <point x="170" y="158"/>
      <point x="239" y="158" type="curve"/>
      <point x="242" y="158"/>
      <point x="250" y="158"/>
      <point x="250" y="161" type="curve"/>
      <point x="250" y="194" type="line"/>
      <point x="250" y="196"/>
      <point x="245" y="201"/>
      <point x="243" y="202" type="curve"/>
      <point x="240" y="203"/>
      <point x="219" y="208"/>
      <point x="217" y="209" type="curve"/>
      <point x="193" y="220"/>
      <point x="184" y="246"/>
      <point x="184" y="269" type="curve"/>
      <point x="184" y="292"/>
      <point x="185" y="316"/>
      <point x="191" y="338" type="curve"/>
      <point x="195" y="352"/>
      <point x="216" y="419"/>
      <point x="221" y="433" type="curve"/>
      <point x="230" y="432"/>
      <point x="277" y="430"/>
      <point x="287" y="429" type="curve"/>
      <point x="307" y="429"/>
      <point x="402" y="429"/>
      <point x="422" y="429" type="curve"/>
      <point x="425" y="427"/>
      <point x="432" y="414"/>
      <point x="433" y="411" type="curve"/>
      <point x="436" y="405"/>
      <point x="450" y="358"/>
      <point x="452" y="352" type="curve"/>
      <point x="452" y="352"/>
      <point x="455" y="346"/>
      <point x="455" y="345" type="curve"/>
      <point x="459" y="334"/>
      <point x="477" y="283"/>
      <point x="481" y="272" type="curve"/>
      <point x="482" y="269"/>
      <point x="482" y="256"/>
      <point x="482" y="253" type="curve"/>
      <point x="482" y="229"/>
      <point x="470" y="206"/>
      <point x="444" y="202" type="curve"/>
      <point x="440" y="201"/>
      <point x="419" y="199"/>
      <point x="415" y="198" type="curve"/>
      <point x="409" y="194"/>
      <point x="408" y="187"/>
      <point x="408" y="180" type="curve"/>
      <point x="408" y="178"/>
      <point x="408" y="173"/>
      <point x="408" y="172" type="curve"/>
      <point x="408" y="168"/>
      <point x="411" y="158"/>
      <point x="411" y="158" type="curve"/>
      <point x="668" y="158" type="line"/>
      <point x="668" y="187" type="line"/>
      <point x="668" y="188"/>
      <point x="663" y="194"/>
      <point x="661" y="194" type="curve"/>
      <point x="660" y="195"/>
      <point x="647" y="198"/>
      <point x="643" y="198" type="curve"/>
      <point x="642" y="198"/>
      <point x="636" y="198"/>
      <point x="635" y="198" type="curve"/>
      <point x="621" y="206"/>
      <point x="600" y="227"/>
      <point x="595" y="242" type="curve"/>
      <point x="529" y="444" type="line"/>
      <point x="522" y="459" type="line"/>
      <point x="419" y="771" type="line"/>
      <point x="417" y="773"/>
      <point x="412" y="783"/>
      <point x="411" y="785" type="curve"/>
      <point x="410" y="790"/>
      <point x="398" y="832"/>
      <point x="397" y="837" type="curve"/>
      <point x="396" y="839"/>
      <point x="394" y="844"/>
      <point x="393" y="844" type="curve"/>
      <point x="391" y="845"/>
      <point x="381" y="848"/>
      <point x="378" y="848" type="curve"/>
      <point x="294" y="848" type="line"/>
      <point x="290" y="848"/>
      <point x="290" y="843"/>
      <point x="290" y="840" type="curve"/>
      <point x="290" y="829"/>
      <point x="302" y="821"/>
      <point x="302" y="809" type="curve"/>
      <point x="302" y="808"/>
      <point x="302" y="804"/>
      <point x="301" y="804" type="curve"/>
      <point x="276" y="730" type="line"/>
      <point x="276" y="730"/>
      <point x="276" y="727"/>
      <point x="276" y="727" type="curve"/>
      <point x="270" y="709"/>
      <point x="264" y="699"/>
      <point x="261" y="683" type="curve"/>
      <point x="169" y="422" type="line"/>
      <point x="169" y="419"/>
      <point x="166" y="406"/>
      <point x="166" y="404" type="curve"/>
      <point x="161" y="388"/>
      <point x="143" y="334"/>
      <point x="140" y="327" type="curve"/>
      <point x="135" y="314"/>
      <point x="109" y="255"/>
      <point x="103" y="242" type="curve"/>
      <point x="97" y="238"/>
      <point x="102" y="238"/>
      <point x="96" y="231" type="curve"/>
      <point x="81" y="214"/>
      <point x="65" y="197"/>
      <point x="41" y="198" type="curve"/>
      <point x="35" y="193"/>
      <point x="37" y="181"/>
      <point x="37" y="176" type="curve"/>
      <point x="37" y="173"/>
      <point x="37" y="166"/>
      <point x="37" y="165" type="curve"/>
    </contour>
    <contour>
      <point x="2103" y="361" type="curve"/>
      <point x="2101" y="361"/>
      <point x="2101" y="358"/>
      <point x="2103" y="358" type="curve"/>
      <point x="2105" y="358"/>
      <point x="2105" y="361"/>
    </contour>
    <contour>
      <point x="235" y="486" type="curve"/>
      <point x="235" y="486"/>
      <point x="235" y="488"/>
      <point x="235" y="488" type="curve"/>
      <point x="237" y="494"/>
      <point x="248" y="525"/>
      <point x="250" y="532" type="curve"/>
      <point x="250" y="533"/>
      <point x="253" y="538"/>
      <point x="254" y="539" type="curve"/>
      <point x="305" y="697" type="line"/>
      <point x="312" y="708"/>
      <point x="315" y="738"/>
      <point x="325" y="738" type="curve"/>
      <point x="330" y="738"/>
      <point x="339" y="708"/>
      <point x="338" y="705" type="curve"/>
      <point x="341" y="696"/>
      <point x="353" y="658"/>
      <point x="356" y="650" type="curve"/>
      <point x="375" y="597"/>
      <point x="389" y="542"/>
      <point x="408" y="488" type="curve"/>
      <point x="408" y="481" type="line"/>
      <point x="246" y="481" type="line"/>
      <point x="245" y="481"/>
      <point x="237" y="483"/>
      <point x="235" y="484" type="curve"/>
      <point x="235" y="484"/>
      <point x="235" y="486"/>
    </contour>
    <contour>
      <point x="1435" y="519" type="curve"/>
      <point x="1433" y="519"/>
      <point x="1433" y="516"/>
      <point x="1435" y="516" type="curve"/>
      <point x="1437" y="516"/>
      <point x="1437" y="519"/>
    </contour>
    <contour>
      <point x="1010" y="611" type="curve"/>
      <point x="1011" y="611"/>
      <point x="1011" y="607"/>
      <point x="1010" y="607" type="curve"/>
      <point x="1008" y="607"/>
      <point x="1008" y="611"/>
    </contour>
    <contour>
      <point x="2059" y="651" type="curve"/>
      <point x="2057" y="651"/>
      <point x="2057" y="648"/>
      <point x="2059" y="648" type="curve"/>
      <point x="2061" y="648"/>
      <point x="2061" y="651"/>
    </contour>
    <contour>
      <point x="1799" y="782" type="line"/>
      <point x="1799" y="778" type="line"/>
      <point x="1802" y="778" type="line"/>
      <point x="1802" y="782" type="line"/>
    </contour>
  </outline>
</glyph>
<glyph name="_113" format="1">
  <advance width="637"/>
  <outline>
    <contour>
      <point x="301" y="150" type="curve"/>
      <point x="325" y="151"/>
      <point x="435" y="151"/>
      <point x="459" y="150" type="curve"/>
      <point x="465" y="150"/>
      <point x="509" y="147"/>
      <point x="514" y="147" type="curve"/>
      <point x="521" y="147"/>
      <point x="552" y="149"/>
      <point x="558" y="150" type="curve"/>
      <point x="559" y="151"/>
      <point x="561" y="157"/>
      <point x="562" y="158" type="curve"/>
      <point x="565" y="168"/>
      <point x="578" y="217"/>
      <point x="580" y="228" type="curve"/>
      <point x="580" y="229"/>
      <point x="580" y="234"/>
      <point x="580" y="235" type="curve"/>
      <point x="586" y="259"/>
      <point x="595" y="281"/>
      <point x="595" y="305" type="curve"/>
      <point x="595" y="316"/>
      <point x="584" y="316"/>
      <point x="576" y="316" type="curve"/>
      <point x="565" y="316"/>
      <point x="565" y="317"/>
      <point x="558" y="308" type="curve"/>
      <point x="554" y="303"/>
      <point x="525" y="262"/>
      <point x="521" y="257" type="curve"/>
      <point x="515" y="250"/>
      <point x="487" y="224"/>
      <point x="481" y="220" type="curve"/>
      <point x="478" y="218"/>
      <point x="445" y="203"/>
      <point x="433" y="198" type="curve"/>
      <point x="416" y="191"/>
      <point x="394" y="191"/>
      <point x="375" y="191" type="curve"/>
      <point x="372" y="191"/>
      <point x="364" y="191"/>
      <point x="364" y="191" type="curve"/>
      <point x="357" y="191"/>
      <point x="304" y="194"/>
      <point x="298" y="194" type="curve"/>
      <point x="290" y="195"/>
      <point x="282" y="193"/>
      <point x="276" y="198" type="curve"/>
      <point x="248" y="220"/>
      <point x="239" y="248"/>
      <point x="239" y="283" type="curve"/>
      <point x="239" y="451" type="line"/>
      <point x="239" y="456"/>
      <point x="241" y="474"/>
      <point x="243" y="477" type="curve"/>
      <point x="243" y="479"/>
      <point x="248" y="484"/>
      <point x="250" y="484" type="curve"/>
      <point x="323" y="483" type="line"/>
      <point x="334" y="483" type="line"/>
      <point x="397" y="481" type="line"/>
      <point x="399" y="481"/>
      <point x="417" y="473"/>
      <point x="422" y="470" type="curve"/>
      <point x="448" y="454"/>
      <point x="449" y="421"/>
      <point x="459" y="396" type="curve"/>
      <point x="460" y="395"/>
      <point x="462" y="387"/>
      <point x="463" y="385" type="curve"/>
      <point x="465" y="385"/>
      <point x="474" y="385"/>
      <point x="476" y="385" type="curve"/>
      <point x="478" y="385"/>
      <point x="499" y="384"/>
      <point x="499" y="393" type="curve"/>
      <point x="499" y="565" type="line"/>
      <point x="501" y="568"/>
      <point x="503" y="581"/>
      <point x="503" y="583" type="curve"/>
      <point x="503" y="587"/>
      <point x="501" y="605"/>
      <point x="499" y="609" type="curve"/>
      <point x="498" y="615"/>
      <point x="487" y="613"/>
      <point x="485" y="613" type="curve"/>
      <point x="482" y="613"/>
      <point x="474" y="613"/>
      <point x="474" y="613" type="curve"/>
      <point x="466" y="612"/>
      <point x="458" y="550"/>
      <point x="426" y="536" type="curve"/>
      <point x="419" y="532"/>
      <point x="393" y="525"/>
      <point x="389" y="525" type="curve"/>
      <point x="261" y="525" type="line"/>
      <point x="259" y="525"/>
      <point x="246" y="527"/>
      <point x="243" y="528" type="curve"/>
      <point x="242" y="529"/>
      <point x="239" y="531"/>
      <point x="239" y="532" type="curve"/>
      <point x="239" y="536"/>
      <point x="239" y="552"/>
      <point x="239" y="556" type="curve"/>
      <point x="239" y="562"/>
      <point x="239" y="579"/>
      <point x="239" y="580" type="curve"/>
      <point x="239" y="583"/>
      <point x="243" y="610"/>
      <point x="243" y="613" type="curve"/>
      <point x="243" y="634"/>
      <point x="243" y="734"/>
      <point x="243" y="756" type="curve"/>
      <point x="246" y="782" type="line"/>
      <point x="411" y="782" type="line"/>
      <point x="470" y="782"/>
      <point x="483" y="738"/>
      <point x="507" y="694" type="curve"/>
      <point x="515" y="679"/>
      <point x="520" y="678"/>
      <point x="537" y="678" type="curve"/>
      <point x="539" y="678"/>
      <point x="547" y="679"/>
      <point x="547" y="679" type="curve"/>
      <point x="551" y="683" type="line"/>
      <point x="551" y="807" type="line"/>
      <point x="551" y="812"/>
      <point x="543" y="820"/>
      <point x="540" y="822" type="curve"/>
      <point x="414" y="820"/>
      <point x="288" y="826"/>
      <point x="162" y="826" type="curve"/>
      <point x="145" y="826"/>
      <point x="68" y="826"/>
      <point x="52" y="826" type="curve"/>
      <point x="46" y="821"/>
      <point x="48" y="809"/>
      <point x="48" y="804" type="curve"/>
      <point x="48" y="801"/>
      <point x="48" y="791"/>
      <point x="48" y="789" type="curve"/>
      <point x="63" y="779"/>
      <point x="80" y="785"/>
      <point x="96" y="778" type="curve"/>
      <point x="117" y="768"/>
      <point x="139" y="743"/>
      <point x="140" y="719" type="curve"/>
      <point x="140" y="715"/>
      <point x="136" y="683"/>
      <point x="136" y="679" type="curve"/>
      <point x="136" y="674"/>
      <point x="140" y="633"/>
      <point x="140" y="628" type="curve"/>
      <point x="140" y="626"/>
      <point x="140" y="595"/>
      <point x="140" y="583" type="curve"/>
      <point x="140" y="571"/>
      <point x="140" y="535"/>
      <point x="140" y="532" type="curve"/>
      <point x="140" y="517"/>
      <point x="136" y="390"/>
      <point x="136" y="374" type="curve"/>
      <point x="136" y="368"/>
      <point x="136" y="315"/>
      <point x="136" y="308" type="curve"/>
      <point x="136" y="300"/>
      <point x="131" y="252"/>
      <point x="129" y="239" type="curve"/>
      <point x="126" y="217"/>
      <point x="106" y="194"/>
      <point x="85" y="191" type="curve"/>
      <point x="81" y="190"/>
      <point x="55" y="191"/>
      <point x="52" y="191" type="curve"/>
      <point x="40" y="190"/>
      <point x="40" y="177"/>
      <point x="40" y="169" type="curve"/>
      <point x="40" y="167"/>
      <point x="38" y="155"/>
      <point x="44" y="154" type="curve"/>
      <point x="74" y="154"/>
      <point x="213" y="151"/>
      <point x="243" y="150" type="curve"/>
      <point x="243" y="150"/>
      <point x="244" y="150"/>
      <point x="245" y="150" type="curve"/>
      <point x="255" y="150"/>
      <point x="265" y="154"/>
      <point x="276" y="154" type="curve"/>
      <point x="285" y="154"/>
      <point x="293" y="155"/>
    </contour>
    <contour>
      <point x="250" y="413" type="curve"/>
      <point x="248" y="413"/>
      <point x="248" y="409"/>
      <point x="250" y="409" type="curve"/>
      <point x="252" y="409"/>
      <point x="252" y="413"/>
    </contour>
    <contour>
      <point x="210" y="543" type="curve"/>
      <point x="209" y="541"/>
      <point x="206" y="541"/>
      <point x="206" y="543" type="curve"/>
      <point x="205" y="545"/>
      <point x="210" y="545"/>
    </contour>
    <contour>
      <point x="202" y="549" type="curve"/>
      <point x="204" y="549"/>
      <point x="204" y="545"/>
      <point x="202" y="545" type="curve"/>
      <point x="200" y="545"/>
      <point x="200" y="549"/>
    </contour>
    <contour>
      <point x="125" y="659" type="curve"/>
      <point x="123" y="659"/>
      <point x="123" y="655"/>
      <point x="125" y="655" type="curve"/>
      <point x="127" y="655"/>
      <point x="127" y="659"/>
    </contour>
  </outline>
</glyph>
<glyph name="_115" format="1">
  <advance width="376"/>
  <outline>
    <contour>
      <point x="40" y="158" type="curve"/>
      <point x="130" y="154"/>
      <point x="219" y="154"/>
      <point x="308" y="150" type="curve"/>
      <point x="309" y="150"/>
      <point x="317" y="150"/>
      <point x="319" y="150" type="curve"/>
      <point x="336" y="150"/>
      <point x="334" y="166"/>
      <point x="334" y="181" type="curve"/>
      <point x="334" y="183"/>
      <point x="334" y="187"/>
      <point x="334" y="187" type="curve"/>
      <point x="333" y="189"/>
      <point x="325" y="197"/>
      <point x="323" y="198" type="curve"/>
      <point x="322" y="199"/>
      <point x="313" y="198"/>
      <point x="312" y="198" type="curve"/>
      <point x="286" y="203"/>
      <point x="246" y="214"/>
      <point x="242" y="246" type="curve"/>
      <point x="242" y="249"/>
      <point x="239" y="280"/>
      <point x="239" y="290" type="curve"/>
      <point x="239" y="290"/>
      <point x="239" y="294"/>
      <point x="239" y="295" type="curve"/>
      <point x="239" y="296"/>
      <point x="239" y="301"/>
      <point x="239" y="301" type="curve"/>
      <point x="239" y="309"/>
      <point x="242" y="374"/>
      <point x="242" y="382" type="curve"/>
      <point x="242" y="395"/>
      <point x="242" y="507"/>
      <point x="242" y="521" type="curve"/>
      <point x="242" y="535"/>
      <point x="246" y="647"/>
      <point x="246" y="661" type="curve"/>
      <point x="246" y="669"/>
      <point x="246" y="710"/>
      <point x="246" y="719" type="curve"/>
      <point x="252" y="722"/>
      <point x="252" y="735"/>
      <point x="253" y="738" type="curve"/>
      <point x="263" y="764"/>
      <point x="284" y="781"/>
      <point x="312" y="785" type="curve"/>
      <point x="322" y="787"/>
      <point x="336" y="779"/>
      <point x="341" y="793" type="curve"/>
      <point x="341" y="793"/>
      <point x="341" y="796"/>
      <point x="341" y="798" type="curve"/>
      <point x="341" y="804"/>
      <point x="339" y="826"/>
      <point x="330" y="826" type="curve"/>
      <point x="169" y="826" type="line"/>
      <point x="145" y="831"/>
      <point x="121" y="830"/>
      <point x="97" y="830" type="curve"/>
      <point x="91" y="830"/>
      <point x="61" y="830"/>
      <point x="55" y="829" type="curve"/>
      <point x="47" y="829"/>
      <point x="41" y="816"/>
      <point x="40" y="811" type="curve"/>
      <point x="40" y="809"/>
      <point x="43" y="799"/>
      <point x="44" y="796" type="curve"/>
      <point x="51" y="782"/>
      <point x="76" y="786"/>
      <point x="88" y="782" type="curve"/>
      <point x="103" y="776"/>
      <point x="116" y="769"/>
      <point x="125" y="756" type="curve"/>
      <point x="145" y="728"/>
      <point x="140" y="690"/>
      <point x="140" y="657" type="curve"/>
      <point x="140" y="645"/>
      <point x="139" y="608"/>
      <point x="139" y="606" type="curve"/>
      <point x="139" y="596"/>
      <point x="136" y="520"/>
      <point x="136" y="510" type="curve"/>
      <point x="136" y="498"/>
      <point x="136" y="398"/>
      <point x="136" y="385" type="curve"/>
      <point x="136" y="382"/>
      <point x="132" y="356"/>
      <point x="132" y="352" type="curve"/>
      <point x="132" y="338"/>
      <point x="132" y="271"/>
      <point x="132" y="257" type="curve"/>
      <point x="129" y="217"/>
      <point x="76" y="190"/>
      <point x="40" y="198" type="curve"/>
      <point x="40" y="197"/>
      <point x="37" y="192"/>
      <point x="37" y="191" type="curve"/>
      <point x="36" y="186"/>
      <point x="33" y="171"/>
      <point x="33" y="169" type="curve"/>
      <point x="33" y="166"/>
      <point x="38" y="160"/>
    </contour>
    <contour>
      <point x="257" y="717" type="curve"/>
      <point x="255" y="717"/>
      <point x="255" y="714"/>
      <point x="257" y="714" type="curve"/>
      <point x="259" y="714"/>
      <point x="259" y="717"/>
    </contour>
  </outline>
</glyph>
<glyph name="_116" format="1">
  <advance width="650"/>
  <outline>
    <contour>
      <point x="288" y="154" type="curve"/>
      <point x="292" y="153"/>
      <point x="313" y="150"/>
      <point x="317" y="150" type="curve"/>
      <point x="319" y="150"/>
      <point x="324" y="153"/>
      <point x="325" y="154" type="curve"/>
      <point x="563" y="154" type="line"/>
      <point x="570" y="154"/>
      <point x="573" y="169"/>
      <point x="574" y="172" type="curve"/>
      <point x="581" y="201"/>
      <point x="585" y="228"/>
      <point x="592" y="257" type="curve"/>
      <point x="597" y="276"/>
      <point x="604" y="292"/>
      <point x="604" y="312" type="curve"/>
      <point x="604" y="318"/>
      <point x="599" y="323"/>
      <point x="593" y="323" type="curve"/>
      <point x="578" y="323"/>
      <point x="569" y="321"/>
      <point x="559" y="308" type="curve"/>
      <point x="557" y="305"/>
      <point x="540" y="278"/>
      <point x="537" y="275" type="curve"/>
      <point x="531" y="268"/>
      <point x="501" y="237"/>
      <point x="493" y="231" type="curve"/>
      <point x="492" y="231"/>
      <point x="487" y="228"/>
      <point x="486" y="228" type="curve"/>
      <point x="485" y="227"/>
      <point x="476" y="221"/>
      <point x="475" y="220" type="curve"/>
      <point x="435" y="202"/>
      <point x="412" y="198"/>
      <point x="369" y="198" type="curve"/>
      <point x="363" y="198"/>
      <point x="334" y="198"/>
      <point x="328" y="198" type="curve"/>
      <point x="314" y="206"/>
      <point x="299" y="199"/>
      <point x="284" y="206" type="curve"/>
      <point x="250" y="221"/>
      <point x="252" y="253"/>
      <point x="244" y="283" type="curve"/>
      <point x="244" y="462" type="line"/>
      <point x="244" y="465"/>
      <point x="246" y="481"/>
      <point x="248" y="484" type="curve"/>
      <point x="248" y="485"/>
      <point x="250" y="488"/>
      <point x="251" y="488" type="curve"/>
      <point x="254" y="488"/>
      <point x="267" y="488"/>
      <point x="270" y="488" type="curve"/>
      <point x="274" y="488"/>
      <point x="287" y="488"/>
      <point x="288" y="488" type="curve"/>
      <point x="290" y="488"/>
      <point x="308" y="484"/>
      <point x="310" y="484" type="curve"/>
      <point x="312" y="484"/>
      <point x="323" y="487"/>
      <point x="325" y="488" type="curve"/>
      <point x="402" y="484" type="line"/>
      <point x="405" y="484"/>
      <point x="420" y="479"/>
      <point x="424" y="477" type="curve"/>
      <point x="453" y="461"/>
      <point x="452" y="389"/>
      <point x="476" y="389" type="curve"/>
      <point x="477" y="389"/>
      <point x="482" y="389"/>
      <point x="482" y="389" type="curve"/>
      <point x="489" y="390"/>
      <point x="504" y="392"/>
      <point x="504" y="393" type="curve"/>
      <point x="508" y="400" type="line"/>
      <point x="508" y="613" type="line"/>
      <point x="508" y="614"/>
      <point x="503" y="620"/>
      <point x="501" y="620" type="curve"/>
      <point x="501" y="620"/>
      <point x="494" y="621"/>
      <point x="492" y="621" type="curve"/>
      <point x="486" y="621"/>
      <point x="474" y="620"/>
      <point x="471" y="613" type="curve"/>
      <point x="470" y="610"/>
      <point x="462" y="583"/>
      <point x="460" y="580" type="curve"/>
      <point x="457" y="572"/>
      <point x="451" y="561"/>
      <point x="446" y="554" type="curve"/>
      <point x="440" y="547"/>
      <point x="425" y="542"/>
      <point x="420" y="539" type="curve"/>
      <point x="409" y="535"/>
      <point x="402" y="532"/>
      <point x="391" y="532" type="curve"/>
      <point x="378" y="532"/>
      <point x="319" y="529"/>
      <point x="306" y="528" type="curve"/>
      <point x="304" y="529"/>
      <point x="294" y="532"/>
      <point x="292" y="532" type="curve"/>
      <point x="284" y="532"/>
      <point x="251" y="531"/>
      <point x="244" y="531" type="curve"/>
      <point x="244" y="533"/>
      <point x="244" y="548"/>
      <point x="244" y="550" type="curve"/>
      <point x="244" y="563"/>
      <point x="251" y="666"/>
      <point x="251" y="679" type="curve"/>
      <point x="252" y="695"/>
      <point x="250" y="770"/>
      <point x="250" y="786" type="curve"/>
      <point x="277" y="786"/>
      <point x="304" y="789"/>
      <point x="332" y="789" type="curve"/>
      <point x="338" y="789"/>
      <point x="356" y="789"/>
      <point x="358" y="789" type="curve"/>
      <point x="363" y="789"/>
      <point x="404" y="786"/>
      <point x="409" y="785" type="curve"/>
      <point x="474" y="781"/>
      <point x="494" y="744"/>
      <point x="519" y="690" type="curve"/>
      <point x="526" y="686"/>
      <point x="534" y="682"/>
      <point x="541" y="682" type="curve"/>
      <point x="546" y="682"/>
      <point x="559" y="684"/>
      <point x="559" y="690" type="curve"/>
      <point x="559" y="815" type="line"/>
      <point x="559" y="818"/>
      <point x="555" y="824"/>
      <point x="552" y="826" type="curve"/>
      <point x="391" y="834"/>
      <point x="229" y="827"/>
      <point x="68" y="833" type="curve"/>
      <point x="58" y="831"/>
      <point x="49" y="826"/>
      <point x="49" y="815" type="curve"/>
      <point x="49" y="811"/>
      <point x="52" y="796"/>
      <point x="53" y="793" type="curve"/>
      <point x="61" y="786"/>
      <point x="73" y="788"/>
      <point x="82" y="785" type="curve"/>
      <point x="104" y="780"/>
      <point x="125" y="770"/>
      <point x="134" y="749" type="curve"/>
      <point x="136" y="743"/>
      <point x="141" y="725"/>
      <point x="141" y="723" type="curve"/>
      <point x="141" y="418" type="line"/>
      <point x="134" y="361"/>
      <point x="141" y="303"/>
      <point x="134" y="246" type="curve"/>
      <point x="130" y="218"/>
      <point x="100" y="201"/>
      <point x="75" y="198" type="curve"/>
      <point x="74" y="198"/>
      <point x="62" y="199"/>
      <point x="60" y="198" type="curve"/>
      <point x="57" y="197"/>
      <point x="47" y="192"/>
      <point x="46" y="191" type="curve"/>
      <point x="44" y="189"/>
      <point x="42" y="176"/>
      <point x="42" y="172" type="curve"/>
      <point x="42" y="170"/>
      <point x="48" y="160"/>
      <point x="49" y="158" type="curve"/>
      <point x="63" y="157"/>
      <point x="124" y="154"/>
      <point x="137" y="154" type="curve"/>
      <point x="160" y="154"/>
      <point x="265" y="154"/>
    </contour>
    <contour>
      <point x="600" y="347" type="curve"/>
      <point x="598" y="347"/>
      <point x="598" y="343"/>
      <point x="600" y="343" type="curve"/>
      <point x="602" y="343"/>
      <point x="602" y="347"/>
    </contour>
    <contour>
      <point x="108" y="769" type="curve"/>
      <point x="106" y="769"/>
      <point x="106" y="765"/>
      <point x="108" y="765" type="curve"/>
      <point x="110" y="765"/>
      <point x="110" y="769"/>
    </contour>
  </outline>
</glyph>
<glyph name="_117" format="1">
  <advance width="486"/>
  <outline>
    <contour>
      <point x="71" y="169" type="curve"/>
      <point x="86" y="164"/>
      <point x="155" y="143"/>
      <point x="170" y="139" type="curve"/>
      <point x="188" y="135"/>
      <point x="220" y="135"/>
      <point x="238" y="135" type="curve"/>
      <point x="265" y="135"/>
      <point x="283" y="135"/>
      <point x="310" y="143" type="curve"/>
      <point x="401" y="172"/>
      <point x="446" y="232"/>
      <point x="446" y="329" type="curve"/>
      <point x="446" y="405"/>
      <point x="390" y="467"/>
      <point x="328" y="506" type="curve"/>
      <point x="310" y="518"/>
      <point x="222" y="570"/>
      <point x="203" y="580" type="curve"/>
      <point x="197" y="584"/>
      <point x="172" y="605"/>
      <point x="166" y="609" type="curve"/>
      <point x="139" y="633"/>
      <point x="133" y="656"/>
      <point x="133" y="690" type="curve"/>
      <point x="133" y="714"/>
      <point x="134" y="728"/>
      <point x="148" y="749" type="curve"/>
      <point x="169" y="779"/>
      <point x="197" y="793"/>
      <point x="234" y="793" type="curve"/>
      <point x="300" y="793"/>
      <point x="323" y="773"/>
      <point x="354" y="716" type="curve"/>
      <point x="363" y="698"/>
      <point x="367" y="639"/>
      <point x="394" y="639" type="curve"/>
      <point x="416" y="639"/>
      <point x="416" y="655"/>
      <point x="416" y="673" type="curve"/>
      <point x="416" y="691"/>
      <point x="412" y="709"/>
      <point x="412" y="727" type="curve"/>
      <point x="412" y="730"/>
      <point x="412" y="737"/>
      <point x="412" y="738" type="curve"/>
      <point x="413" y="739"/>
      <point x="416" y="748"/>
      <point x="416" y="749" type="curve"/>
      <point x="416" y="749"/>
      <point x="413" y="755"/>
      <point x="412" y="756" type="curve"/>
      <point x="411" y="764"/>
      <point x="416" y="783"/>
      <point x="405" y="789" type="curve"/>
      <point x="357" y="812"/>
      <point x="307" y="834"/>
      <point x="253" y="834" type="curve"/>
      <point x="247" y="834"/>
      <point x="230" y="833"/>
      <point x="229" y="833" type="curve"/>
      <point x="218" y="832"/>
      <point x="166" y="824"/>
      <point x="155" y="822" type="curve"/>
      <point x="88" y="787"/>
      <point x="45" y="730"/>
      <point x="45" y="654" type="curve"/>
      <point x="45" y="649"/>
      <point x="45" y="635"/>
      <point x="45" y="635" type="curve"/>
      <point x="47" y="626"/>
      <point x="60" y="585"/>
      <point x="64" y="576" type="curve"/>
      <point x="65" y="573"/>
      <point x="78" y="555"/>
      <point x="82" y="550" type="curve"/>
      <point x="88" y="543"/>
      <point x="117" y="515"/>
      <point x="122" y="510" type="curve"/>
      <point x="124" y="509"/>
      <point x="136" y="504"/>
      <point x="137" y="503" type="curve"/>
      <point x="142" y="500"/>
      <point x="177" y="473"/>
      <point x="181" y="470" type="curve"/>
      <point x="195" y="461"/>
      <point x="259" y="422"/>
      <point x="273" y="415" type="curve"/>
      <point x="277" y="408"/>
      <point x="293" y="401"/>
      <point x="299" y="396" type="curve"/>
      <point x="322" y="376"/>
      <point x="346" y="350"/>
      <point x="354" y="319" type="curve"/>
      <point x="354" y="315"/>
      <point x="354" y="296"/>
      <point x="354" y="292" type="curve"/>
      <point x="354" y="221"/>
      <point x="309" y="176"/>
      <point x="237" y="176" type="curve"/>
      <point x="225" y="176"/>
      <point x="215" y="176"/>
      <point x="203" y="180" type="curve"/>
      <point x="197" y="182"/>
      <point x="179" y="190"/>
      <point x="177" y="191" type="curve"/>
      <point x="130" y="239" type="line"/>
      <point x="129" y="241"/>
      <point x="124" y="251"/>
      <point x="122" y="253" type="curve"/>
      <point x="121" y="255"/>
      <point x="109" y="273"/>
      <point x="108" y="275" type="curve"/>
      <point x="106" y="279"/>
      <point x="96" y="307"/>
      <point x="93" y="316" type="curve"/>
      <point x="93" y="317"/>
      <point x="90" y="332"/>
      <point x="89" y="334" type="curve"/>
      <point x="88" y="338"/>
      <point x="83" y="349"/>
      <point x="82" y="349" type="curve"/>
      <point x="49" y="349" type="line"/>
      <point x="48" y="349"/>
      <point x="46" y="346"/>
      <point x="45" y="345" type="curve"/>
      <point x="44" y="343"/>
      <point x="42" y="335"/>
      <point x="42" y="334" type="curve"/>
      <point x="42" y="331"/>
      <point x="45" y="308"/>
      <point x="45" y="305" type="curve"/>
      <point x="46" y="297"/>
      <point x="45" y="232"/>
      <point x="45" y="224" type="curve"/>
      <point x="46" y="218"/>
      <point x="48" y="193"/>
      <point x="49" y="187" type="curve"/>
      <point x="51" y="177"/>
      <point x="64" y="172"/>
    </contour>
    <contour>
      <point x="71" y="754" type="curve"/>
      <point x="69" y="754"/>
      <point x="69" y="750"/>
      <point x="71" y="750" type="curve"/>
      <point x="73" y="750"/>
      <point x="73" y="754"/>
    </contour>
  </outline>
</glyph>
<glyph name="_121" format="1">
  <advance width="617"/>
  <outline>
    <contour>
      <point x="50" y="143" type="curve"/>
      <point x="130" y="145"/>
      <point x="210" y="139"/>
      <point x="290" y="139" type="curve"/>
      <point x="297" y="139"/>
      <point x="329" y="139"/>
      <point x="336" y="139" type="curve"/>
      <point x="344" y="145"/>
      <point x="344" y="154"/>
      <point x="344" y="162" type="curve"/>
      <point x="344" y="169"/>
      <point x="345" y="177"/>
      <point x="336" y="180" type="curve"/>
      <point x="295" y="181"/>
      <point x="255" y="194"/>
      <point x="245" y="239" type="curve"/>
      <point x="244" y="255"/>
      <point x="241" y="332"/>
      <point x="241" y="349" type="curve"/>
      <point x="241" y="352"/>
      <point x="241" y="402"/>
      <point x="241" y="420" type="curve"/>
      <point x="241" y="438"/>
      <point x="241" y="486"/>
      <point x="241" y="488" type="curve"/>
      <point x="241" y="495"/>
      <point x="245" y="548"/>
      <point x="245" y="554" type="curve"/>
      <point x="245" y="584"/>
      <point x="245" y="723"/>
      <point x="245" y="752" type="curve"/>
      <point x="245" y="754"/>
      <point x="247" y="765"/>
      <point x="248" y="767" type="curve"/>
      <point x="249" y="768"/>
      <point x="251" y="770"/>
      <point x="252" y="771" type="curve"/>
      <point x="269" y="775"/>
      <point x="283" y="774"/>
      <point x="300" y="774" type="curve"/>
      <point x="389" y="774"/>
      <point x="469" y="730"/>
      <point x="469" y="631" type="curve"/>
      <point x="469" y="610"/>
      <point x="469" y="597"/>
      <point x="461" y="576" type="curve"/>
      <point x="441" y="521"/>
      <point x="405" y="497"/>
      <point x="347" y="492" type="curve"/>
      <point x="344" y="492"/>
      <point x="321" y="488"/>
      <point x="318" y="488" type="curve"/>
      <point x="316" y="488"/>
      <point x="305" y="489"/>
      <point x="303" y="488" type="curve"/>
      <point x="299" y="486"/>
      <point x="288" y="475"/>
      <point x="288" y="468" type="curve"/>
      <point x="288" y="453"/>
      <point x="300" y="444"/>
      <point x="314" y="444" type="curve"/>
      <point x="321" y="444"/>
      <point x="352" y="444"/>
      <point x="358" y="444" type="curve"/>
      <point x="384" y="444"/>
      <point x="398" y="441"/>
      <point x="421" y="448" type="curve"/>
      <point x="421" y="448"/>
      <point x="427" y="451"/>
      <point x="428" y="451" type="curve"/>
      <point x="455" y="459"/>
      <point x="483" y="465"/>
      <point x="505" y="484" type="curve"/>
      <point x="513" y="491"/>
      <point x="549" y="525"/>
      <point x="556" y="532" type="curve"/>
      <point x="577" y="564"/>
      <point x="583" y="594"/>
      <point x="583" y="632" type="curve"/>
      <point x="583" y="733"/>
      <point x="506" y="801"/>
      <point x="406" y="811" type="curve"/>
      <point x="301" y="810"/>
      <point x="197" y="815"/>
      <point x="93" y="815" type="curve"/>
      <point x="85" y="815"/>
      <point x="66" y="815"/>
      <point x="65" y="815" type="curve"/>
      <point x="54" y="811" type="line"/>
      <point x="54" y="778" type="line"/>
      <point x="54" y="772"/>
      <point x="90" y="774"/>
      <point x="101" y="767" type="curve"/>
      <point x="104" y="766"/>
      <point x="111" y="760"/>
      <point x="112" y="760" type="curve"/>
      <point x="138" y="738"/>
      <point x="142" y="718"/>
      <point x="142" y="685" type="curve"/>
      <point x="142" y="681"/>
      <point x="142" y="666"/>
      <point x="142" y="664" type="curve"/>
      <point x="141" y="637"/>
      <point x="138" y="413"/>
      <point x="138" y="385" type="curve"/>
      <point x="138" y="376"/>
      <point x="138" y="299"/>
      <point x="138" y="290" type="curve"/>
      <point x="138" y="281"/>
      <point x="133" y="237"/>
      <point x="131" y="228" type="curve"/>
      <point x="119" y="200"/>
      <point x="97" y="193"/>
      <point x="68" y="187" type="curve"/>
      <point x="58" y="185"/>
      <point x="49" y="190"/>
      <point x="43" y="180" type="curve"/>
      <point x="43" y="178"/>
      <point x="42" y="169"/>
      <point x="42" y="167" type="curve"/>
      <point x="42" y="158"/>
      <point x="42" y="149"/>
    </contour>
    <contour>
      <point x="105" y="501" type="curve"/>
      <point x="103" y="501"/>
      <point x="103" y="497"/>
      <point x="105" y="497" type="curve"/>
      <point x="107" y="497"/>
      <point x="107" y="501"/>
    </contour>
  </outline>
</glyph>
<glyph name="_129" format="1">
  <advance width="900"/>
  <outline>
    <contour>
      <point x="52" y="656" type="line"/>
      <point x="57" y="653"/>
      <point x="81" y="640"/>
      <point x="85" y="637" type="curve"/>
      <point x="86" y="636"/>
      <point x="93" y="626"/>
      <point x="95" y="622" type="curve"/>
      <point x="100" y="613"/>
      <point x="113" y="587"/>
      <point x="114" y="584" type="curve"/>
      <point x="271" y="119" type="line"/>
      <point x="271" y="118"/>
      <point x="274" y="114"/>
      <point x="275" y="114" type="curve"/>
      <point x="280" y="113"/>
      <point x="296" y="109"/>
      <point x="299" y="109" type="curve"/>
      <point x="311" y="109"/>
      <point x="328" y="116"/>
      <point x="332" y="128" type="curve"/>
      <point x="451" y="437" type="line"/>
      <point x="461" y="447" type="line"/>
      <point x="484" y="412"/>
      <point x="480" y="363"/>
      <point x="503" y="328" type="curve"/>
      <point x="570" y="119" type="line"/>
      <point x="573" y="108"/>
      <point x="591" y="109"/>
      <point x="598" y="109" type="curve"/>
      <point x="620" y="109"/>
      <point x="636" y="118"/>
      <point x="636" y="143" type="curve"/>
      <point x="717" y="371" type="line"/>
      <point x="744" y="414"/>
      <point x="749" y="466"/>
      <point x="765" y="513" type="curve"/>
      <point x="769" y="526"/>
      <point x="792" y="586"/>
      <point x="798" y="599" type="curve"/>
      <point x="804" y="608"/>
      <point x="813" y="619"/>
      <point x="822" y="627" type="curve"/>
      <point x="840" y="642"/>
      <point x="860" y="645"/>
      <point x="860" y="672" type="curve"/>
      <point x="860" y="688"/>
      <point x="853" y="694"/>
      <point x="836" y="694" type="curve"/>
      <point x="679" y="694" type="line"/>
      <point x="673" y="694"/>
      <point x="674" y="673"/>
      <point x="674" y="672" type="curve"/>
      <point x="674" y="635"/>
      <point x="704" y="651"/>
      <point x="727" y="632" type="curve"/>
      <point x="729" y="629"/>
      <point x="736" y="619"/>
      <point x="736" y="618" type="curve"/>
      <point x="736" y="565" type="line"/>
      <point x="689" y="418" type="line"/>
      <point x="688" y="417"/>
      <point x="684" y="410"/>
      <point x="684" y="409" type="curve"/>
      <point x="682" y="403"/>
      <point x="667" y="357"/>
      <point x="665" y="352" type="curve"/>
      <point x="661" y="342"/>
      <point x="641" y="299"/>
      <point x="636" y="290" type="curve"/>
      <point x="635" y="286"/>
      <point x="632" y="285"/>
      <point x="629" y="285" type="curve"/>
      <point x="628" y="285"/>
      <point x="627" y="285"/>
      <point x="627" y="285" type="curve"/>
      <point x="617" y="304" type="line"/>
      <point x="527" y="594" type="line"/>
      <point x="527" y="594"/>
      <point x="527" y="599"/>
      <point x="527" y="601" type="curve"/>
      <point x="527" y="619"/>
      <point x="544" y="636"/>
      <point x="560" y="641" type="curve"/>
      <point x="581" y="648"/>
      <point x="603" y="645"/>
      <point x="603" y="675" type="curve"/>
      <point x="603" y="682"/>
      <point x="602" y="686"/>
      <point x="598" y="694" type="curve"/>
      <point x="564" y="694"/>
      <point x="404" y="698"/>
      <point x="370" y="698" type="curve"/>
      <point x="369" y="698"/>
      <point x="359" y="698"/>
      <point x="356" y="698" type="curve"/>
      <point x="355" y="698"/>
      <point x="337" y="700"/>
      <point x="337" y="694" type="curve"/>
      <point x="337" y="656" type="line"/>
      <point x="337" y="655"/>
      <point x="344" y="652"/>
      <point x="347" y="651" type="curve"/>
      <point x="350" y="650"/>
      <point x="377" y="643"/>
      <point x="380" y="641" type="curve"/>
      <point x="383" y="640"/>
      <point x="396" y="626"/>
      <point x="399" y="622" type="curve"/>
      <point x="401" y="619"/>
      <point x="414" y="592"/>
      <point x="418" y="584" type="curve"/>
      <point x="421" y="577"/>
      <point x="434" y="540"/>
      <point x="437" y="532" type="curve"/>
      <point x="433" y="525"/>
      <point x="430" y="516"/>
      <point x="432" y="508" type="curve"/>
      <point x="404" y="428" type="line"/>
      <point x="399" y="423" type="line"/>
      <point x="394" y="409"/>
      <point x="367" y="346"/>
      <point x="361" y="333" type="curve"/>
      <point x="360" y="331"/>
      <point x="352" y="320"/>
      <point x="351" y="318" type="curve"/>
      <point x="346" y="310"/>
      <point x="342" y="280"/>
      <point x="329" y="280" type="curve"/>
      <point x="329" y="280"/>
      <point x="328" y="280"/>
      <point x="328" y="280" type="curve"/>
      <point x="214" y="608" type="line"/>
      <point x="213" y="609"/>
      <point x="220" y="623"/>
      <point x="223" y="627" type="curve"/>
      <point x="225" y="630"/>
      <point x="235" y="640"/>
      <point x="237" y="641" type="curve"/>
      <point x="240" y="643"/>
      <point x="267" y="654"/>
      <point x="271" y="656" type="curve"/>
      <point x="276" y="658"/>
      <point x="276" y="660"/>
      <point x="276" y="665" type="curve"/>
      <point x="276" y="686"/>
      <point x="270" y="698"/>
      <point x="247" y="698" type="curve"/>
      <point x="62" y="698" type="line"/>
      <point x="52" y="689" type="line"/>
    </contour>
  </outline>
</glyph>
<glyph name="_130" format="1">
  <advance width="755"/>
  <outline>
    <contour>
      <point x="39" y="156" type="curve"/>
      <point x="39" y="145"/>
      <point x="37" y="127"/>
      <point x="52" y="126" type="curve"/>
      <point x="56" y="125"/>
      <point x="91" y="126"/>
      <point x="95" y="126" type="curve"/>
      <point x="114" y="125"/>
      <point x="264" y="122"/>
      <point x="282" y="121" type="curve"/>
      <point x="301" y="121"/>
      <point x="454" y="122"/>
      <point x="473" y="121" type="curve"/>
      <point x="483" y="121"/>
      <point x="563" y="117"/>
      <point x="573" y="117" type="curve"/>
      <point x="577" y="117"/>
      <point x="618" y="117"/>
      <point x="631" y="117" type="curve"/>
      <point x="641" y="117"/>
      <point x="667" y="117"/>
      <point x="668" y="117" type="curve"/>
      <point x="672" y="121" type="line"/>
      <point x="673" y="122"/>
      <point x="682" y="152"/>
      <point x="686" y="165" type="curve"/>
      <point x="689" y="179"/>
      <point x="691" y="195"/>
      <point x="694" y="208" type="curve"/>
      <point x="701" y="236"/>
      <point x="712" y="262"/>
      <point x="712" y="291" type="curve"/>
      <point x="712" y="304"/>
      <point x="712" y="308"/>
      <point x="699" y="308" type="curve"/>
      <point x="689" y="308"/>
      <point x="679" y="308"/>
      <point x="672" y="299" type="curve"/>
      <point x="669" y="295"/>
      <point x="645" y="260"/>
      <point x="642" y="256" type="curve"/>
      <point x="627" y="238"/>
      <point x="608" y="230"/>
      <point x="594" y="213" type="curve"/>
      <point x="586" y="208"/>
      <point x="543" y="187"/>
      <point x="534" y="182" type="curve"/>
      <point x="532" y="182"/>
      <point x="523" y="179"/>
      <point x="521" y="178" type="curve"/>
      <point x="517" y="177"/>
      <point x="486" y="170"/>
      <point x="482" y="169" type="curve"/>
      <point x="481" y="169"/>
      <point x="474" y="165"/>
      <point x="473" y="165" type="curve"/>
      <point x="472" y="165"/>
      <point x="461" y="169"/>
      <point x="460" y="169" type="curve"/>
      <point x="401" y="173"/>
      <point x="357" y="167"/>
      <point x="299" y="187" type="curve"/>
      <point x="269" y="220"/>
      <point x="277" y="277"/>
      <point x="277" y="317" type="curve"/>
      <point x="277" y="472"/>
      <point x="281" y="626"/>
      <point x="286" y="781" type="curve"/>
      <point x="288" y="822"/>
      <point x="304" y="857"/>
      <point x="347" y="868" type="curve"/>
      <point x="348" y="868"/>
      <point x="359" y="872"/>
      <point x="360" y="872" type="curve"/>
      <point x="384" y="874"/>
      <point x="417" y="861"/>
      <point x="417" y="893" type="curve"/>
      <point x="417" y="908"/>
      <point x="413" y="919"/>
      <point x="399" y="924" type="curve"/>
      <point x="290" y="923"/>
      <point x="183" y="929"/>
      <point x="74" y="929" type="curve"/>
      <point x="55" y="929"/>
      <point x="48" y="924"/>
      <point x="48" y="905" type="curve"/>
      <point x="48" y="889"/>
      <point x="48" y="880"/>
      <point x="65" y="876" type="curve"/>
      <point x="69" y="876"/>
      <point x="96" y="873"/>
      <point x="100" y="872" type="curve"/>
      <point x="137" y="866"/>
      <point x="151" y="837"/>
      <point x="156" y="803" type="curve"/>
      <point x="156" y="786"/>
      <point x="156" y="709"/>
      <point x="156" y="692" type="curve"/>
      <point x="156" y="664"/>
      <point x="156" y="587"/>
      <point x="156" y="581" type="curve"/>
      <point x="156" y="549"/>
      <point x="152" y="284"/>
      <point x="152" y="252" type="curve"/>
      <point x="152" y="230"/>
      <point x="135" y="217"/>
      <point x="122" y="200" type="curve"/>
      <point x="115" y="191"/>
      <point x="99" y="185"/>
      <point x="91" y="182" type="curve"/>
      <point x="81" y="179"/>
      <point x="52" y="182"/>
      <point x="43" y="174" type="curve"/>
      <point x="40" y="170"/>
      <point x="39" y="162"/>
    </contour>
  </outline>
</glyph>
<glyph name="_26" format="1">
  <advance width="733"/>
  <outline>
    <contour>
      <point x="110" y="326" type="curve"/>
      <point x="110" y="310"/>
      <point x="110" y="293"/>
      <point x="106" y="277" type="curve"/>
      <point x="100" y="253"/>
      <point x="41" y="237"/>
      <point x="41" y="229" type="curve"/>
      <point x="41" y="199" type="line"/>
      <point x="41" y="196"/>
      <point x="60" y="192"/>
      <point x="60" y="192" type="curve"/>
      <point x="61" y="192"/>
      <point x="62" y="192"/>
      <point x="62" y="192" type="curve"/>
      <point x="65" y="192"/>
      <point x="77" y="195"/>
      <point x="79" y="195" type="curve"/>
      <point x="271" y="195" type="line"/>
      <point x="285" y="195"/>
      <point x="285" y="205"/>
      <point x="285" y="216" type="curve"/>
      <point x="285" y="241"/>
      <point x="280" y="238"/>
      <point x="257" y="243" type="curve"/>
      <point x="247" y="246"/>
      <point x="238" y="251"/>
      <point x="230" y="257" type="curve"/>
      <point x="224" y="261"/>
      <point x="210" y="273"/>
      <point x="209" y="274" type="curve"/>
      <point x="209" y="275"/>
      <point x="204" y="294"/>
      <point x="202" y="301" type="curve"/>
      <point x="201" y="307"/>
      <point x="199" y="323"/>
      <point x="199" y="325" type="curve"/>
      <point x="199" y="551" type="line"/>
      <point x="195" y="576"/>
      <point x="195" y="596"/>
      <point x="195" y="621" type="curve"/>
      <point x="195" y="627"/>
      <point x="195" y="643"/>
      <point x="196" y="644" type="curve"/>
      <point x="199" y="647" type="line"/>
      <point x="274" y="647" type="line"/>
      <point x="290" y="647"/>
      <point x="288" y="673"/>
      <point x="288" y="683" type="curve"/>
      <point x="288" y="697"/>
      <point x="281" y="702"/>
      <point x="268" y="702" type="curve"/>
      <point x="264" y="702"/>
      <point x="255" y="702"/>
      <point x="254" y="702" type="curve"/>
      <point x="250" y="702"/>
      <point x="223" y="699"/>
      <point x="220" y="699" type="curve"/>
      <point x="217" y="699"/>
      <point x="203" y="701"/>
      <point x="199" y="702" type="curve"/>
      <point x="198" y="702"/>
      <point x="196" y="705"/>
      <point x="196" y="705" type="curve"/>
      <point x="195" y="712"/>
      <point x="195" y="745"/>
      <point x="195" y="752" type="curve"/>
      <point x="195" y="809"/>
      <point x="196" y="928"/>
      <point x="280" y="928" type="curve"/>
      <point x="280" y="928"/>
      <point x="281" y="928"/>
      <point x="281" y="928" type="curve"/>
      <point x="317" y="913"/>
      <point x="318" y="889"/>
      <point x="346" y="870" type="curve"/>
      <point x="351" y="867"/>
      <point x="370" y="857"/>
      <point x="374" y="856" type="curve"/>
      <point x="374" y="856"/>
      <point x="381" y="855"/>
      <point x="384" y="855" type="curve"/>
      <point x="386" y="855"/>
      <point x="394" y="856"/>
      <point x="394" y="856" type="curve"/>
      <point x="403" y="859"/>
      <point x="426" y="895"/>
      <point x="426" y="905" type="curve"/>
      <point x="426" y="944"/>
      <point x="386" y="967"/>
      <point x="353" y="976" type="curve"/>
      <point x="348" y="976"/>
      <point x="326" y="977"/>
      <point x="321" y="977" type="curve"/>
      <point x="295" y="977"/>
      <point x="278" y="977"/>
      <point x="254" y="969" type="curve"/>
      <point x="204" y="953"/>
      <point x="143" y="897"/>
      <point x="127" y="849" type="curve"/>
      <point x="126" y="845"/>
      <point x="116" y="809"/>
      <point x="113" y="798" type="curve"/>
      <point x="107" y="771"/>
      <point x="115" y="735"/>
      <point x="96" y="712" type="curve"/>
      <point x="92" y="708"/>
      <point x="86" y="700"/>
      <point x="79" y="699" type="curve"/>
      <point x="74" y="697"/>
      <point x="50" y="693"/>
      <point x="45" y="692" type="curve"/>
      <point x="37" y="686"/>
      <point x="38" y="676"/>
      <point x="38" y="668" type="curve"/>
      <point x="38" y="664"/>
      <point x="38" y="655"/>
      <point x="38" y="654" type="curve"/>
      <point x="38" y="652"/>
      <point x="41" y="647"/>
      <point x="41" y="647" type="curve"/>
      <point x="93" y="647" type="line"/>
      <point x="96" y="647"/>
      <point x="104" y="645"/>
      <point x="106" y="640" type="curve"/>
      <point x="107" y="597"/>
      <point x="109" y="393"/>
      <point x="110" y="349" type="curve"/>
      <point x="110" y="347"/>
      <point x="110" y="331"/>
    </contour>
    <contour>
      <point x="346" y="195" type="curve"/>
      <point x="427" y="196"/>
      <point x="507" y="192"/>
      <point x="589" y="192" type="curve"/>
      <point x="595" y="192"/>
      <point x="603" y="192"/>
      <point x="606" y="199" type="curve"/>
      <point x="607" y="201"/>
      <point x="607" y="210"/>
      <point x="607" y="212" type="curve"/>
      <point x="607" y="246"/>
      <point x="595" y="239"/>
      <point x="569" y="243" type="curve"/>
      <point x="544" y="247"/>
      <point x="523" y="257"/>
      <point x="511" y="281" type="curve"/>
      <point x="510" y="289"/>
      <point x="507" y="324"/>
      <point x="507" y="332" type="curve"/>
      <point x="507" y="336"/>
      <point x="507" y="414"/>
      <point x="507" y="443" type="curve"/>
      <point x="507" y="460"/>
      <point x="507" y="538"/>
      <point x="507" y="555" type="curve"/>
      <point x="507" y="557"/>
      <point x="510" y="564"/>
      <point x="511" y="565" type="curve"/>
      <point x="514" y="570"/>
      <point x="528" y="589"/>
      <point x="531" y="592" type="curve"/>
      <point x="533" y="595"/>
      <point x="552" y="611"/>
      <point x="559" y="616" type="curve"/>
      <point x="565" y="622"/>
      <point x="573" y="627"/>
      <point x="583" y="627" type="curve"/>
      <point x="583" y="627"/>
      <point x="588" y="624"/>
      <point x="589" y="623" type="curve"/>
      <point x="614" y="608"/>
      <point x="618" y="572"/>
      <point x="653" y="572" type="curve"/>
      <point x="669" y="572"/>
      <point x="681" y="586"/>
      <point x="685" y="599" type="curve"/>
      <point x="687" y="605"/>
      <point x="695" y="632"/>
      <point x="696" y="637" type="curve"/>
      <point x="696" y="637"/>
      <point x="696" y="642"/>
      <point x="696" y="644" type="curve"/>
      <point x="696" y="671"/>
      <point x="668" y="699"/>
      <point x="644" y="709" type="curve"/>
      <point x="641" y="709"/>
      <point x="625" y="709"/>
      <point x="622" y="709" type="curve"/>
      <point x="602" y="709"/>
      <point x="585" y="708"/>
      <point x="569" y="695" type="curve"/>
      <point x="566" y="693"/>
      <point x="542" y="669"/>
      <point x="535" y="661" type="curve"/>
      <point x="532" y="658"/>
      <point x="523" y="646"/>
      <point x="521" y="644" type="curve"/>
      <point x="514" y="634"/>
      <point x="517" y="630"/>
      <point x="507" y="623" type="curve"/>
      <point x="507" y="623"/>
      <point x="504" y="624"/>
      <point x="504" y="624" type="curve"/>
      <point x="504" y="705" type="line"/>
      <point x="500" y="712" type="line"/>
      <point x="500" y="713"/>
      <point x="493" y="713"/>
      <point x="491" y="713" type="curve"/>
      <point x="460" y="713"/>
      <point x="429" y="692"/>
      <point x="401" y="682" type="curve"/>
      <point x="384" y="675"/>
      <point x="358" y="670"/>
      <point x="343" y="658" type="curve"/>
      <point x="338" y="654"/>
      <point x="336" y="646"/>
      <point x="336" y="640" type="curve"/>
      <point x="336" y="640"/>
      <point x="336" y="638"/>
      <point x="336" y="637" type="curve"/>
      <point x="338" y="634"/>
      <point x="350" y="622"/>
      <point x="353" y="620" type="curve"/>
      <point x="356" y="618"/>
      <point x="378" y="608"/>
      <point x="380" y="606" type="curve"/>
      <point x="385" y="604"/>
      <point x="411" y="589"/>
      <point x="411" y="586" type="curve"/>
      <point x="411" y="305" type="line"/>
      <point x="411" y="267"/>
      <point x="397" y="248"/>
      <point x="360" y="243" type="curve"/>
      <point x="353" y="242"/>
      <point x="343" y="244"/>
      <point x="339" y="236" type="curve"/>
      <point x="335" y="228"/>
      <point x="336" y="224"/>
      <point x="336" y="214" type="curve"/>
      <point x="336" y="212"/>
      <point x="336" y="204"/>
      <point x="336" y="202" type="curve"/>
      <point x="338" y="199"/>
      <point x="343" y="196"/>
    </contour>
    <contour>
      <point x="387" y="697" type="curve"/>
      <point x="386" y="697"/>
      <point x="386" y="693"/>
      <point x="387" y="693" type="curve"/>
      <point x="389" y="693"/>
      <point x="389" y="697"/>
    </contour>
    <contour>
      <point x="593" y="762" type="curve"/>
      <point x="591" y="762"/>
      <point x="591" y="759"/>
      <point x="593" y="759" type="curve"/>
      <point x="595" y="759"/>
      <point x="595" y="762"/>
    </contour>
    <contour>
      <point x="541" y="861" type="curve"/>
      <point x="540" y="861"/>
      <point x="540" y="858"/>
      <point x="541" y="858" type="curve"/>
      <point x="543" y="858"/>
      <point x="543" y="861"/>
    </contour>
  </outline>
</glyph>
<glyph name="_29" format="1">
  <advance width="438"/>
  <outline>
    <contour>
      <point x="14" y="45" type="curve"/>
      <point x="14" y="19"/>
      <point x="48" y="9"/>
      <point x="69" y="3" type="curve"/>
      <point x="74" y="3"/>
      <point x="99" y="3"/>
      <point x="105" y="3" type="curve"/>
      <point x="133" y="3"/>
      <point x="167" y="1"/>
      <point x="192" y="17" type="curve"/>
      <point x="207" y="27"/>
      <point x="277" y="72"/>
      <point x="291" y="82" type="curve"/>
      <point x="316" y="105"/>
      <point x="344" y="133"/>
      <point x="360" y="164" type="curve"/>
      <point x="365" y="175"/>
      <point x="387" y="225"/>
      <point x="391" y="236" type="curve"/>
      <point x="391" y="238"/>
      <point x="391" y="248"/>
      <point x="391" y="250" type="curve"/>
      <point x="391" y="252"/>
      <point x="394" y="268"/>
      <point x="394" y="271" type="curve"/>
      <point x="394" y="272"/>
      <point x="394" y="296"/>
      <point x="394" y="305" type="curve"/>
      <point x="394" y="358"/>
      <point x="384" y="391"/>
      <point x="350" y="432" type="curve"/>
      <point x="297" y="493"/>
      <point x="234" y="522"/>
      <point x="161" y="558" type="curve"/>
      <point x="154" y="561"/>
      <point x="154" y="564"/>
      <point x="154" y="570" type="curve"/>
      <point x="154" y="576"/>
      <point x="155" y="579"/>
      <point x="158" y="586" type="curve"/>
      <point x="164" y="599"/>
      <point x="181" y="633"/>
      <point x="182" y="634" type="curve"/>
      <point x="185" y="637" type="line"/>
      <point x="186" y="637"/>
      <point x="194" y="637"/>
      <point x="198" y="637" type="curve"/>
      <point x="242" y="637"/>
      <point x="287" y="630"/>
      <point x="332" y="630" type="curve"/>
      <point x="348" y="630"/>
      <point x="375" y="629"/>
      <point x="384" y="647" type="curve"/>
      <point x="418" y="716" type="line"/>
      <point x="418" y="716"/>
      <point x="419" y="723"/>
      <point x="419" y="725" type="curve"/>
      <point x="419" y="743"/>
      <point x="413" y="761"/>
      <point x="392" y="761" type="curve"/>
      <point x="369" y="761"/>
      <point x="365" y="734"/>
      <point x="343" y="726" type="curve"/>
      <point x="338" y="726"/>
      <point x="317" y="726"/>
      <point x="312" y="726" type="curve"/>
      <point x="280" y="726"/>
      <point x="249" y="733"/>
      <point x="218" y="733" type="curve"/>
      <point x="201" y="733"/>
      <point x="185" y="735"/>
      <point x="175" y="719" type="curve"/>
      <point x="174" y="718"/>
      <point x="172" y="710"/>
      <point x="172" y="709" type="curve"/>
      <point x="170" y="706"/>
      <point x="160" y="691"/>
      <point x="158" y="688" type="curve"/>
      <point x="96" y="565" type="line"/>
      <point x="94" y="564"/>
      <point x="87" y="557"/>
      <point x="86" y="555" type="curve"/>
      <point x="85" y="554"/>
      <point x="83" y="542"/>
      <point x="82" y="541" type="curve"/>
      <point x="79" y="533"/>
      <point x="62" y="494"/>
      <point x="59" y="486" type="curve"/>
      <point x="59" y="486"/>
      <point x="58" y="485"/>
      <point x="58" y="485" type="curve"/>
      <point x="58" y="479"/>
      <point x="68" y="474"/>
      <point x="72" y="473" type="curve"/>
      <point x="78" y="471"/>
      <point x="125" y="454"/>
      <point x="130" y="452" type="curve"/>
      <point x="132" y="452"/>
      <point x="140" y="446"/>
      <point x="141" y="445" type="curve"/>
      <point x="143" y="444"/>
      <point x="159" y="439"/>
      <point x="161" y="438" type="curve"/>
      <point x="163" y="438"/>
      <point x="173" y="433"/>
      <point x="175" y="432" type="curve"/>
      <point x="176" y="431"/>
      <point x="184" y="425"/>
      <point x="185" y="425" type="curve"/>
      <point x="187" y="424"/>
      <point x="198" y="422"/>
      <point x="199" y="421" type="curve"/>
      <point x="202" y="420"/>
      <point x="219" y="410"/>
      <point x="223" y="408" type="curve"/>
      <point x="280" y="370"/>
      <point x="323" y="313"/>
      <point x="323" y="242" type="curve"/>
      <point x="323" y="236"/>
      <point x="322" y="220"/>
      <point x="322" y="219" type="curve"/>
      <point x="322" y="218"/>
      <point x="319" y="210"/>
      <point x="319" y="209" type="curve"/>
      <point x="319" y="207"/>
      <point x="319" y="200"/>
      <point x="319" y="199" type="curve"/>
      <point x="315" y="191"/>
      <point x="296" y="155"/>
      <point x="291" y="147" type="curve"/>
      <point x="281" y="130"/>
      <point x="256" y="102"/>
      <point x="237" y="96" type="curve"/>
      <point x="217" y="89"/>
      <point x="191" y="85"/>
      <point x="172" y="82" type="curve"/>
      <point x="171" y="82"/>
      <point x="167" y="82"/>
      <point x="166" y="82" type="curve"/>
      <point x="155" y="82"/>
      <point x="142" y="91"/>
      <point x="130" y="92" type="curve"/>
      <point x="127" y="93"/>
      <point x="103" y="92"/>
      <point x="100" y="92" type="curve"/>
      <point x="97" y="93"/>
      <point x="75" y="99"/>
      <point x="72" y="99" type="curve"/>
      <point x="72" y="99"/>
      <point x="66" y="100"/>
      <point x="64" y="100" type="curve"/>
      <point x="58" y="100"/>
      <point x="53" y="100"/>
      <point x="48" y="96" type="curve"/>
      <point x="34" y="83"/>
      <point x="14" y="66"/>
    </contour>
    <contour>
      <point x="254" y="937" type="curve"/>
      <point x="252" y="937"/>
      <point x="252" y="933"/>
      <point x="254" y="933" type="curve"/>
      <point x="255" y="933"/>
      <point x="255" y="937"/>
    </contour>
  </outline>
</glyph>
<glyph name="_31" format="1">
  <advance width="538"/>
  <outline>
    <contour>
      <point x="38" y="432" type="curve"/>
      <point x="38" y="362"/>
      <point x="48" y="308"/>
      <point x="96" y="257" type="curve"/>
      <point x="106" y="246"/>
      <point x="138" y="215"/>
      <point x="141" y="212" type="curve"/>
      <point x="142" y="211"/>
      <point x="169" y="197"/>
      <point x="178" y="192" type="curve"/>
      <point x="183" y="190"/>
      <point x="199" y="183"/>
      <point x="202" y="182" type="curve"/>
      <point x="220" y="176"/>
      <point x="245" y="178"/>
      <point x="261" y="178" type="curve"/>
      <point x="369" y="178"/>
      <point x="443" y="235"/>
      <point x="480" y="332" type="curve"/>
      <point x="481" y="335"/>
      <point x="489" y="363"/>
      <point x="490" y="366" type="curve"/>
      <point x="490" y="367"/>
      <point x="493" y="372"/>
      <point x="493" y="373" type="curve"/>
      <point x="495" y="384"/>
      <point x="499" y="434"/>
      <point x="500" y="445" type="curve"/>
      <point x="500" y="445"/>
      <point x="500" y="448"/>
      <point x="500" y="449" type="curve"/>
      <point x="500" y="449"/>
      <point x="500" y="452"/>
      <point x="500" y="452" type="curve"/>
      <point x="494" y="509"/>
      <point x="485" y="572"/>
      <point x="446" y="616" type="curve"/>
      <point x="404" y="663"/>
      <point x="347" y="702"/>
      <point x="283" y="702" type="curve"/>
      <point x="118" y="702"/>
      <point x="38" y="591"/>
    </contour>
    <contour>
      <point x="178" y="284" type="curve"/>
      <point x="177" y="289"/>
      <point x="170" y="313"/>
      <point x="168" y="318" type="curve"/>
      <point x="167" y="321"/>
      <point x="159" y="340"/>
      <point x="158" y="342" type="curve"/>
      <point x="157" y="346"/>
      <point x="152" y="363"/>
      <point x="151" y="366" type="curve"/>
      <point x="142" y="407"/>
      <point x="134" y="446"/>
      <point x="134" y="488" type="curve"/>
      <point x="134" y="538"/>
      <point x="137" y="573"/>
      <point x="165" y="616" type="curve"/>
      <point x="165" y="618"/>
      <point x="173" y="625"/>
      <point x="175" y="627" type="curve"/>
      <point x="200" y="647"/>
      <point x="221" y="658"/>
      <point x="254" y="658" type="curve"/>
      <point x="271" y="658"/>
      <point x="280" y="656"/>
      <point x="295" y="651" type="curve"/>
      <point x="295" y="651"/>
      <point x="298" y="651"/>
      <point x="298" y="651" type="curve"/>
      <point x="316" y="640"/>
      <point x="333" y="626"/>
      <point x="346" y="610" type="curve"/>
      <point x="351" y="601"/>
      <point x="370" y="560"/>
      <point x="374" y="551" type="curve"/>
      <point x="375" y="549"/>
      <point x="382" y="520"/>
      <point x="384" y="510" type="curve"/>
      <point x="394" y="464"/>
      <point x="401" y="415"/>
      <point x="401" y="366" type="curve"/>
      <point x="401" y="298"/>
      <point x="373" y="218"/>
      <point x="293" y="218" type="curve"/>
      <point x="263" y="218"/>
      <point x="237" y="227"/>
      <point x="216" y="247" type="curve"/>
      <point x="210" y="252"/>
      <point x="184" y="278"/>
    </contour>
  </outline>
</glyph>
